%TF.GenerationSoftware,KiCad,Pcbnew,8.0.6*%
%TF.CreationDate,2024-11-04T22:38:12+01:00*%
%TF.ProjectId,christmas_ornament_2024,63687269-7374-46d6-9173-5f6f726e616d,1.0*%
%TF.SameCoordinates,Original*%
%TF.FileFunction,Paste,Bot*%
%TF.FilePolarity,Positive*%
%FSLAX46Y46*%
G04 Gerber Fmt 4.6, Leading zero omitted, Abs format (unit mm)*
G04 Created by KiCad (PCBNEW 8.0.6) date 2024-11-04 22:38:12*
%MOMM*%
%LPD*%
G01*
G04 APERTURE LIST*
G04 Aperture macros list*
%AMRoundRect*
0 Rectangle with rounded corners*
0 $1 Rounding radius*
0 $2 $3 $4 $5 $6 $7 $8 $9 X,Y pos of 4 corners*
0 Add a 4 corners polygon primitive as box body*
4,1,4,$2,$3,$4,$5,$6,$7,$8,$9,$2,$3,0*
0 Add four circle primitives for the rounded corners*
1,1,$1+$1,$2,$3*
1,1,$1+$1,$4,$5*
1,1,$1+$1,$6,$7*
1,1,$1+$1,$8,$9*
0 Add four rect primitives between the rounded corners*
20,1,$1+$1,$2,$3,$4,$5,0*
20,1,$1+$1,$4,$5,$6,$7,0*
20,1,$1+$1,$6,$7,$8,$9,0*
20,1,$1+$1,$8,$9,$2,$3,0*%
%AMRotRect*
0 Rectangle, with rotation*
0 The origin of the aperture is its center*
0 $1 length*
0 $2 width*
0 $3 Rotation angle, in degrees counterclockwise*
0 Add horizontal line*
21,1,$1,$2,0,0,$3*%
G04 Aperture macros list end*
%ADD10RoundRect,0.250000X0.450000X-0.350000X0.450000X0.350000X-0.450000X0.350000X-0.450000X-0.350000X0*%
%ADD11RoundRect,0.250000X-0.565685X-0.070711X-0.070711X-0.565685X0.565685X0.070711X0.070711X0.565685X0*%
%ADD12RoundRect,0.250000X0.337500X0.475000X-0.337500X0.475000X-0.337500X-0.475000X0.337500X-0.475000X0*%
%ADD13RotRect,0.700000X1.500000X225.000000*%
%ADD14RotRect,1.000000X0.800000X225.000000*%
%ADD15RoundRect,0.250000X-0.450000X0.350000X-0.450000X-0.350000X0.450000X-0.350000X0.450000X0.350000X0*%
%ADD16RoundRect,0.250000X-0.350000X-0.450000X0.350000X-0.450000X0.350000X0.450000X-0.350000X0.450000X0*%
%ADD17RoundRect,0.250000X0.350000X0.450000X-0.350000X0.450000X-0.350000X-0.450000X0.350000X-0.450000X0*%
%ADD18R,1.750000X0.650000*%
%ADD19R,5.700000X6.100000*%
%ADD20RoundRect,0.425000X0.425000X0.425000X-0.425000X0.425000X-0.425000X-0.425000X0.425000X-0.425000X0*%
%ADD21C,1.700000*%
%ADD22RoundRect,0.200000X-0.200000X0.750000X-0.200000X-0.750000X0.200000X-0.750000X0.200000X0.750000X0*%
%ADD23RoundRect,0.250000X0.650000X-1.500000X0.650000X1.500000X-0.650000X1.500000X-0.650000X-1.500000X0*%
G04 APERTURE END LIST*
D10*
X143946806Y-88150453D03*
X143946806Y-86150453D03*
D11*
X173211699Y-106271346D03*
X174625913Y-107685560D03*
D12*
X182576306Y-106470453D03*
X180501306Y-106470453D03*
D13*
X176095019Y-112995366D03*
X173973699Y-115116686D03*
X172913039Y-116177346D03*
D14*
X177640048Y-112560495D03*
X179004764Y-113925211D03*
X173842884Y-119087091D03*
X172478168Y-117722375D03*
D15*
X147756806Y-69148453D03*
X147756806Y-71148453D03*
X157916806Y-69148453D03*
X157916806Y-71148453D03*
D16*
X173172806Y-94024453D03*
X175172806Y-94024453D03*
D17*
X129198806Y-97326453D03*
X127198806Y-97326453D03*
D15*
X133532806Y-110042453D03*
X133532806Y-112042453D03*
D18*
X175050806Y-104438453D03*
X175050806Y-103168454D03*
X175050806Y-101898454D03*
X175050806Y-100628455D03*
X182300806Y-100628455D03*
X182300806Y-101898454D03*
X182300806Y-103168454D03*
X182300806Y-104438453D03*
D15*
X141406806Y-91754453D03*
X141406806Y-93754453D03*
X135056806Y-116900453D03*
X135056806Y-118900453D03*
D10*
X175188806Y-87134453D03*
X175188806Y-85134453D03*
D19*
X165482806Y-113328453D03*
X139682806Y-113328453D03*
D20*
X180522806Y-89198453D03*
D21*
X177982806Y-89198453D03*
X180522806Y-91738453D03*
X177982806Y-91738453D03*
X180522806Y-94278453D03*
X177982806Y-94278453D03*
D17*
X128182806Y-102152453D03*
X126182806Y-102152453D03*
D16*
X126182806Y-99866453D03*
X128182806Y-99866453D03*
D22*
X124962806Y-105986453D03*
X126862806Y-105986453D03*
X125912806Y-108986453D03*
D15*
X152836806Y-69148453D03*
X152836806Y-71148453D03*
D10*
X139374806Y-91706453D03*
X139374806Y-89706453D03*
D17*
X180760806Y-97596453D03*
X178760806Y-97596453D03*
D15*
X159694806Y-90738453D03*
X159694806Y-92738453D03*
D23*
X170362806Y-113542453D03*
X170362806Y-108542453D03*
D10*
X154868806Y-100612453D03*
X154868806Y-98612453D03*
X162234806Y-88420453D03*
X162234806Y-86420453D03*
M02*
