%TF.GenerationSoftware,KiCad,Pcbnew,8.0.6*%
%TF.CreationDate,2024-11-04T22:38:12+01:00*%
%TF.ProjectId,christmas_ornament_2024,63687269-7374-46d6-9173-5f6f726e616d,1.0*%
%TF.SameCoordinates,Original*%
%TF.FileFunction,Profile,NP*%
%FSLAX46Y46*%
G04 Gerber Fmt 4.6, Leading zero omitted, Abs format (unit mm)*
G04 Created by KiCad (PCBNEW 8.0.6) date 2024-11-04 22:38:12*
%MOMM*%
%LPD*%
G01*
G04 APERTURE LIST*
%TA.AperFunction,Profile*%
%ADD10C,0.349999*%
%TD*%
G04 APERTURE END LIST*
D10*
X152591131Y-52778642D02*
X152654611Y-52783469D01*
X152717169Y-52791418D01*
X152778725Y-52802411D01*
X152839201Y-52816369D01*
X152898518Y-52833213D01*
X152956598Y-52852865D01*
X153013363Y-52875247D01*
X153068733Y-52900279D01*
X153122631Y-52927883D01*
X153174977Y-52957982D01*
X153225693Y-52990496D01*
X153274701Y-53025346D01*
X153321922Y-53062454D01*
X153367278Y-53101742D01*
X153410690Y-53143132D01*
X153452079Y-53186543D01*
X153491367Y-53231899D01*
X153528475Y-53279120D01*
X153563326Y-53328128D01*
X153595839Y-53378844D01*
X153625938Y-53431191D01*
X153653542Y-53485088D01*
X153678575Y-53540458D01*
X153700956Y-53597223D01*
X153720608Y-53655303D01*
X153737453Y-53714620D01*
X153751410Y-53775096D01*
X153762403Y-53836652D01*
X153770352Y-53899210D01*
X153775179Y-53962690D01*
X153776806Y-54027015D01*
X153775179Y-54091340D01*
X153770352Y-54154821D01*
X153762403Y-54217378D01*
X153751410Y-54278934D01*
X153737453Y-54339410D01*
X153720608Y-54398727D01*
X153700956Y-54456808D01*
X153678575Y-54513572D01*
X153653542Y-54568943D01*
X153625938Y-54622840D01*
X153595839Y-54675186D01*
X153563326Y-54725903D01*
X153528475Y-54774911D01*
X153491367Y-54822132D01*
X153452079Y-54867488D01*
X153410690Y-54910899D01*
X153367278Y-54952288D01*
X153321922Y-54991576D01*
X153274701Y-55028685D01*
X153225693Y-55063535D01*
X153174977Y-55096049D01*
X153122631Y-55126147D01*
X153068733Y-55153752D01*
X153013363Y-55178784D01*
X152956598Y-55201166D01*
X152898518Y-55220818D01*
X152839201Y-55237662D01*
X152778725Y-55251620D01*
X152717169Y-55262612D01*
X152654611Y-55270562D01*
X152591131Y-55275389D01*
X152526806Y-55277015D01*
X152462481Y-55275389D01*
X152399000Y-55270562D01*
X152336443Y-55262612D01*
X152274887Y-55251620D01*
X152214411Y-55237662D01*
X152155094Y-55220818D01*
X152097013Y-55201166D01*
X152040249Y-55178784D01*
X151984879Y-55153752D01*
X151930981Y-55126147D01*
X151878635Y-55096049D01*
X151827918Y-55063535D01*
X151778910Y-55028685D01*
X151731689Y-54991576D01*
X151686334Y-54952288D01*
X151642922Y-54910899D01*
X151601533Y-54867488D01*
X151562245Y-54822132D01*
X151525136Y-54774911D01*
X151490286Y-54725903D01*
X151457772Y-54675186D01*
X151427674Y-54622840D01*
X151400069Y-54568943D01*
X151375037Y-54513572D01*
X151352655Y-54456808D01*
X151333003Y-54398727D01*
X151316159Y-54339410D01*
X151302201Y-54278934D01*
X151291209Y-54217378D01*
X151283259Y-54154821D01*
X151278432Y-54091340D01*
X151276806Y-54027015D01*
X151278432Y-53962690D01*
X151283259Y-53899210D01*
X151291209Y-53836652D01*
X151302201Y-53775096D01*
X151316159Y-53714620D01*
X151333003Y-53655303D01*
X151352655Y-53597223D01*
X151375037Y-53540458D01*
X151400069Y-53485088D01*
X151427674Y-53431191D01*
X151457772Y-53378844D01*
X151490286Y-53328128D01*
X151525136Y-53279120D01*
X151562245Y-53231899D01*
X151601533Y-53186543D01*
X151642922Y-53143132D01*
X151686334Y-53101742D01*
X151731689Y-53062454D01*
X151778910Y-53025346D01*
X151827918Y-52990496D01*
X151878635Y-52957982D01*
X151930981Y-52927883D01*
X151984879Y-52900279D01*
X152040249Y-52875247D01*
X152097013Y-52852865D01*
X152155094Y-52833213D01*
X152214411Y-52816369D01*
X152274887Y-52802411D01*
X152336443Y-52791418D01*
X152399000Y-52783469D01*
X152462481Y-52778642D01*
X152526806Y-52777015D01*
X152591131Y-52778642D01*
X152753286Y-50534342D02*
X152979030Y-50556323D01*
X153203301Y-50592956D01*
X153425364Y-50644243D01*
X153644482Y-50710184D01*
X153859919Y-50790778D01*
X154070939Y-50886025D01*
X154276806Y-50995926D01*
X154474916Y-51119261D01*
X154662913Y-51254385D01*
X154840428Y-51400662D01*
X155007094Y-51557454D01*
X155162541Y-51724122D01*
X155306403Y-51900030D01*
X155438310Y-52084540D01*
X155557895Y-52277014D01*
X155664790Y-52476815D01*
X155758626Y-52683305D01*
X155839036Y-52895847D01*
X155905652Y-53113803D01*
X155958105Y-53336535D01*
X155996027Y-53563406D01*
X156019050Y-53793779D01*
X156026806Y-54027015D01*
X156026779Y-57702411D01*
X157752213Y-57918542D01*
X159448146Y-58215863D01*
X161112737Y-58592234D01*
X162744147Y-59045518D01*
X164340535Y-59573574D01*
X165900064Y-60174264D01*
X167420892Y-60845448D01*
X168901181Y-61584988D01*
X170339090Y-62390744D01*
X171732780Y-63260578D01*
X173080412Y-64192350D01*
X174380145Y-65183921D01*
X175630141Y-66233152D01*
X176828559Y-67337904D01*
X177973559Y-68496038D01*
X179063303Y-69705415D01*
X180095950Y-70963895D01*
X181069661Y-72269340D01*
X181982597Y-73619611D01*
X182832917Y-75012568D01*
X183618781Y-76446073D01*
X184338352Y-77917986D01*
X184989787Y-79426168D01*
X185571249Y-80968481D01*
X186080897Y-82542784D01*
X186516892Y-84146940D01*
X186877394Y-85778808D01*
X187160564Y-87436251D01*
X187364561Y-89117128D01*
X187487547Y-90819300D01*
X187527681Y-92540630D01*
X187483124Y-94278976D01*
X187353643Y-96013067D01*
X187141598Y-97721758D01*
X186849031Y-99403103D01*
X186477988Y-101055160D01*
X186030513Y-102675982D01*
X185508650Y-104263627D01*
X184914443Y-105816150D01*
X184249937Y-107331605D01*
X183517176Y-108808049D01*
X182718205Y-110243538D01*
X181855067Y-111636126D01*
X180929807Y-112983870D01*
X179944469Y-114284825D01*
X178901098Y-115537047D01*
X177801737Y-116738590D01*
X176648432Y-117887512D01*
X175443226Y-118981867D01*
X174188164Y-120019710D01*
X172885289Y-120999099D01*
X171536648Y-121918087D01*
X170144282Y-122774731D01*
X168710238Y-123567086D01*
X167236559Y-124293208D01*
X165725290Y-124951153D01*
X164178474Y-125538975D01*
X162598157Y-126054731D01*
X160986382Y-126496477D01*
X159345194Y-126862267D01*
X157676637Y-127150157D01*
X155982755Y-127358203D01*
X154265593Y-127484461D01*
X152527195Y-127526985D01*
X150788797Y-127484481D01*
X149071634Y-127358243D01*
X147377750Y-127150216D01*
X145709190Y-126862345D01*
X144067998Y-126496574D01*
X142456219Y-126054847D01*
X140875896Y-125539109D01*
X139329074Y-124951305D01*
X137817797Y-124293377D01*
X136344111Y-123567272D01*
X134910058Y-122774934D01*
X133517683Y-121918306D01*
X132169031Y-120999333D01*
X130866146Y-120019960D01*
X129611072Y-118982130D01*
X128405854Y-117887789D01*
X127252536Y-116738881D01*
X126153162Y-115537350D01*
X125109776Y-114285141D01*
X124124424Y-112984197D01*
X123199149Y-111636464D01*
X122335995Y-110243885D01*
X121537007Y-108808406D01*
X120804230Y-107331970D01*
X120139707Y-105816522D01*
X119545483Y-104264006D01*
X119023602Y-102676367D01*
X118576108Y-101055550D01*
X118205047Y-99403497D01*
X117912461Y-97722155D01*
X117700396Y-96013467D01*
X117570896Y-94279377D01*
X117526319Y-92541031D01*
X117566433Y-90819701D01*
X117689398Y-89117527D01*
X117893376Y-87436648D01*
X118176526Y-85779202D01*
X118537009Y-84147330D01*
X118972985Y-82543169D01*
X119482614Y-80968860D01*
X120064058Y-79426541D01*
X120715476Y-77918352D01*
X121435028Y-76446430D01*
X122220876Y-75012917D01*
X123071179Y-73619950D01*
X123984099Y-72269669D01*
X124957794Y-70964213D01*
X125990426Y-69705720D01*
X127080155Y-68496331D01*
X128225142Y-67338184D01*
X129423547Y-66233418D01*
X130673530Y-65184173D01*
X131973251Y-64192587D01*
X133320871Y-63260800D01*
X134714551Y-62390951D01*
X136152451Y-61585178D01*
X137632730Y-60845621D01*
X139153551Y-60174419D01*
X140713072Y-59573712D01*
X142309454Y-59045637D01*
X143940859Y-58592335D01*
X145605445Y-58215944D01*
X147301374Y-57918604D01*
X149026806Y-57702453D01*
X149026806Y-54027015D01*
X149028753Y-53910079D01*
X149034562Y-53793779D01*
X149044188Y-53678195D01*
X149057585Y-53563406D01*
X149074707Y-53449493D01*
X149095507Y-53336535D01*
X149119940Y-53224612D01*
X149147960Y-53113803D01*
X149179520Y-53004188D01*
X149214575Y-52895847D01*
X149253079Y-52788859D01*
X149294985Y-52683305D01*
X149340248Y-52579264D01*
X149388822Y-52476815D01*
X149440660Y-52376039D01*
X149495716Y-52277014D01*
X149553946Y-52179821D01*
X149615302Y-52084540D01*
X149679738Y-51991250D01*
X149747209Y-51900030D01*
X149817668Y-51810961D01*
X149891070Y-51724122D01*
X149967369Y-51639593D01*
X150046518Y-51557454D01*
X150128471Y-51477783D01*
X150213183Y-51400662D01*
X150300608Y-51326170D01*
X150390698Y-51254385D01*
X150483410Y-51185389D01*
X150578695Y-51119261D01*
X150676509Y-51056080D01*
X150776806Y-50995926D01*
X150982673Y-50886025D01*
X151193693Y-50790778D01*
X151409130Y-50710184D01*
X151628248Y-50644243D01*
X151850311Y-50592956D01*
X152074582Y-50556323D01*
X152300326Y-50534342D01*
X152526806Y-50527016D01*
X152753286Y-50534342D01*
M02*
