M48
; DRILL file {KiCad 8.0.6} date 2024-11-04T22:38:29+0100
; FORMAT={-:-/ absolute / metric / decimal}
; #@! TF.CreationDate,2024-11-04T22:38:29+01:00
; #@! TF.GenerationSoftware,Kicad,Pcbnew,8.0.6
; #@! TF.FileFunction,Plated,1,2,PTH
FMAT,2
METRIC
; #@! TA.AperFunction,Plated,PTH,ViaDrill
T1C0.300
%
G90
G05
T1
X127.183Y-94.024
X127.945Y-103.93
X128.566Y-82.989
X129.215Y-107.74
X129.977Y-91.23
X129.977Y-107.74
X134.295Y-113.836
X135.057Y-115.106
X137.089Y-67.608
X141.153Y-67.608
X142.169Y-103.422
X143.693Y-108.248
X143.693Y-119.424
X143.947Y-84.715
X144.455Y-120.186
X145.217Y-120.948
X152.075Y-92.246
X152.837Y-73.958
X152.837Y-77.768
X154.869Y-95.04
X160.203Y-105.962
X160.203Y-120.948
X160.965Y-101.39
X162.235Y-84.978
X166.68Y-70.021
X169.474Y-72.815
X172.776Y-107.867
X172.776Y-111.931
X175.697Y-115.614
X176.713Y-97.834
X176.713Y-102.152
X177.221Y-95.802
X177.475Y-102.152
X177.983Y-95.802
X179.253Y-83.61
X179.253Y-105.962
X179.253Y-106.978
M30
