%TF.GenerationSoftware,KiCad,Pcbnew,8.0.6*%
%TF.CreationDate,2024-11-04T22:38:12+01:00*%
%TF.ProjectId,christmas_ornament_2024,63687269-7374-46d6-9173-5f6f726e616d,1.0*%
%TF.SameCoordinates,Original*%
%TF.FileFunction,Copper,L1,Top*%
%TF.FilePolarity,Positive*%
%FSLAX46Y46*%
G04 Gerber Fmt 4.6, Leading zero omitted, Abs format (unit mm)*
G04 Created by KiCad (PCBNEW 8.0.6) date 2024-11-04 22:38:12*
%MOMM*%
%LPD*%
G01*
G04 APERTURE LIST*
G04 Aperture macros list*
%AMRoundRect*
0 Rectangle with rounded corners*
0 $1 Rounding radius*
0 $2 $3 $4 $5 $6 $7 $8 $9 X,Y pos of 4 corners*
0 Add a 4 corners polygon primitive as box body*
4,1,4,$2,$3,$4,$5,$6,$7,$8,$9,$2,$3,0*
0 Add four circle primitives for the rounded corners*
1,1,$1+$1,$2,$3*
1,1,$1+$1,$4,$5*
1,1,$1+$1,$6,$7*
1,1,$1+$1,$8,$9*
0 Add four rect primitives between the rounded corners*
20,1,$1+$1,$2,$3,$4,$5,0*
20,1,$1+$1,$4,$5,$6,$7,0*
20,1,$1+$1,$6,$7,$8,$9,0*
20,1,$1+$1,$8,$9,$2,$3,0*%
G04 Aperture macros list end*
%TA.AperFunction,SMDPad,CuDef*%
%ADD10RoundRect,0.237500X0.371231X-0.035355X-0.035355X0.371231X-0.371231X0.035355X0.035355X-0.371231X0*%
%TD*%
%TA.AperFunction,SMDPad,CuDef*%
%ADD11RoundRect,0.237500X-0.287500X-0.237500X0.287500X-0.237500X0.287500X0.237500X-0.287500X0.237500X0*%
%TD*%
%TA.AperFunction,SMDPad,CuDef*%
%ADD12RoundRect,0.237500X0.237500X-0.287500X0.237500X0.287500X-0.237500X0.287500X-0.237500X-0.287500X0*%
%TD*%
%TA.AperFunction,SMDPad,CuDef*%
%ADD13RoundRect,0.237500X-0.371231X0.035355X0.035355X-0.371231X0.371231X-0.035355X-0.035355X0.371231X0*%
%TD*%
%TA.AperFunction,SMDPad,CuDef*%
%ADD14RoundRect,0.237500X0.035355X0.371231X-0.371231X-0.035355X-0.035355X-0.371231X0.371231X0.035355X0*%
%TD*%
%TA.AperFunction,ViaPad*%
%ADD15C,0.700000*%
%TD*%
%TA.AperFunction,Conductor*%
%ADD16C,0.300000*%
%TD*%
G04 APERTURE END LIST*
D10*
X153344806Y-114598453D03*
X152107370Y-113361017D03*
D11*
X142196806Y-83864453D03*
X143946806Y-83864453D03*
X126307806Y-104946453D03*
X128057806Y-104946453D03*
D12*
X172759524Y-110760451D03*
X172759524Y-109010453D03*
D13*
X152869370Y-93041017D03*
X154106806Y-94278453D03*
D11*
X126815806Y-82086453D03*
X128565806Y-82086453D03*
X177361806Y-82594453D03*
X179111806Y-82594453D03*
X138245806Y-67608453D03*
X139995806Y-67608453D03*
D14*
X129182242Y-92025017D03*
X127944806Y-93262453D03*
D11*
X159186806Y-102406453D03*
X160936806Y-102406453D03*
X135338806Y-113836453D03*
X137088806Y-113836453D03*
D12*
X152836806Y-76752453D03*
X152836806Y-75002455D03*
D11*
X160597806Y-84118453D03*
X162347806Y-84118453D03*
X140531806Y-104438453D03*
X142281806Y-104438453D03*
X175075806Y-98850453D03*
X176825806Y-98850453D03*
D10*
X168695524Y-72037171D03*
X167458088Y-70799735D03*
D15*
X160964806Y-101390453D03*
X143692806Y-108248453D03*
X179252806Y-105962453D03*
X177474806Y-102152453D03*
X175696806Y-115614453D03*
X177982806Y-95802453D03*
X129976806Y-107740453D03*
X160202806Y-105962453D03*
X176712806Y-102152453D03*
X179252806Y-106978453D03*
X177220806Y-95802453D03*
X160202806Y-120948453D03*
X129214806Y-107740453D03*
X145216806Y-120948453D03*
X169473806Y-72815453D03*
X172775806Y-111931453D03*
X137088806Y-67608453D03*
X129976806Y-91230453D03*
X152074806Y-92246453D03*
X134294806Y-113836453D03*
X144454806Y-120186453D03*
X152836806Y-77768453D03*
X141152806Y-67608453D03*
X166679806Y-70021453D03*
X152836806Y-73958453D03*
X127182806Y-94024453D03*
X135056806Y-115106453D03*
X143692806Y-119424453D03*
X172775806Y-107867453D03*
X154868806Y-95040453D03*
X128565806Y-82989453D03*
X162234806Y-84978497D03*
X142168806Y-103422453D03*
X176712806Y-97834453D03*
X143946806Y-84715138D03*
X179252806Y-83610453D03*
X127944806Y-103930453D03*
D16*
X160964806Y-101390453D02*
X160936806Y-101418453D01*
X160936806Y-101418453D02*
X160936806Y-102406453D01*
X152869370Y-93041017D02*
X152074806Y-92246453D01*
X152836806Y-77768453D02*
X152836806Y-76752453D01*
X135338806Y-113836453D02*
X134294806Y-113836453D01*
X169473806Y-72815453D02*
X168695524Y-72037171D01*
X137088806Y-67608453D02*
X138245806Y-67608453D01*
X129182242Y-92025017D02*
X129976806Y-91230453D01*
X150042806Y-114598453D02*
X153344806Y-114598453D01*
X172759524Y-110760451D02*
X172759524Y-111915171D01*
X144454806Y-120186453D02*
X150042806Y-114598453D01*
X172759524Y-111915171D02*
X172775806Y-111931453D01*
X139995806Y-67608453D02*
X141152806Y-67608453D01*
X167458088Y-70799735D02*
X166679806Y-70021453D01*
X152836806Y-73958453D02*
X152836806Y-75002455D01*
X127944806Y-93262453D02*
X127182806Y-94024453D01*
X135818806Y-115106453D02*
X137088806Y-113836453D01*
X135056806Y-115106453D02*
X135818806Y-115106453D01*
X149756242Y-113361017D02*
X152107370Y-113361017D01*
X143692806Y-119424453D02*
X149756242Y-113361017D01*
X172759524Y-109010453D02*
X172759524Y-107883735D01*
X172759524Y-107883735D02*
X172775806Y-107867453D01*
X154868806Y-95040453D02*
X154106806Y-94278453D01*
X128565806Y-82989453D02*
X128565806Y-82086453D01*
X162234806Y-84978497D02*
X162234806Y-84231453D01*
X162234806Y-84231453D02*
X162347806Y-84118453D01*
X142281806Y-103535453D02*
X142281806Y-104438453D01*
X142168806Y-103422453D02*
X142281806Y-103535453D01*
X176825806Y-98850453D02*
X176825806Y-97947453D01*
X176825806Y-97947453D02*
X176712806Y-97834453D01*
X143946806Y-84715138D02*
X143946806Y-83864453D01*
X179252806Y-83610453D02*
X179252806Y-82594453D01*
X128057806Y-104043453D02*
X128057806Y-104946453D01*
X127944806Y-103930453D02*
X128057806Y-104043453D01*
%TA.AperFunction,Conductor*%
G36*
X152749282Y-50534212D02*
G01*
X152757277Y-50534730D01*
X152975048Y-50555935D01*
X152982971Y-50556966D01*
X153199312Y-50592304D01*
X153207222Y-50593861D01*
X153421444Y-50643337D01*
X153429216Y-50645402D01*
X153640610Y-50709018D01*
X153648291Y-50711609D01*
X153856099Y-50789349D01*
X153863632Y-50792454D01*
X154067188Y-50884332D01*
X154074558Y-50887957D01*
X154273181Y-50993991D01*
X154280300Y-50998101D01*
X154471418Y-51117083D01*
X154478249Y-51121657D01*
X154659601Y-51252004D01*
X154666064Y-51256981D01*
X154837290Y-51398076D01*
X154843392Y-51403450D01*
X155004137Y-51554672D01*
X155009853Y-51560413D01*
X155159798Y-51721182D01*
X155165104Y-51727256D01*
X155303855Y-51896914D01*
X155308741Y-51903300D01*
X155435974Y-52081272D01*
X155440427Y-52087947D01*
X155555775Y-52273602D01*
X155559785Y-52280547D01*
X155662898Y-52473280D01*
X155666452Y-52480474D01*
X155756958Y-52679635D01*
X155760046Y-52687059D01*
X155837609Y-52892076D01*
X155840216Y-52899709D01*
X155904469Y-53109933D01*
X155906582Y-53117753D01*
X155957171Y-53332570D01*
X155958776Y-53340551D01*
X155995352Y-53559369D01*
X155996434Y-53567481D01*
X156018640Y-53789685D01*
X156019186Y-53797895D01*
X156026736Y-54024939D01*
X156026805Y-54029061D01*
X156026779Y-57702410D01*
X156026779Y-57702411D01*
X157749211Y-57918166D01*
X157755185Y-57919063D01*
X159445172Y-58215341D01*
X159451072Y-58216524D01*
X161109796Y-58591569D01*
X161115645Y-58593042D01*
X162741243Y-59044711D01*
X162746985Y-59046457D01*
X164337740Y-59572649D01*
X164343304Y-59574640D01*
X165897294Y-60173197D01*
X165902787Y-60175466D01*
X167418198Y-60844259D01*
X167423520Y-60846761D01*
X168898561Y-61583679D01*
X168903723Y-61586412D01*
X170336549Y-62389320D01*
X170341564Y-62392288D01*
X171730321Y-63259043D01*
X171735180Y-63262237D01*
X173078029Y-64190702D01*
X173082688Y-64194086D01*
X173854787Y-64783123D01*
X174377848Y-65182169D01*
X174382358Y-65185779D01*
X174890296Y-65612135D01*
X175627948Y-66231311D01*
X175632242Y-66235089D01*
X176744726Y-67260623D01*
X176826445Y-67335955D01*
X176830579Y-67339947D01*
X177971540Y-68493996D01*
X177975479Y-68498169D01*
X178052776Y-68583952D01*
X179034650Y-69673617D01*
X179061394Y-69703296D01*
X179065126Y-69707637D01*
X179199892Y-69871875D01*
X180094121Y-70961667D01*
X180097658Y-70966186D01*
X180618316Y-71664226D01*
X181067956Y-72267055D01*
X181071264Y-72271711D01*
X181318677Y-72637645D01*
X181980986Y-73617229D01*
X181984100Y-73622074D01*
X182831401Y-75010085D01*
X182834296Y-75015084D01*
X183617387Y-76443531D01*
X183620055Y-76448680D01*
X184337075Y-77915375D01*
X184339509Y-77920666D01*
X184988628Y-79423485D01*
X184990821Y-79428911D01*
X185570211Y-80965728D01*
X185572155Y-80971280D01*
X186079985Y-82539968D01*
X186081672Y-82545637D01*
X186516109Y-84144061D01*
X186517531Y-84149835D01*
X186876749Y-85775892D01*
X186877897Y-85781757D01*
X187160057Y-87433288D01*
X187160925Y-87439231D01*
X187364197Y-89114128D01*
X187364778Y-89120132D01*
X187487329Y-90816295D01*
X187487617Y-90822341D01*
X187527610Y-92537595D01*
X187527603Y-92543662D01*
X187483201Y-94275933D01*
X187482898Y-94281989D01*
X187353868Y-96010046D01*
X187353268Y-96016084D01*
X187141970Y-97718756D01*
X187141078Y-97724743D01*
X186849548Y-99400128D01*
X186848370Y-99406043D01*
X186478644Y-101052238D01*
X186477186Y-101058064D01*
X186031309Y-102673096D01*
X186029580Y-102678818D01*
X185509583Y-104260786D01*
X185507592Y-104266389D01*
X184915496Y-105813398D01*
X184913250Y-105818870D01*
X184251122Y-107328901D01*
X184248633Y-107334231D01*
X183518473Y-108805435D01*
X183515748Y-108810614D01*
X182719622Y-110240990D01*
X182716671Y-110246011D01*
X181856597Y-111633656D01*
X181853428Y-111638512D01*
X180931438Y-112981493D01*
X180928058Y-112986178D01*
X179946206Y-114282530D01*
X179942623Y-114287039D01*
X178902941Y-115534834D01*
X178899161Y-115539163D01*
X177803670Y-116736476D01*
X177799699Y-116740619D01*
X176650464Y-117885486D01*
X176646308Y-117889439D01*
X175445354Y-118979934D01*
X175441017Y-118983693D01*
X174190374Y-120017881D01*
X174185862Y-120021439D01*
X172887592Y-120997367D01*
X172882909Y-121000720D01*
X171539030Y-121916463D01*
X171534181Y-121919604D01*
X170146768Y-122773201D01*
X170141760Y-122776124D01*
X168712780Y-123565681D01*
X168707617Y-123568377D01*
X167239185Y-124291913D01*
X167233876Y-124294375D01*
X165727976Y-124949983D01*
X165722528Y-124952202D01*
X164181248Y-125537920D01*
X164175671Y-125539889D01*
X162600985Y-126053808D01*
X162595289Y-126055517D01*
X160989254Y-126495689D01*
X160983453Y-126497129D01*
X159348141Y-126861609D01*
X159342249Y-126862773D01*
X157679596Y-127149645D01*
X157673629Y-127150526D01*
X155985760Y-127357833D01*
X155979737Y-127358424D01*
X154268624Y-127484238D01*
X154262563Y-127484535D01*
X152530225Y-127526910D01*
X152524162Y-127526910D01*
X150820139Y-127485247D01*
X150791822Y-127484554D01*
X150785764Y-127484258D01*
X150700052Y-127477956D01*
X149074652Y-127358464D01*
X149068628Y-127357873D01*
X147380756Y-127150585D01*
X147374789Y-127149705D01*
X145712152Y-126862856D01*
X145706260Y-126861692D01*
X144070905Y-126497221D01*
X144065104Y-126495780D01*
X142459085Y-126055632D01*
X142453389Y-126053923D01*
X140878715Y-125540029D01*
X140873138Y-125538061D01*
X139331816Y-124952347D01*
X139326368Y-124950127D01*
X137820478Y-124294544D01*
X137815169Y-124292082D01*
X136346730Y-123568562D01*
X136341567Y-123565866D01*
X134912594Y-122776335D01*
X134907586Y-122773413D01*
X133520147Y-121919822D01*
X133515298Y-121916681D01*
X132171409Y-121000953D01*
X132166726Y-120997600D01*
X130868446Y-120021689D01*
X130863934Y-120018131D01*
X130145984Y-119424453D01*
X142837621Y-119424453D01*
X142856309Y-119602258D01*
X142856310Y-119602260D01*
X142911553Y-119772282D01*
X142911556Y-119772288D01*
X143000947Y-119927118D01*
X143042618Y-119973399D01*
X143120570Y-120059974D01*
X143120573Y-120059976D01*
X143120576Y-120059979D01*
X143265213Y-120165065D01*
X143428539Y-120237782D01*
X143428541Y-120237782D01*
X143428542Y-120237783D01*
X143485177Y-120249820D01*
X143520925Y-120257419D01*
X143582407Y-120290611D01*
X143616184Y-120351774D01*
X143617934Y-120362494D01*
X143618309Y-120364257D01*
X143673553Y-120534282D01*
X143673556Y-120534288D01*
X143762947Y-120689118D01*
X143804618Y-120735399D01*
X143882570Y-120821974D01*
X143882573Y-120821976D01*
X143882576Y-120821979D01*
X144027213Y-120927065D01*
X144190539Y-120999782D01*
X144365415Y-121036953D01*
X144365416Y-121036953D01*
X144544195Y-121036953D01*
X144544197Y-121036953D01*
X144719073Y-120999782D01*
X144882399Y-120927065D01*
X145027036Y-120821979D01*
X145146665Y-120689118D01*
X145236056Y-120534288D01*
X145291303Y-120364256D01*
X145297794Y-120302489D01*
X145324377Y-120237876D01*
X145333425Y-120227778D01*
X148607756Y-116953448D01*
X173980305Y-116953448D01*
X174007224Y-117088775D01*
X174007227Y-117088785D01*
X174060027Y-117216257D01*
X174060034Y-117216270D01*
X174136691Y-117330994D01*
X174136694Y-117330998D01*
X174234260Y-117428564D01*
X174234264Y-117428567D01*
X174348988Y-117505224D01*
X174349001Y-117505231D01*
X174476473Y-117558031D01*
X174476478Y-117558033D01*
X174476482Y-117558033D01*
X174476483Y-117558034D01*
X174611810Y-117584953D01*
X174611813Y-117584953D01*
X174749801Y-117584953D01*
X174840847Y-117566842D01*
X174885134Y-117558033D01*
X175012617Y-117505228D01*
X175127348Y-117428567D01*
X175224920Y-117330995D01*
X175301581Y-117216264D01*
X175354386Y-117088781D01*
X175381306Y-116953446D01*
X175381306Y-116815460D01*
X175381306Y-116815457D01*
X175354387Y-116680130D01*
X175354386Y-116680129D01*
X175354386Y-116680125D01*
X175354384Y-116680120D01*
X175301584Y-116552648D01*
X175301577Y-116552635D01*
X175224920Y-116437911D01*
X175224917Y-116437907D01*
X175127351Y-116340341D01*
X175127347Y-116340338D01*
X175012623Y-116263681D01*
X175012610Y-116263674D01*
X174885138Y-116210874D01*
X174885128Y-116210871D01*
X174749801Y-116183953D01*
X174749799Y-116183953D01*
X174611813Y-116183953D01*
X174611811Y-116183953D01*
X174476483Y-116210871D01*
X174476473Y-116210874D01*
X174349001Y-116263674D01*
X174348988Y-116263681D01*
X174234264Y-116340338D01*
X174234260Y-116340341D01*
X174136694Y-116437907D01*
X174136691Y-116437911D01*
X174060034Y-116552635D01*
X174060027Y-116552648D01*
X174007227Y-116680120D01*
X174007224Y-116680130D01*
X173980306Y-116815457D01*
X173980306Y-116815460D01*
X173980306Y-116953446D01*
X173980306Y-116953448D01*
X173980305Y-116953448D01*
X148607756Y-116953448D01*
X150275933Y-115285272D01*
X150337256Y-115251787D01*
X150363614Y-115248953D01*
X152564379Y-115248953D01*
X152631418Y-115268638D01*
X152652060Y-115285272D01*
X152893090Y-115526301D01*
X152893098Y-115526307D01*
X152893103Y-115526312D01*
X152971854Y-115590466D01*
X152971859Y-115590469D01*
X152971863Y-115590472D01*
X153126031Y-115667897D01*
X153126035Y-115667899D01*
X153293900Y-115707684D01*
X153293901Y-115707684D01*
X153466418Y-115707684D01*
X153466421Y-115707684D01*
X153634290Y-115667898D01*
X153788460Y-115590472D01*
X153867233Y-115526302D01*
X154272654Y-115120880D01*
X154300837Y-115086283D01*
X154336819Y-115042115D01*
X154336820Y-115042112D01*
X154336825Y-115042107D01*
X154414251Y-114887937D01*
X154427478Y-114832128D01*
X176101625Y-114832128D01*
X176128544Y-114967455D01*
X176128547Y-114967465D01*
X176181347Y-115094937D01*
X176181354Y-115094950D01*
X176258011Y-115209674D01*
X176258014Y-115209678D01*
X176355580Y-115307244D01*
X176355584Y-115307247D01*
X176470308Y-115383904D01*
X176470321Y-115383911D01*
X176597793Y-115436711D01*
X176597798Y-115436713D01*
X176597802Y-115436713D01*
X176597803Y-115436714D01*
X176733130Y-115463633D01*
X176733133Y-115463633D01*
X176871121Y-115463633D01*
X176962167Y-115445522D01*
X177006454Y-115436713D01*
X177133937Y-115383908D01*
X177248668Y-115307247D01*
X177346240Y-115209675D01*
X177422901Y-115094944D01*
X177475706Y-114967461D01*
X177491524Y-114887938D01*
X177502626Y-114832128D01*
X177502626Y-114694137D01*
X177475707Y-114558810D01*
X177475706Y-114558809D01*
X177475706Y-114558805D01*
X177471042Y-114547546D01*
X177422904Y-114431328D01*
X177422897Y-114431315D01*
X177346240Y-114316591D01*
X177346237Y-114316587D01*
X177248671Y-114219021D01*
X177248667Y-114219018D01*
X177133943Y-114142361D01*
X177133930Y-114142354D01*
X177006458Y-114089554D01*
X177006448Y-114089551D01*
X176871121Y-114062633D01*
X176871119Y-114062633D01*
X176733133Y-114062633D01*
X176733131Y-114062633D01*
X176597803Y-114089551D01*
X176597793Y-114089554D01*
X176470321Y-114142354D01*
X176470308Y-114142361D01*
X176355584Y-114219018D01*
X176355580Y-114219021D01*
X176258014Y-114316587D01*
X176258011Y-114316591D01*
X176181354Y-114431315D01*
X176181347Y-114431328D01*
X176128547Y-114558800D01*
X176128544Y-114558810D01*
X176101626Y-114694137D01*
X176101626Y-114694140D01*
X176101626Y-114832126D01*
X176101626Y-114832128D01*
X176101625Y-114832128D01*
X154427478Y-114832128D01*
X154454037Y-114720068D01*
X154454037Y-114547548D01*
X154451017Y-114534804D01*
X154414252Y-114379682D01*
X154382565Y-114316587D01*
X154336825Y-114225510D01*
X154272655Y-114146737D01*
X153796522Y-113670605D01*
X153796514Y-113670598D01*
X153796508Y-113670593D01*
X153717757Y-113606439D01*
X153717750Y-113606435D01*
X153717749Y-113606434D01*
X153604946Y-113549783D01*
X153563576Y-113529006D01*
X153395712Y-113489222D01*
X153395711Y-113489222D01*
X153340601Y-113489222D01*
X153273562Y-113469537D01*
X153227807Y-113416733D01*
X153216601Y-113365222D01*
X153216601Y-113310110D01*
X153176816Y-113142246D01*
X153153510Y-113095840D01*
X153099389Y-112988074D01*
X153048455Y-112925549D01*
X153035230Y-112909314D01*
X153035217Y-112909299D01*
X152559093Y-112433176D01*
X152559086Y-112433169D01*
X152559078Y-112433162D01*
X152559072Y-112433157D01*
X152480321Y-112369003D01*
X152480314Y-112368999D01*
X152480313Y-112368998D01*
X152402882Y-112330111D01*
X152326140Y-112291570D01*
X152158276Y-112251786D01*
X152158275Y-112251786D01*
X151985755Y-112251786D01*
X151885033Y-112275657D01*
X151817884Y-112291572D01*
X151663714Y-112368999D01*
X151584956Y-112433156D01*
X151584941Y-112433169D01*
X151343914Y-112674198D01*
X151282591Y-112707683D01*
X151256233Y-112710517D01*
X149692171Y-112710517D01*
X149566503Y-112735514D01*
X149566497Y-112735516D01*
X149448112Y-112784552D01*
X149341573Y-112855739D01*
X149341566Y-112855745D01*
X143654715Y-118542597D01*
X143593392Y-118576082D01*
X143592815Y-118576206D01*
X143428539Y-118611123D01*
X143428534Y-118611125D01*
X143265214Y-118683840D01*
X143120574Y-118788928D01*
X143000946Y-118921789D01*
X142911556Y-119076617D01*
X142911553Y-119076623D01*
X142856310Y-119246645D01*
X142856309Y-119246647D01*
X142837621Y-119424453D01*
X130145984Y-119424453D01*
X129725337Y-119076617D01*
X129613278Y-118983954D01*
X129608942Y-118980196D01*
X129608653Y-118979934D01*
X129282560Y-118683840D01*
X128407976Y-117889715D01*
X128403820Y-117885762D01*
X127254572Y-116740909D01*
X127250601Y-116736766D01*
X126286354Y-115682919D01*
X126155093Y-115539460D01*
X126151317Y-115535136D01*
X126151065Y-115534834D01*
X125231584Y-114431328D01*
X125111620Y-114287354D01*
X125108037Y-114282845D01*
X124961634Y-114089551D01*
X124769934Y-113836453D01*
X133439621Y-113836453D01*
X133458309Y-114014258D01*
X133458310Y-114014260D01*
X133513553Y-114184282D01*
X133513556Y-114184288D01*
X133602947Y-114339118D01*
X133639469Y-114379680D01*
X133722570Y-114471974D01*
X133722573Y-114471976D01*
X133722576Y-114471979D01*
X133867213Y-114577065D01*
X134030539Y-114649782D01*
X134030541Y-114649782D01*
X134030542Y-114649783D01*
X134063523Y-114656793D01*
X134158099Y-114676895D01*
X134219580Y-114710087D01*
X134253357Y-114771250D01*
X134250249Y-114836503D01*
X134220310Y-114928645D01*
X134220309Y-114928647D01*
X134201621Y-115106453D01*
X134220309Y-115284258D01*
X134220310Y-115284260D01*
X134275553Y-115454282D01*
X134275556Y-115454288D01*
X134364947Y-115609118D01*
X134406618Y-115655399D01*
X134484570Y-115741974D01*
X134484573Y-115741976D01*
X134484576Y-115741979D01*
X134629213Y-115847065D01*
X134792539Y-115919782D01*
X134967415Y-115956953D01*
X134967416Y-115956953D01*
X135146195Y-115956953D01*
X135146197Y-115956953D01*
X135321073Y-115919782D01*
X135484399Y-115847065D01*
X135575831Y-115780635D01*
X135641637Y-115757155D01*
X135648717Y-115756953D01*
X135882877Y-115756953D01*
X135967421Y-115740135D01*
X136008550Y-115731954D01*
X136126933Y-115682918D01*
X136149411Y-115667899D01*
X136149412Y-115667899D01*
X136212316Y-115625867D01*
X136233475Y-115611730D01*
X136996932Y-114848270D01*
X137058255Y-114814786D01*
X137084613Y-114811952D01*
X137425476Y-114811952D01*
X137425482Y-114811952D01*
X137526559Y-114801627D01*
X137690322Y-114747361D01*
X137837156Y-114656793D01*
X137959146Y-114534803D01*
X138049714Y-114387969D01*
X138103980Y-114224206D01*
X138114306Y-114123130D01*
X138114305Y-113549777D01*
X138112183Y-113529008D01*
X138103980Y-113448700D01*
X138093387Y-113416733D01*
X138049714Y-113284937D01*
X137959146Y-113138103D01*
X137837156Y-113016113D01*
X137745935Y-112959848D01*
X137690324Y-112925546D01*
X137690319Y-112925544D01*
X137641295Y-112909299D01*
X137526559Y-112871279D01*
X137526557Y-112871278D01*
X137425484Y-112860953D01*
X136752136Y-112860953D01*
X136752118Y-112860954D01*
X136651053Y-112871278D01*
X136487290Y-112925545D01*
X136487287Y-112925546D01*
X136340454Y-113016114D01*
X136301487Y-113055082D01*
X136240164Y-113088567D01*
X136170472Y-113083583D01*
X136126125Y-113055082D01*
X136087157Y-113016114D01*
X136087156Y-113016113D01*
X135995935Y-112959848D01*
X135940324Y-112925546D01*
X135940319Y-112925544D01*
X135891295Y-112909299D01*
X135776559Y-112871279D01*
X135776557Y-112871278D01*
X135675484Y-112860953D01*
X135002136Y-112860953D01*
X135002118Y-112860954D01*
X134901053Y-112871278D01*
X134737290Y-112925545D01*
X134737283Y-112925549D01*
X134616241Y-113000207D01*
X134548848Y-113018647D01*
X134525365Y-113015959D01*
X134507764Y-113012217D01*
X134384197Y-112985953D01*
X134205415Y-112985953D01*
X134174760Y-112992468D01*
X134030539Y-113023123D01*
X134030534Y-113023125D01*
X133867214Y-113095840D01*
X133722574Y-113200928D01*
X133602946Y-113333789D01*
X133513556Y-113488617D01*
X133513553Y-113488623D01*
X133458310Y-113658645D01*
X133458309Y-113658647D01*
X133439621Y-113836453D01*
X124769934Y-113836453D01*
X124126163Y-112986494D01*
X124122791Y-112981819D01*
X124122567Y-112981493D01*
X123200778Y-111638837D01*
X123197617Y-111633993D01*
X123197408Y-111633656D01*
X122337523Y-110246350D01*
X122334576Y-110241336D01*
X122334383Y-110240990D01*
X121538431Y-108810965D01*
X121535709Y-108805791D01*
X121535532Y-108805435D01*
X121470184Y-108673768D01*
X171784024Y-108673768D01*
X171784024Y-109347122D01*
X171784025Y-109347140D01*
X171794349Y-109448205D01*
X171848616Y-109611968D01*
X171848617Y-109611971D01*
X171939185Y-109758804D01*
X171978152Y-109797772D01*
X172011637Y-109859095D01*
X172006651Y-109928787D01*
X171978152Y-109973132D01*
X171939185Y-110012099D01*
X171848617Y-110158932D01*
X171848616Y-110158935D01*
X171794350Y-110322698D01*
X171794350Y-110322699D01*
X171794349Y-110322699D01*
X171784024Y-110423766D01*
X171784024Y-111097120D01*
X171784025Y-111097138D01*
X171794349Y-111198203D01*
X171848616Y-111361966D01*
X171848617Y-111361969D01*
X171939185Y-111508802D01*
X171945593Y-111515210D01*
X171979078Y-111576533D01*
X171975843Y-111641209D01*
X171939310Y-111753645D01*
X171939309Y-111753647D01*
X171920621Y-111931453D01*
X171939309Y-112109258D01*
X171939310Y-112109260D01*
X171994553Y-112279282D01*
X171994556Y-112279288D01*
X172083947Y-112434118D01*
X172125618Y-112480399D01*
X172203570Y-112566974D01*
X172203573Y-112566976D01*
X172203576Y-112566979D01*
X172348213Y-112672065D01*
X172511539Y-112744782D01*
X172686415Y-112781953D01*
X172686416Y-112781953D01*
X172865195Y-112781953D01*
X172865197Y-112781953D01*
X173040073Y-112744782D01*
X173203399Y-112672065D01*
X173348036Y-112566979D01*
X173467665Y-112434118D01*
X173557056Y-112279288D01*
X173612303Y-112109256D01*
X173630991Y-111931453D01*
X173612303Y-111753650D01*
X173566734Y-111613406D01*
X173564740Y-111543567D01*
X173579128Y-111509993D01*
X173579862Y-111508802D01*
X173579864Y-111508801D01*
X173670432Y-111361967D01*
X173724698Y-111198204D01*
X173735024Y-111097128D01*
X173735023Y-110423775D01*
X173724698Y-110322698D01*
X173670432Y-110158935D01*
X173579864Y-110012101D01*
X173540895Y-109973132D01*
X173507411Y-109911810D01*
X173512395Y-109842118D01*
X173540896Y-109797771D01*
X173579864Y-109758803D01*
X173670432Y-109611969D01*
X173724698Y-109448206D01*
X173735024Y-109347130D01*
X173735023Y-108673777D01*
X173724698Y-108572700D01*
X173670432Y-108408937D01*
X173670428Y-108408931D01*
X173670427Y-108408928D01*
X173585087Y-108270571D01*
X173566646Y-108203179D01*
X173572692Y-108167164D01*
X173612303Y-108045256D01*
X173630991Y-107867453D01*
X173612303Y-107689650D01*
X173557056Y-107519618D01*
X173467665Y-107364788D01*
X173420809Y-107312749D01*
X173348041Y-107231931D01*
X173348038Y-107231929D01*
X173348037Y-107231928D01*
X173348036Y-107231927D01*
X173203399Y-107126841D01*
X173040073Y-107054124D01*
X173040071Y-107054123D01*
X172912400Y-107026986D01*
X172865197Y-107016953D01*
X172686415Y-107016953D01*
X172655760Y-107023468D01*
X172511539Y-107054123D01*
X172511534Y-107054125D01*
X172348214Y-107126840D01*
X172203574Y-107231928D01*
X172083946Y-107364789D01*
X171994556Y-107519617D01*
X171994553Y-107519623D01*
X171939310Y-107689645D01*
X171939309Y-107689647D01*
X171920621Y-107867453D01*
X171939309Y-108045258D01*
X171939311Y-108045263D01*
X171968975Y-108136562D01*
X171970970Y-108206403D01*
X171942689Y-108255663D01*
X171943665Y-108256435D01*
X171939187Y-108262097D01*
X171848617Y-108408934D01*
X171848616Y-108408937D01*
X171794350Y-108572700D01*
X171794350Y-108572701D01*
X171794349Y-108572701D01*
X171784024Y-108673768D01*
X121470184Y-108673768D01*
X120805536Y-107334602D01*
X120803051Y-107329282D01*
X120760362Y-107231929D01*
X120140885Y-105819209D01*
X120138646Y-105813751D01*
X120120672Y-105766791D01*
X119916405Y-105233107D01*
X125282807Y-105233107D01*
X125293125Y-105334105D01*
X125347352Y-105497753D01*
X125347357Y-105497764D01*
X125437858Y-105644487D01*
X125437861Y-105644491D01*
X125559767Y-105766397D01*
X125559771Y-105766400D01*
X125706494Y-105856901D01*
X125706505Y-105856906D01*
X125870153Y-105911133D01*
X125971157Y-105921452D01*
X126057806Y-105921451D01*
X126057806Y-105196453D01*
X125282807Y-105196453D01*
X125282807Y-105233107D01*
X119916405Y-105233107D01*
X119760626Y-104826105D01*
X119696972Y-104659798D01*
X125282806Y-104659798D01*
X125282806Y-104696453D01*
X126057806Y-104696453D01*
X126057806Y-103971453D01*
X126557806Y-103971453D01*
X126557806Y-105921452D01*
X126644446Y-105921452D01*
X126644460Y-105921451D01*
X126745458Y-105911133D01*
X126909106Y-105856906D01*
X126909117Y-105856901D01*
X127055840Y-105766400D01*
X127055843Y-105766398D01*
X127094770Y-105727471D01*
X127156093Y-105693985D01*
X127225784Y-105698969D01*
X127270133Y-105727470D01*
X127309456Y-105766793D01*
X127456290Y-105857361D01*
X127620053Y-105911627D01*
X127721129Y-105921953D01*
X128394482Y-105921952D01*
X128394490Y-105921951D01*
X128394493Y-105921951D01*
X128449836Y-105916297D01*
X128495559Y-105911627D01*
X128659322Y-105857361D01*
X128806156Y-105766793D01*
X128928146Y-105644803D01*
X129018714Y-105497969D01*
X129072980Y-105334206D01*
X129083306Y-105233130D01*
X129083305Y-104725107D01*
X139506807Y-104725107D01*
X139517125Y-104826105D01*
X139571352Y-104989753D01*
X139571357Y-104989764D01*
X139661858Y-105136487D01*
X139661861Y-105136491D01*
X139783767Y-105258397D01*
X139783771Y-105258400D01*
X139930494Y-105348901D01*
X139930505Y-105348906D01*
X140094153Y-105403133D01*
X140195157Y-105413452D01*
X140281806Y-105413451D01*
X140281806Y-104688453D01*
X139506807Y-104688453D01*
X139506807Y-104725107D01*
X129083305Y-104725107D01*
X129083305Y-104659777D01*
X129072980Y-104558700D01*
X129018714Y-104394937D01*
X128928146Y-104248103D01*
X128831841Y-104151798D01*
X139506806Y-104151798D01*
X139506806Y-104188453D01*
X140281806Y-104188453D01*
X140281806Y-103463453D01*
X140781806Y-103463453D01*
X140781806Y-105413452D01*
X140868446Y-105413452D01*
X140868460Y-105413451D01*
X140969458Y-105403133D01*
X141133106Y-105348906D01*
X141133117Y-105348901D01*
X141279840Y-105258400D01*
X141279843Y-105258398D01*
X141318770Y-105219471D01*
X141380093Y-105185985D01*
X141449784Y-105190969D01*
X141494133Y-105219470D01*
X141533456Y-105258793D01*
X141680290Y-105349361D01*
X141844053Y-105403627D01*
X141945129Y-105413953D01*
X142618482Y-105413952D01*
X142618490Y-105413951D01*
X142618493Y-105413951D01*
X142673836Y-105408297D01*
X142719559Y-105403627D01*
X142883322Y-105349361D01*
X143030156Y-105258793D01*
X143152146Y-105136803D01*
X143242714Y-104989969D01*
X143296980Y-104826206D01*
X143307306Y-104725130D01*
X143307305Y-104151777D01*
X143304723Y-104126505D01*
X143296980Y-104050700D01*
X143292110Y-104036004D01*
X143242714Y-103886937D01*
X143152146Y-103740103D01*
X143047790Y-103635747D01*
X143014305Y-103574424D01*
X143012150Y-103535109D01*
X143023991Y-103422453D01*
X143005303Y-103244650D01*
X142975844Y-103153985D01*
X142950058Y-103074623D01*
X142950055Y-103074617D01*
X142860665Y-102919788D01*
X142813809Y-102867749D01*
X142741041Y-102786931D01*
X142741038Y-102786929D01*
X142741037Y-102786928D01*
X142741036Y-102786927D01*
X142611905Y-102693107D01*
X158161807Y-102693107D01*
X158172125Y-102794105D01*
X158226352Y-102957753D01*
X158226357Y-102957764D01*
X158316858Y-103104487D01*
X158316861Y-103104491D01*
X158438767Y-103226397D01*
X158438771Y-103226400D01*
X158585494Y-103316901D01*
X158585505Y-103316906D01*
X158749153Y-103371133D01*
X158850157Y-103381452D01*
X158936806Y-103381451D01*
X158936806Y-102656453D01*
X158161807Y-102656453D01*
X158161807Y-102693107D01*
X142611905Y-102693107D01*
X142596399Y-102681841D01*
X142433073Y-102609124D01*
X142433071Y-102609123D01*
X142305400Y-102581986D01*
X142258197Y-102571953D01*
X142079415Y-102571953D01*
X142048760Y-102578468D01*
X141904539Y-102609123D01*
X141904534Y-102609125D01*
X141741214Y-102681840D01*
X141596574Y-102786928D01*
X141476946Y-102919789D01*
X141387556Y-103074617D01*
X141387553Y-103074623D01*
X141332310Y-103244645D01*
X141332309Y-103244647D01*
X141324667Y-103317359D01*
X141317931Y-103381452D01*
X141312942Y-103428916D01*
X141310358Y-103428644D01*
X141293936Y-103484572D01*
X141241132Y-103530327D01*
X141171974Y-103540271D01*
X141137221Y-103529917D01*
X141133114Y-103528002D01*
X140969458Y-103473772D01*
X140868460Y-103463453D01*
X140781806Y-103463453D01*
X140281806Y-103463453D01*
X140281805Y-103463452D01*
X140195166Y-103463453D01*
X140195149Y-103463454D01*
X140094153Y-103473772D01*
X139930505Y-103527999D01*
X139930494Y-103528004D01*
X139783771Y-103618505D01*
X139783767Y-103618508D01*
X139661861Y-103740414D01*
X139661858Y-103740418D01*
X139571357Y-103887141D01*
X139571352Y-103887152D01*
X139517125Y-104050800D01*
X139506806Y-104151798D01*
X128831841Y-104151798D01*
X128823790Y-104143747D01*
X128790305Y-104082424D01*
X128788150Y-104043109D01*
X128799991Y-103930453D01*
X128781303Y-103752650D01*
X128743319Y-103635747D01*
X128726058Y-103582623D01*
X128726055Y-103582617D01*
X128701607Y-103540271D01*
X128636665Y-103427788D01*
X128586096Y-103371626D01*
X128517041Y-103294931D01*
X128517038Y-103294929D01*
X128517037Y-103294928D01*
X128517036Y-103294927D01*
X128372399Y-103189841D01*
X128209073Y-103117124D01*
X128209071Y-103117123D01*
X128081400Y-103089986D01*
X128034197Y-103079953D01*
X127855415Y-103079953D01*
X127824760Y-103086468D01*
X127680539Y-103117123D01*
X127680534Y-103117125D01*
X127517214Y-103189840D01*
X127372574Y-103294928D01*
X127252946Y-103427789D01*
X127163556Y-103582617D01*
X127163553Y-103582623D01*
X127108310Y-103752645D01*
X127108309Y-103752647D01*
X127088942Y-103936916D01*
X127086358Y-103936644D01*
X127069936Y-103992572D01*
X127017132Y-104038327D01*
X126947974Y-104048271D01*
X126913221Y-104037917D01*
X126909114Y-104036002D01*
X126745458Y-103981772D01*
X126644460Y-103971453D01*
X126557806Y-103971453D01*
X126057806Y-103971453D01*
X126057805Y-103971452D01*
X125971166Y-103971453D01*
X125971149Y-103971454D01*
X125870153Y-103981772D01*
X125706505Y-104035999D01*
X125706494Y-104036004D01*
X125559771Y-104126505D01*
X125559767Y-104126508D01*
X125437861Y-104248414D01*
X125437858Y-104248418D01*
X125347357Y-104395141D01*
X125347352Y-104395152D01*
X125293125Y-104558800D01*
X125282806Y-104659798D01*
X119696972Y-104659798D01*
X119546547Y-104266785D01*
X119544555Y-104261182D01*
X119305882Y-103535104D01*
X119024528Y-102679186D01*
X119022812Y-102673508D01*
X118869937Y-102119798D01*
X158161806Y-102119798D01*
X158161806Y-102156453D01*
X158936806Y-102156453D01*
X158936806Y-101431453D01*
X159436806Y-101431453D01*
X159436806Y-103381452D01*
X159523446Y-103381452D01*
X159523460Y-103381451D01*
X159624458Y-103371133D01*
X159788106Y-103316906D01*
X159788117Y-103316901D01*
X159934840Y-103226400D01*
X159934843Y-103226398D01*
X159973770Y-103187471D01*
X160035093Y-103153985D01*
X160104784Y-103158969D01*
X160149133Y-103187470D01*
X160188456Y-103226793D01*
X160335290Y-103317361D01*
X160499053Y-103371627D01*
X160600129Y-103381953D01*
X161273482Y-103381952D01*
X161273490Y-103381951D01*
X161273493Y-103381951D01*
X161328836Y-103376297D01*
X161374559Y-103371627D01*
X161538322Y-103317361D01*
X161685156Y-103226793D01*
X161807146Y-103104803D01*
X161897714Y-102957969D01*
X161951980Y-102794206D01*
X161962306Y-102693130D01*
X161962305Y-102119777D01*
X161951980Y-102018700D01*
X161897714Y-101854937D01*
X161897710Y-101854931D01*
X161897709Y-101854928D01*
X161803682Y-101702487D01*
X161785241Y-101635095D01*
X161791288Y-101599077D01*
X161801303Y-101568256D01*
X161819991Y-101390453D01*
X161801303Y-101212650D01*
X161751075Y-101058064D01*
X161746058Y-101042623D01*
X161746055Y-101042617D01*
X161656665Y-100887788D01*
X161609809Y-100835749D01*
X161537041Y-100754931D01*
X161537038Y-100754929D01*
X161537037Y-100754928D01*
X161537036Y-100754927D01*
X161392399Y-100649841D01*
X161229073Y-100577124D01*
X161229071Y-100577123D01*
X161101400Y-100549986D01*
X161054197Y-100539953D01*
X160875415Y-100539953D01*
X160844760Y-100546468D01*
X160700539Y-100577123D01*
X160700534Y-100577125D01*
X160537214Y-100649840D01*
X160392574Y-100754928D01*
X160272946Y-100887789D01*
X160183556Y-101042617D01*
X160183553Y-101042623D01*
X160128310Y-101212645D01*
X160128309Y-101212647D01*
X160128309Y-101212650D01*
X160109621Y-101390453D01*
X160113930Y-101431454D01*
X160117392Y-101464386D01*
X160104823Y-101533116D01*
X160057091Y-101584140D01*
X159989350Y-101601258D01*
X159928974Y-101582887D01*
X159788111Y-101496001D01*
X159788106Y-101495999D01*
X159624458Y-101441772D01*
X159523460Y-101431453D01*
X159436806Y-101431453D01*
X158936806Y-101431453D01*
X158936805Y-101431452D01*
X158850166Y-101431453D01*
X158850149Y-101431454D01*
X158749153Y-101441772D01*
X158585505Y-101495999D01*
X158585494Y-101496004D01*
X158438771Y-101586505D01*
X158438767Y-101586508D01*
X158316861Y-101708414D01*
X158316858Y-101708418D01*
X158226357Y-101855141D01*
X158226352Y-101855152D01*
X158172125Y-102018800D01*
X158161806Y-102119798D01*
X118869937Y-102119798D01*
X118576906Y-101058443D01*
X118575450Y-101052621D01*
X118573204Y-101042623D01*
X118205706Y-99406431D01*
X118204529Y-99400521D01*
X118176283Y-99238204D01*
X118158690Y-99137107D01*
X174050807Y-99137107D01*
X174061125Y-99238105D01*
X174115352Y-99401753D01*
X174115357Y-99401764D01*
X174205858Y-99548487D01*
X174205861Y-99548491D01*
X174327767Y-99670397D01*
X174327771Y-99670400D01*
X174474494Y-99760901D01*
X174474505Y-99760906D01*
X174638153Y-99815133D01*
X174739157Y-99825452D01*
X174825806Y-99825451D01*
X174825806Y-99100453D01*
X174050807Y-99100453D01*
X174050807Y-99137107D01*
X118158690Y-99137107D01*
X118058923Y-98563798D01*
X174050806Y-98563798D01*
X174050806Y-98600453D01*
X174825806Y-98600453D01*
X174825806Y-97875453D01*
X175325806Y-97875453D01*
X175325806Y-99825452D01*
X175412446Y-99825452D01*
X175412460Y-99825451D01*
X175513458Y-99815133D01*
X175677106Y-99760906D01*
X175677117Y-99760901D01*
X175823840Y-99670400D01*
X175823843Y-99670398D01*
X175862770Y-99631471D01*
X175924093Y-99597985D01*
X175993784Y-99602969D01*
X176038133Y-99631470D01*
X176077456Y-99670793D01*
X176224290Y-99761361D01*
X176388053Y-99815627D01*
X176489129Y-99825953D01*
X177162482Y-99825952D01*
X177162490Y-99825951D01*
X177162493Y-99825951D01*
X177217836Y-99820297D01*
X177263559Y-99815627D01*
X177427322Y-99761361D01*
X177574156Y-99670793D01*
X177696146Y-99548803D01*
X177786714Y-99401969D01*
X177840980Y-99238206D01*
X177851306Y-99137130D01*
X177851305Y-98563777D01*
X177840980Y-98462700D01*
X177786714Y-98298937D01*
X177696146Y-98152103D01*
X177591790Y-98047747D01*
X177558305Y-97986424D01*
X177556150Y-97947109D01*
X177567991Y-97834453D01*
X177549303Y-97656650D01*
X177494056Y-97486618D01*
X177404665Y-97331788D01*
X177357809Y-97279749D01*
X177285041Y-97198931D01*
X177285038Y-97198929D01*
X177285037Y-97198928D01*
X177285036Y-97198927D01*
X177140399Y-97093841D01*
X176977073Y-97021124D01*
X176977071Y-97021123D01*
X176849400Y-96993986D01*
X176802197Y-96983953D01*
X176623415Y-96983953D01*
X176592760Y-96990468D01*
X176448539Y-97021123D01*
X176448534Y-97021125D01*
X176285214Y-97093840D01*
X176140574Y-97198928D01*
X176020946Y-97331789D01*
X175931556Y-97486617D01*
X175931553Y-97486623D01*
X175876310Y-97656645D01*
X175876309Y-97656647D01*
X175856942Y-97840916D01*
X175854358Y-97840644D01*
X175837936Y-97896572D01*
X175785132Y-97942327D01*
X175715974Y-97952271D01*
X175681221Y-97941917D01*
X175677114Y-97940002D01*
X175513458Y-97885772D01*
X175412460Y-97875453D01*
X175325806Y-97875453D01*
X174825806Y-97875453D01*
X174825805Y-97875452D01*
X174739166Y-97875453D01*
X174739149Y-97875454D01*
X174638153Y-97885772D01*
X174474505Y-97939999D01*
X174474494Y-97940004D01*
X174327771Y-98030505D01*
X174327767Y-98030508D01*
X174205861Y-98152414D01*
X174205858Y-98152418D01*
X174115357Y-98299141D01*
X174115352Y-98299152D01*
X174061125Y-98462800D01*
X174050806Y-98563798D01*
X118058923Y-98563798D01*
X117912978Y-97725128D01*
X117912088Y-97719152D01*
X117904331Y-97656647D01*
X117700768Y-96016470D01*
X117700170Y-96010446D01*
X117571117Y-94282349D01*
X117570818Y-94276373D01*
X117564358Y-94024453D01*
X126327621Y-94024453D01*
X126346309Y-94202258D01*
X126346310Y-94202260D01*
X126401553Y-94372282D01*
X126401556Y-94372288D01*
X126490947Y-94527118D01*
X126532618Y-94573399D01*
X126610570Y-94659974D01*
X126610573Y-94659976D01*
X126610576Y-94659979D01*
X126755213Y-94765065D01*
X126918539Y-94837782D01*
X127093415Y-94874953D01*
X127093416Y-94874953D01*
X127272195Y-94874953D01*
X127272197Y-94874953D01*
X127447073Y-94837782D01*
X127610399Y-94765065D01*
X127755036Y-94659979D01*
X127762764Y-94651397D01*
X127794806Y-94615809D01*
X127874665Y-94527118D01*
X127932698Y-94426600D01*
X127983263Y-94378387D01*
X128011482Y-94367946D01*
X128163579Y-94331898D01*
X128317749Y-94254472D01*
X128396522Y-94190302D01*
X128872654Y-93714169D01*
X128903245Y-93676617D01*
X128936819Y-93635404D01*
X128936820Y-93635401D01*
X128936825Y-93635396D01*
X129014251Y-93481226D01*
X129030194Y-93413961D01*
X129054037Y-93313359D01*
X129054037Y-93258248D01*
X129073722Y-93191209D01*
X129126526Y-93145454D01*
X129178037Y-93134248D01*
X129233148Y-93134248D01*
X129401012Y-93094463D01*
X129401013Y-93094462D01*
X129401015Y-93094462D01*
X129555185Y-93017036D01*
X129633958Y-92952866D01*
X130110090Y-92476733D01*
X130152838Y-92424258D01*
X130174255Y-92397968D01*
X130174256Y-92397965D01*
X130174261Y-92397960D01*
X130250350Y-92246453D01*
X151219621Y-92246453D01*
X151238309Y-92424258D01*
X151238310Y-92424260D01*
X151293553Y-92594282D01*
X151293556Y-92594288D01*
X151382947Y-92749118D01*
X151424618Y-92795399D01*
X151502570Y-92881974D01*
X151502573Y-92881976D01*
X151502576Y-92881979D01*
X151600140Y-92952864D01*
X151647216Y-92987067D01*
X151689607Y-93005940D01*
X151742845Y-93051189D01*
X151759830Y-93090623D01*
X151799923Y-93259787D01*
X151877352Y-93413961D01*
X151941509Y-93492719D01*
X151941518Y-93492730D01*
X151941521Y-93492733D01*
X152417654Y-93968865D01*
X152417662Y-93968871D01*
X152417667Y-93968876D01*
X152496418Y-94033030D01*
X152496423Y-94033033D01*
X152496427Y-94033036D01*
X152650597Y-94110462D01*
X152650599Y-94110463D01*
X152818464Y-94150248D01*
X152873575Y-94150248D01*
X152940614Y-94169933D01*
X152986369Y-94222737D01*
X152997575Y-94274248D01*
X152997575Y-94329359D01*
X153037359Y-94497223D01*
X153057732Y-94537789D01*
X153114787Y-94651396D01*
X153121779Y-94659979D01*
X153178945Y-94730155D01*
X153178954Y-94730166D01*
X153178957Y-94730169D01*
X153655090Y-95206301D01*
X153655098Y-95206307D01*
X153655103Y-95206312D01*
X153733854Y-95270466D01*
X153733859Y-95270469D01*
X153733863Y-95270472D01*
X153888033Y-95347898D01*
X154040126Y-95383945D01*
X154100816Y-95418559D01*
X154118914Y-95442602D01*
X154176947Y-95543118D01*
X154218618Y-95589399D01*
X154296570Y-95675974D01*
X154296573Y-95675976D01*
X154296576Y-95675979D01*
X154441213Y-95781065D01*
X154604539Y-95853782D01*
X154779415Y-95890953D01*
X154779416Y-95890953D01*
X154958195Y-95890953D01*
X154958197Y-95890953D01*
X155133073Y-95853782D01*
X155296399Y-95781065D01*
X155441036Y-95675979D01*
X155560665Y-95543118D01*
X155650056Y-95388288D01*
X155705303Y-95218256D01*
X155723991Y-95040453D01*
X155705303Y-94862650D01*
X155673595Y-94765063D01*
X155650058Y-94692623D01*
X155650055Y-94692617D01*
X155560665Y-94537788D01*
X155513809Y-94485749D01*
X155441041Y-94404931D01*
X155441038Y-94404929D01*
X155441037Y-94404928D01*
X155441036Y-94404927D01*
X155296399Y-94299841D01*
X155296398Y-94299840D01*
X155281778Y-94293331D01*
X155228541Y-94248080D01*
X155211558Y-94208653D01*
X155176251Y-94059680D01*
X155098825Y-93905510D01*
X155050874Y-93846647D01*
X155034666Y-93826750D01*
X155034653Y-93826735D01*
X154558529Y-93350612D01*
X154558522Y-93350605D01*
X154558514Y-93350598D01*
X154558508Y-93350593D01*
X154479757Y-93286439D01*
X154479750Y-93286435D01*
X154479749Y-93286434D01*
X154402318Y-93247547D01*
X154325576Y-93209006D01*
X154157712Y-93169222D01*
X154157711Y-93169222D01*
X154102601Y-93169222D01*
X154035562Y-93149537D01*
X153989807Y-93096733D01*
X153978601Y-93045222D01*
X153978601Y-92990110D01*
X153938816Y-92822246D01*
X153938815Y-92822244D01*
X153861389Y-92668074D01*
X153797219Y-92589301D01*
X153321086Y-92113169D01*
X153321078Y-92113162D01*
X153321072Y-92113157D01*
X153242321Y-92049003D01*
X153242314Y-92048999D01*
X153242313Y-92048998D01*
X153164882Y-92010111D01*
X153088140Y-91971570D01*
X152920106Y-91931745D01*
X152859413Y-91897131D01*
X152841316Y-91873088D01*
X152802724Y-91806244D01*
X152766665Y-91743788D01*
X152719809Y-91691749D01*
X152647041Y-91610931D01*
X152647038Y-91610929D01*
X152647037Y-91610928D01*
X152647036Y-91610927D01*
X152502399Y-91505841D01*
X152339073Y-91433124D01*
X152339071Y-91433123D01*
X152211400Y-91405986D01*
X152164197Y-91395953D01*
X151985415Y-91395953D01*
X151954760Y-91402468D01*
X151810539Y-91433123D01*
X151810534Y-91433125D01*
X151647214Y-91505840D01*
X151502574Y-91610928D01*
X151382946Y-91743789D01*
X151293556Y-91898617D01*
X151293553Y-91898623D01*
X151238310Y-92068645D01*
X151238309Y-92068647D01*
X151219621Y-92246453D01*
X130250350Y-92246453D01*
X130251687Y-92243790D01*
X130291473Y-92075922D01*
X130291473Y-92075918D01*
X130291780Y-92074623D01*
X130326395Y-92013931D01*
X130362001Y-91989941D01*
X130404399Y-91971065D01*
X130549036Y-91865979D01*
X130668665Y-91733118D01*
X130758056Y-91578288D01*
X130813303Y-91408256D01*
X130831991Y-91230453D01*
X130813303Y-91052650D01*
X130758056Y-90882618D01*
X130668665Y-90727788D01*
X130621809Y-90675749D01*
X130549041Y-90594931D01*
X130549038Y-90594929D01*
X130549037Y-90594928D01*
X130549036Y-90594927D01*
X130404399Y-90489841D01*
X130241073Y-90417124D01*
X130241071Y-90417123D01*
X130113400Y-90389986D01*
X130066197Y-90379953D01*
X129887415Y-90379953D01*
X129856760Y-90386468D01*
X129712539Y-90417123D01*
X129712534Y-90417125D01*
X129549214Y-90489840D01*
X129404574Y-90594928D01*
X129284945Y-90727789D01*
X129210295Y-90857088D01*
X129159728Y-90905304D01*
X129131505Y-90915745D01*
X128963471Y-90955570D01*
X128809297Y-91032999D01*
X128730539Y-91097156D01*
X128730524Y-91097169D01*
X128254401Y-91573293D01*
X128254382Y-91573314D01*
X128190228Y-91652065D01*
X128190224Y-91652072D01*
X128112795Y-91806246D01*
X128073011Y-91974110D01*
X128073011Y-92029222D01*
X128053326Y-92096261D01*
X128000522Y-92142016D01*
X127949011Y-92153222D01*
X127893900Y-92153222D01*
X127726035Y-92193006D01*
X127571861Y-92270435D01*
X127493103Y-92334592D01*
X127493088Y-92334605D01*
X127016965Y-92810729D01*
X127016946Y-92810750D01*
X126952792Y-92889501D01*
X126952788Y-92889508D01*
X126875359Y-93043682D01*
X126840053Y-93192649D01*
X126805439Y-93253342D01*
X126769837Y-93277329D01*
X126755216Y-93283839D01*
X126610574Y-93388928D01*
X126490946Y-93521789D01*
X126401556Y-93676617D01*
X126401553Y-93676623D01*
X126346310Y-93846645D01*
X126346309Y-93846647D01*
X126327621Y-94024453D01*
X117564358Y-94024453D01*
X117526395Y-92544032D01*
X117526389Y-92538025D01*
X117566362Y-90822730D01*
X117566650Y-90816694D01*
X117566679Y-90816295D01*
X117689183Y-89120494D01*
X117689757Y-89114566D01*
X117893019Y-87439589D01*
X117893876Y-87433716D01*
X118176026Y-85782126D01*
X118177163Y-85776316D01*
X118536174Y-84151107D01*
X141171807Y-84151107D01*
X141182125Y-84252105D01*
X141236352Y-84415753D01*
X141236357Y-84415764D01*
X141326858Y-84562487D01*
X141326861Y-84562491D01*
X141448767Y-84684397D01*
X141448771Y-84684400D01*
X141595494Y-84774901D01*
X141595505Y-84774906D01*
X141759153Y-84829133D01*
X141860157Y-84839452D01*
X141946806Y-84839451D01*
X141946806Y-84114453D01*
X141171807Y-84114453D01*
X141171807Y-84151107D01*
X118536174Y-84151107D01*
X118536375Y-84150195D01*
X118537784Y-84144478D01*
X118972212Y-82546011D01*
X118973881Y-82540399D01*
X119028036Y-82373107D01*
X125790807Y-82373107D01*
X125801125Y-82474105D01*
X125855352Y-82637753D01*
X125855357Y-82637764D01*
X125945858Y-82784487D01*
X125945861Y-82784491D01*
X126067767Y-82906397D01*
X126067771Y-82906400D01*
X126214494Y-82996901D01*
X126214505Y-82996906D01*
X126378153Y-83051133D01*
X126479157Y-83061452D01*
X126565806Y-83061451D01*
X126565806Y-82336453D01*
X125790807Y-82336453D01*
X125790807Y-82373107D01*
X119028036Y-82373107D01*
X119213625Y-81799798D01*
X125790806Y-81799798D01*
X125790806Y-81836453D01*
X126565806Y-81836453D01*
X126565806Y-81111453D01*
X127065806Y-81111453D01*
X127065806Y-83061452D01*
X127152446Y-83061452D01*
X127152460Y-83061451D01*
X127253458Y-83051133D01*
X127417106Y-82996906D01*
X127417113Y-82996903D01*
X127525677Y-82929939D01*
X127593069Y-82911498D01*
X127659733Y-82932420D01*
X127704503Y-82986061D01*
X127714096Y-83022515D01*
X127729309Y-83167257D01*
X127729310Y-83167260D01*
X127784553Y-83337282D01*
X127784556Y-83337288D01*
X127873947Y-83492118D01*
X127901424Y-83522634D01*
X127993570Y-83624974D01*
X127993573Y-83624976D01*
X127993576Y-83624979D01*
X128138213Y-83730065D01*
X128301539Y-83802782D01*
X128476415Y-83839953D01*
X128476416Y-83839953D01*
X128655195Y-83839953D01*
X128655197Y-83839953D01*
X128830073Y-83802782D01*
X128993399Y-83730065D01*
X129138036Y-83624979D01*
X129151116Y-83610453D01*
X129180518Y-83577798D01*
X141171806Y-83577798D01*
X141171806Y-83614453D01*
X141946806Y-83614453D01*
X141946806Y-82889453D01*
X142446806Y-82889453D01*
X142446806Y-84839452D01*
X142533446Y-84839452D01*
X142533460Y-84839451D01*
X142634458Y-84829133D01*
X142798106Y-84774906D01*
X142798113Y-84774903D01*
X142911841Y-84704754D01*
X142979234Y-84686313D01*
X143045897Y-84707235D01*
X143090667Y-84760877D01*
X143100259Y-84797328D01*
X143104687Y-84839451D01*
X143110309Y-84892942D01*
X143110310Y-84892945D01*
X143165553Y-85062967D01*
X143165556Y-85062973D01*
X143254947Y-85217803D01*
X143296618Y-85264084D01*
X143374570Y-85350659D01*
X143374573Y-85350661D01*
X143374576Y-85350664D01*
X143519213Y-85455750D01*
X143682539Y-85528467D01*
X143857415Y-85565638D01*
X143857416Y-85565638D01*
X144036195Y-85565638D01*
X144036197Y-85565638D01*
X144211073Y-85528467D01*
X144374399Y-85455750D01*
X144519036Y-85350664D01*
X144638665Y-85217803D01*
X144728056Y-85062973D01*
X144783303Y-84892941D01*
X144801991Y-84715138D01*
X144794916Y-84647834D01*
X144807485Y-84579108D01*
X144813796Y-84569222D01*
X144813354Y-84568950D01*
X144817144Y-84562804D01*
X144817146Y-84562803D01*
X144907714Y-84415969D01*
X144911313Y-84405107D01*
X159572807Y-84405107D01*
X159583125Y-84506105D01*
X159637352Y-84669753D01*
X159637357Y-84669764D01*
X159727858Y-84816487D01*
X159727861Y-84816491D01*
X159849767Y-84938397D01*
X159849771Y-84938400D01*
X159996494Y-85028901D01*
X159996505Y-85028906D01*
X160160153Y-85083133D01*
X160261157Y-85093452D01*
X160347806Y-85093451D01*
X160347806Y-84368453D01*
X159572807Y-84368453D01*
X159572807Y-84405107D01*
X144911313Y-84405107D01*
X144961980Y-84252206D01*
X144972306Y-84151130D01*
X144972305Y-83831798D01*
X159572806Y-83831798D01*
X159572806Y-83868453D01*
X160347806Y-83868453D01*
X160347806Y-83143453D01*
X160847806Y-83143453D01*
X160847806Y-85093452D01*
X160934446Y-85093452D01*
X160934460Y-85093451D01*
X161035458Y-85083133D01*
X161199106Y-85028906D01*
X161199112Y-85028903D01*
X161205794Y-85024782D01*
X161273186Y-85006339D01*
X161339850Y-85027259D01*
X161384622Y-85080899D01*
X161394215Y-85117352D01*
X161398309Y-85156300D01*
X161398310Y-85156302D01*
X161398310Y-85156304D01*
X161453553Y-85326326D01*
X161453556Y-85326332D01*
X161542947Y-85481162D01*
X161584618Y-85527443D01*
X161662570Y-85614018D01*
X161662573Y-85614020D01*
X161662576Y-85614023D01*
X161807213Y-85719109D01*
X161970539Y-85791826D01*
X162145415Y-85828997D01*
X162145416Y-85828997D01*
X162324195Y-85828997D01*
X162324197Y-85828997D01*
X162499073Y-85791826D01*
X162662399Y-85719109D01*
X162807036Y-85614023D01*
X162926665Y-85481162D01*
X163016056Y-85326332D01*
X163071303Y-85156300D01*
X163089340Y-84984685D01*
X163115923Y-84920074D01*
X163124961Y-84909987D01*
X163218146Y-84816803D01*
X163308714Y-84669969D01*
X163362980Y-84506206D01*
X163373306Y-84405130D01*
X163373305Y-83831777D01*
X163362980Y-83730700D01*
X163308714Y-83566937D01*
X163218146Y-83420103D01*
X163096156Y-83298113D01*
X163004935Y-83241848D01*
X162949324Y-83207546D01*
X162949319Y-83207544D01*
X162947875Y-83207065D01*
X162785559Y-83153279D01*
X162785557Y-83153278D01*
X162684484Y-83142953D01*
X162011136Y-83142953D01*
X162011118Y-83142954D01*
X161910053Y-83153278D01*
X161746290Y-83207545D01*
X161746287Y-83207546D01*
X161599454Y-83298114D01*
X161560132Y-83337436D01*
X161498809Y-83370921D01*
X161429117Y-83365935D01*
X161384771Y-83337435D01*
X161345844Y-83298508D01*
X161345840Y-83298505D01*
X161199117Y-83208004D01*
X161199106Y-83207999D01*
X161035458Y-83153772D01*
X160934460Y-83143453D01*
X160847806Y-83143453D01*
X160347806Y-83143453D01*
X160347805Y-83143452D01*
X160261166Y-83143453D01*
X160261149Y-83143454D01*
X160160153Y-83153772D01*
X159996505Y-83207999D01*
X159996494Y-83208004D01*
X159849771Y-83298505D01*
X159849767Y-83298508D01*
X159727861Y-83420414D01*
X159727858Y-83420418D01*
X159637357Y-83567141D01*
X159637352Y-83567152D01*
X159583125Y-83730800D01*
X159572806Y-83831798D01*
X144972305Y-83831798D01*
X144972305Y-83577777D01*
X144971197Y-83566934D01*
X144961980Y-83476700D01*
X144947382Y-83432647D01*
X144907714Y-83312937D01*
X144817146Y-83166103D01*
X144695156Y-83044113D01*
X144594625Y-82982105D01*
X144548324Y-82953546D01*
X144548319Y-82953544D01*
X144484571Y-82932420D01*
X144384559Y-82899279D01*
X144384557Y-82899278D01*
X144283484Y-82888953D01*
X143610136Y-82888953D01*
X143610118Y-82888954D01*
X143509053Y-82899278D01*
X143345290Y-82953545D01*
X143345287Y-82953546D01*
X143198454Y-83044114D01*
X143159132Y-83083436D01*
X143097809Y-83116921D01*
X143028117Y-83111935D01*
X142983771Y-83083435D01*
X142944844Y-83044508D01*
X142944840Y-83044505D01*
X142798117Y-82954004D01*
X142798106Y-82953999D01*
X142634458Y-82899772D01*
X142533460Y-82889453D01*
X142446806Y-82889453D01*
X141946806Y-82889453D01*
X141946805Y-82889452D01*
X141860166Y-82889453D01*
X141860149Y-82889454D01*
X141759153Y-82899772D01*
X141595505Y-82953999D01*
X141595494Y-82954004D01*
X141448771Y-83044505D01*
X141448767Y-83044508D01*
X141326861Y-83166414D01*
X141326858Y-83166418D01*
X141236357Y-83313141D01*
X141236352Y-83313152D01*
X141182125Y-83476800D01*
X141171806Y-83577798D01*
X129180518Y-83577798D01*
X129257665Y-83492118D01*
X129347056Y-83337288D01*
X129402303Y-83167256D01*
X129420991Y-82989453D01*
X129409603Y-82881107D01*
X176336807Y-82881107D01*
X176347125Y-82982105D01*
X176401352Y-83145753D01*
X176401357Y-83145764D01*
X176491858Y-83292487D01*
X176491861Y-83292491D01*
X176613767Y-83414397D01*
X176613771Y-83414400D01*
X176760494Y-83504901D01*
X176760505Y-83504906D01*
X176924153Y-83559133D01*
X177025157Y-83569452D01*
X177111806Y-83569451D01*
X177111806Y-82844453D01*
X176336807Y-82844453D01*
X176336807Y-82881107D01*
X129409603Y-82881107D01*
X129409063Y-82875972D01*
X129421632Y-82807245D01*
X129435123Y-82786095D01*
X129436136Y-82784812D01*
X129436146Y-82784803D01*
X129526714Y-82637969D01*
X129580980Y-82474206D01*
X129591306Y-82373130D01*
X129591306Y-82307798D01*
X176336806Y-82307798D01*
X176336806Y-82344453D01*
X177111806Y-82344453D01*
X177111806Y-81619453D01*
X177611806Y-81619453D01*
X177611806Y-83569452D01*
X177698446Y-83569452D01*
X177698460Y-83569451D01*
X177799458Y-83559133D01*
X177963106Y-83504906D01*
X177963117Y-83504901D01*
X178109840Y-83414400D01*
X178109843Y-83414398D01*
X178148770Y-83375471D01*
X178210093Y-83341985D01*
X178279784Y-83346969D01*
X178324133Y-83375470D01*
X178368563Y-83419900D01*
X178366913Y-83421549D01*
X178400816Y-83469428D01*
X178406850Y-83522634D01*
X178401053Y-83577798D01*
X178397621Y-83610453D01*
X178399148Y-83624979D01*
X178416309Y-83788258D01*
X178416310Y-83788260D01*
X178471553Y-83958282D01*
X178471556Y-83958288D01*
X178560947Y-84113118D01*
X178595173Y-84151130D01*
X178680570Y-84245974D01*
X178680573Y-84245976D01*
X178680576Y-84245979D01*
X178825213Y-84351065D01*
X178988539Y-84423782D01*
X179163415Y-84460953D01*
X179163416Y-84460953D01*
X179342195Y-84460953D01*
X179342197Y-84460953D01*
X179517073Y-84423782D01*
X179680399Y-84351065D01*
X179825036Y-84245979D01*
X179944665Y-84113118D01*
X180034056Y-83958288D01*
X180089303Y-83788256D01*
X180107991Y-83610453D01*
X180089303Y-83432650D01*
X180050405Y-83312934D01*
X180040302Y-83281840D01*
X180038307Y-83211999D01*
X180052693Y-83178426D01*
X180072714Y-83145969D01*
X180126980Y-82982206D01*
X180137306Y-82881130D01*
X180137305Y-82307777D01*
X180126980Y-82206700D01*
X180072714Y-82042937D01*
X179982146Y-81896103D01*
X179860156Y-81774113D01*
X179737892Y-81698700D01*
X179713324Y-81683546D01*
X179713319Y-81683544D01*
X179711875Y-81683065D01*
X179549559Y-81629279D01*
X179549557Y-81629278D01*
X179448484Y-81618953D01*
X178775136Y-81618953D01*
X178775118Y-81618954D01*
X178674053Y-81629278D01*
X178510290Y-81683545D01*
X178510287Y-81683546D01*
X178363454Y-81774114D01*
X178324132Y-81813436D01*
X178262809Y-81846921D01*
X178193117Y-81841935D01*
X178148771Y-81813435D01*
X178109844Y-81774508D01*
X178109840Y-81774505D01*
X177963117Y-81684004D01*
X177963106Y-81683999D01*
X177799458Y-81629772D01*
X177698460Y-81619453D01*
X177611806Y-81619453D01*
X177111806Y-81619453D01*
X177111805Y-81619452D01*
X177025166Y-81619453D01*
X177025149Y-81619454D01*
X176924153Y-81629772D01*
X176760505Y-81683999D01*
X176760494Y-81684004D01*
X176613771Y-81774505D01*
X176613767Y-81774508D01*
X176491861Y-81896414D01*
X176491858Y-81896418D01*
X176401357Y-82043141D01*
X176401352Y-82043152D01*
X176347125Y-82206800D01*
X176336806Y-82307798D01*
X129591306Y-82307798D01*
X129591305Y-81799777D01*
X129588723Y-81774505D01*
X129580980Y-81698700D01*
X129576110Y-81684004D01*
X129526714Y-81534937D01*
X129436146Y-81388103D01*
X129314156Y-81266113D01*
X129222935Y-81209848D01*
X129167324Y-81175546D01*
X129167319Y-81175544D01*
X129165875Y-81175065D01*
X129003559Y-81121279D01*
X129003557Y-81121278D01*
X128902484Y-81110953D01*
X128229136Y-81110953D01*
X128229118Y-81110954D01*
X128128053Y-81121278D01*
X127964290Y-81175545D01*
X127964287Y-81175546D01*
X127817454Y-81266114D01*
X127778132Y-81305436D01*
X127716809Y-81338921D01*
X127647117Y-81333935D01*
X127602771Y-81305435D01*
X127563844Y-81266508D01*
X127563840Y-81266505D01*
X127417117Y-81176004D01*
X127417106Y-81175999D01*
X127253458Y-81121772D01*
X127152460Y-81111453D01*
X127065806Y-81111453D01*
X126565806Y-81111453D01*
X126565805Y-81111452D01*
X126479166Y-81111453D01*
X126479149Y-81111454D01*
X126378153Y-81121772D01*
X126214505Y-81175999D01*
X126214494Y-81176004D01*
X126067771Y-81266505D01*
X126067767Y-81266508D01*
X125945861Y-81388414D01*
X125945858Y-81388418D01*
X125855357Y-81535141D01*
X125855352Y-81535152D01*
X125801125Y-81698800D01*
X125790806Y-81799798D01*
X119213625Y-81799798D01*
X119481715Y-80971635D01*
X119483643Y-80966127D01*
X120063037Y-79429247D01*
X120065202Y-79423891D01*
X120714354Y-77920948D01*
X120716729Y-77915786D01*
X121433765Y-76449011D01*
X121436426Y-76443879D01*
X121436617Y-76443531D01*
X122219501Y-75015424D01*
X122222357Y-75010490D01*
X122432783Y-74665770D01*
X151861306Y-74665770D01*
X151861306Y-75339124D01*
X151861307Y-75339142D01*
X151871631Y-75440207D01*
X151925898Y-75603970D01*
X151925899Y-75603973D01*
X152016467Y-75750806D01*
X152055434Y-75789774D01*
X152088919Y-75851097D01*
X152083933Y-75920789D01*
X152055434Y-75965134D01*
X152016467Y-76004101D01*
X151925899Y-76150934D01*
X151925898Y-76150937D01*
X151871632Y-76314700D01*
X151871632Y-76314701D01*
X151871631Y-76314701D01*
X151861306Y-76415768D01*
X151861306Y-77089122D01*
X151861307Y-77089140D01*
X151871631Y-77190205D01*
X151925898Y-77353968D01*
X151925901Y-77353975D01*
X151994879Y-77465806D01*
X152013319Y-77533198D01*
X152007273Y-77569215D01*
X152000309Y-77590648D01*
X151981621Y-77768453D01*
X152000309Y-77946258D01*
X152000310Y-77946260D01*
X152055553Y-78116282D01*
X152055556Y-78116288D01*
X152144947Y-78271118D01*
X152186618Y-78317399D01*
X152264570Y-78403974D01*
X152264573Y-78403976D01*
X152264576Y-78403979D01*
X152409213Y-78509065D01*
X152572539Y-78581782D01*
X152747415Y-78618953D01*
X152747416Y-78618953D01*
X152926195Y-78618953D01*
X152926197Y-78618953D01*
X153101073Y-78581782D01*
X153264399Y-78509065D01*
X153409036Y-78403979D01*
X153528665Y-78271118D01*
X153618056Y-78116288D01*
X153673303Y-77946256D01*
X153691991Y-77768453D01*
X153673303Y-77590650D01*
X153666339Y-77569220D01*
X153664343Y-77499383D01*
X153678728Y-77465812D01*
X153747714Y-77353969D01*
X153801980Y-77190206D01*
X153812306Y-77089130D01*
X153812305Y-76415777D01*
X153801980Y-76314700D01*
X153747714Y-76150937D01*
X153657146Y-76004103D01*
X153618177Y-75965134D01*
X153584693Y-75903812D01*
X153589677Y-75834120D01*
X153618178Y-75789773D01*
X153657146Y-75750805D01*
X153747714Y-75603971D01*
X153801980Y-75440208D01*
X153812306Y-75339132D01*
X153812305Y-74665779D01*
X153801980Y-74564702D01*
X153747714Y-74400939D01*
X153672771Y-74279437D01*
X153654332Y-74212048D01*
X153660380Y-74176027D01*
X153673303Y-74136256D01*
X153691991Y-73958453D01*
X153673303Y-73780650D01*
X153623958Y-73628782D01*
X153618058Y-73610623D01*
X153618055Y-73610617D01*
X153528665Y-73455788D01*
X153481809Y-73403749D01*
X153409041Y-73322931D01*
X153409038Y-73322929D01*
X153409037Y-73322928D01*
X153409036Y-73322927D01*
X153264399Y-73217841D01*
X153101073Y-73145124D01*
X153101071Y-73145123D01*
X152973400Y-73117986D01*
X152926197Y-73107953D01*
X152747415Y-73107953D01*
X152716760Y-73114468D01*
X152572539Y-73145123D01*
X152572534Y-73145125D01*
X152409214Y-73217840D01*
X152264574Y-73322928D01*
X152144946Y-73455789D01*
X152055556Y-73610617D01*
X152055553Y-73610623D01*
X152000310Y-73780645D01*
X152000309Y-73780647D01*
X151981621Y-73958453D01*
X152000309Y-74136257D01*
X152013231Y-74176027D01*
X152015225Y-74245868D01*
X152000838Y-74279439D01*
X151925902Y-74400932D01*
X151925898Y-74400939D01*
X151871632Y-74564702D01*
X151871632Y-74564703D01*
X151871631Y-74564703D01*
X151861306Y-74665770D01*
X122432783Y-74665770D01*
X123069678Y-73622407D01*
X123072790Y-73617567D01*
X123114373Y-73556063D01*
X123982510Y-72272018D01*
X123985789Y-72267402D01*
X124956101Y-70966482D01*
X124959606Y-70962003D01*
X125731356Y-70021453D01*
X165824621Y-70021453D01*
X165843309Y-70199258D01*
X165843310Y-70199260D01*
X165898553Y-70369282D01*
X165898556Y-70369288D01*
X165987947Y-70524118D01*
X166029618Y-70570399D01*
X166107570Y-70656974D01*
X166107573Y-70656976D01*
X166107576Y-70656979D01*
X166233994Y-70748828D01*
X166252216Y-70762067D01*
X166280719Y-70774757D01*
X166333957Y-70820006D01*
X166350942Y-70859440D01*
X166388641Y-71018505D01*
X166466070Y-71172679D01*
X166530227Y-71251437D01*
X166530236Y-71251448D01*
X166530239Y-71251451D01*
X167006372Y-71727583D01*
X167006380Y-71727589D01*
X167006385Y-71727594D01*
X167085136Y-71791748D01*
X167085141Y-71791751D01*
X167085145Y-71791754D01*
X167239315Y-71869180D01*
X167239317Y-71869181D01*
X167407182Y-71908966D01*
X167462293Y-71908966D01*
X167529332Y-71928651D01*
X167575087Y-71981455D01*
X167586293Y-72032966D01*
X167586293Y-72088077D01*
X167626077Y-72255941D01*
X167703506Y-72410115D01*
X167767663Y-72488873D01*
X167767672Y-72488884D01*
X167767675Y-72488887D01*
X168243808Y-72965019D01*
X168243816Y-72965025D01*
X168243821Y-72965030D01*
X168322572Y-73029184D01*
X168322577Y-73029187D01*
X168322581Y-73029190D01*
X168476751Y-73106616D01*
X168636815Y-73144552D01*
X168697506Y-73179166D01*
X168715604Y-73203209D01*
X168762138Y-73283808D01*
X168781947Y-73318118D01*
X168786281Y-73322931D01*
X168901570Y-73450974D01*
X168901573Y-73450976D01*
X168901576Y-73450979D01*
X169046213Y-73556065D01*
X169209539Y-73628782D01*
X169384415Y-73665953D01*
X169384416Y-73665953D01*
X169563195Y-73665953D01*
X169563197Y-73665953D01*
X169738073Y-73628782D01*
X169901399Y-73556065D01*
X170046036Y-73450979D01*
X170165665Y-73318118D01*
X170255056Y-73163288D01*
X170310303Y-72993256D01*
X170328991Y-72815453D01*
X170310303Y-72637650D01*
X170255056Y-72467618D01*
X170165665Y-72312788D01*
X170114480Y-72255941D01*
X170046041Y-72179931D01*
X170046038Y-72179929D01*
X170046037Y-72179928D01*
X170046036Y-72179927D01*
X169901399Y-72074841D01*
X169872887Y-72062146D01*
X169819653Y-72016898D01*
X169802670Y-71977470D01*
X169764969Y-71818398D01*
X169687543Y-71664228D01*
X169623373Y-71585455D01*
X169147240Y-71109323D01*
X169147232Y-71109316D01*
X169147226Y-71109311D01*
X169068475Y-71045157D01*
X169068468Y-71045153D01*
X169068467Y-71045152D01*
X168991036Y-71006265D01*
X168914294Y-70967724D01*
X168746430Y-70927940D01*
X168746429Y-70927940D01*
X168691319Y-70927940D01*
X168624280Y-70908255D01*
X168578525Y-70855451D01*
X168567319Y-70803940D01*
X168567319Y-70748828D01*
X168527534Y-70580964D01*
X168498984Y-70524116D01*
X168450107Y-70426792D01*
X168385937Y-70348019D01*
X167909804Y-69871887D01*
X167909796Y-69871880D01*
X167909790Y-69871875D01*
X167831039Y-69807721D01*
X167831032Y-69807717D01*
X167831031Y-69807716D01*
X167753600Y-69768829D01*
X167676858Y-69730288D01*
X167516797Y-69692353D01*
X167456104Y-69657739D01*
X167438007Y-69633696D01*
X167371665Y-69518788D01*
X167324809Y-69466749D01*
X167252041Y-69385931D01*
X167252038Y-69385929D01*
X167252037Y-69385928D01*
X167252036Y-69385927D01*
X167107399Y-69280841D01*
X166944073Y-69208124D01*
X166944071Y-69208123D01*
X166816400Y-69180986D01*
X166769197Y-69170953D01*
X166590415Y-69170953D01*
X166559760Y-69177468D01*
X166415539Y-69208123D01*
X166415534Y-69208125D01*
X166252214Y-69280840D01*
X166107574Y-69385928D01*
X165987946Y-69518789D01*
X165898556Y-69673617D01*
X165898553Y-69673623D01*
X165843310Y-69843645D01*
X165843309Y-69843647D01*
X165824621Y-70021453D01*
X125731356Y-70021453D01*
X125988610Y-69707932D01*
X125992345Y-69703590D01*
X126019347Y-69673623D01*
X127078243Y-68498452D01*
X127082145Y-68494318D01*
X127957943Y-67608453D01*
X136233621Y-67608453D01*
X136252309Y-67786258D01*
X136252310Y-67786260D01*
X136307553Y-67956282D01*
X136307556Y-67956288D01*
X136396947Y-68111118D01*
X136438618Y-68157399D01*
X136516570Y-68243974D01*
X136516573Y-68243976D01*
X136516576Y-68243979D01*
X136661213Y-68349065D01*
X136824539Y-68421782D01*
X136999415Y-68458953D01*
X136999416Y-68458953D01*
X137178195Y-68458953D01*
X137178197Y-68458953D01*
X137353073Y-68421782D01*
X137371255Y-68413686D01*
X137440502Y-68404400D01*
X137490567Y-68426203D01*
X137491309Y-68425001D01*
X137497454Y-68428791D01*
X137497456Y-68428793D01*
X137644290Y-68519361D01*
X137808053Y-68573627D01*
X137909129Y-68583953D01*
X138582482Y-68583952D01*
X138582490Y-68583951D01*
X138582493Y-68583951D01*
X138637836Y-68578297D01*
X138683559Y-68573627D01*
X138847322Y-68519361D01*
X138994156Y-68428793D01*
X139033125Y-68389824D01*
X139094448Y-68356339D01*
X139164140Y-68361323D01*
X139208487Y-68389824D01*
X139247456Y-68428793D01*
X139394290Y-68519361D01*
X139558053Y-68573627D01*
X139659129Y-68583953D01*
X140332482Y-68583952D01*
X140332490Y-68583951D01*
X140332493Y-68583951D01*
X140387836Y-68578297D01*
X140433559Y-68573627D01*
X140597322Y-68519361D01*
X140744156Y-68428793D01*
X140744157Y-68428791D01*
X140750303Y-68425001D01*
X140751171Y-68426409D01*
X140807789Y-68403560D01*
X140870353Y-68413685D01*
X140888539Y-68421782D01*
X141063415Y-68458953D01*
X141063416Y-68458953D01*
X141242195Y-68458953D01*
X141242197Y-68458953D01*
X141417073Y-68421782D01*
X141580399Y-68349065D01*
X141725036Y-68243979D01*
X141844665Y-68111118D01*
X141934056Y-67956288D01*
X141989303Y-67786256D01*
X142007991Y-67608453D01*
X141989303Y-67430650D01*
X141934056Y-67260618D01*
X141844665Y-67105788D01*
X141797809Y-67053749D01*
X141725041Y-66972931D01*
X141725038Y-66972929D01*
X141725037Y-66972928D01*
X141725036Y-66972927D01*
X141580399Y-66867841D01*
X141417073Y-66795124D01*
X141417071Y-66795123D01*
X141289400Y-66767986D01*
X141242197Y-66757953D01*
X141063415Y-66757953D01*
X141026245Y-66765853D01*
X140888540Y-66795123D01*
X140888535Y-66795125D01*
X140870351Y-66803221D01*
X140801101Y-66812504D01*
X140751044Y-66790702D01*
X140750303Y-66791905D01*
X140744157Y-66788114D01*
X140744156Y-66788113D01*
X140597322Y-66697545D01*
X140433559Y-66643279D01*
X140433557Y-66643278D01*
X140332484Y-66632953D01*
X139659136Y-66632953D01*
X139659118Y-66632954D01*
X139558053Y-66643278D01*
X139394290Y-66697545D01*
X139394287Y-66697546D01*
X139247454Y-66788114D01*
X139208487Y-66827082D01*
X139147164Y-66860567D01*
X139077472Y-66855583D01*
X139033125Y-66827082D01*
X138994157Y-66788114D01*
X138994156Y-66788113D01*
X138847322Y-66697545D01*
X138683559Y-66643279D01*
X138683557Y-66643278D01*
X138582484Y-66632953D01*
X137909136Y-66632953D01*
X137909118Y-66632954D01*
X137808053Y-66643278D01*
X137644290Y-66697545D01*
X137644287Y-66697546D01*
X137547762Y-66757083D01*
X137497456Y-66788113D01*
X137497454Y-66788114D01*
X137491309Y-66791905D01*
X137490442Y-66790500D01*
X137433792Y-66813348D01*
X137371255Y-66803219D01*
X137353076Y-66795125D01*
X137353071Y-66795123D01*
X137225400Y-66767986D01*
X137178197Y-66757953D01*
X136999415Y-66757953D01*
X136968760Y-66764468D01*
X136824539Y-66795123D01*
X136824534Y-66795125D01*
X136661214Y-66867840D01*
X136516574Y-66972928D01*
X136396946Y-67105789D01*
X136307556Y-67260617D01*
X136307553Y-67260623D01*
X136252310Y-67430645D01*
X136252309Y-67430647D01*
X136233621Y-67608453D01*
X127957943Y-67608453D01*
X128223148Y-67340200D01*
X128227229Y-67336260D01*
X129421470Y-66235332D01*
X129425715Y-66231597D01*
X130671332Y-65186017D01*
X130675811Y-65182432D01*
X131970940Y-64194349D01*
X131975627Y-64190944D01*
X133318503Y-63262436D01*
X133323309Y-63259277D01*
X134712112Y-62392472D01*
X134717088Y-62389528D01*
X136149917Y-61586597D01*
X136155046Y-61583881D01*
X137630110Y-60846929D01*
X137635398Y-60844443D01*
X139150849Y-60175611D01*
X139156298Y-60173360D01*
X140710311Y-59574775D01*
X140715897Y-59572777D01*
X142306608Y-59046578D01*
X142312324Y-59044839D01*
X143937990Y-58593132D01*
X143943761Y-58591678D01*
X145602504Y-58216608D01*
X145608427Y-58215421D01*
X147298424Y-57919121D01*
X147304360Y-57918229D01*
X149026806Y-57702453D01*
X149026806Y-54028057D01*
X149026815Y-54026998D01*
X151276806Y-54026998D01*
X151276806Y-54027031D01*
X151278430Y-54091310D01*
X151278432Y-54091340D01*
X151283259Y-54154821D01*
X151283260Y-54154825D01*
X151291209Y-54217380D01*
X151291210Y-54217387D01*
X151291211Y-54217392D01*
X151302201Y-54278934D01*
X151316159Y-54339410D01*
X151316160Y-54339412D01*
X151333003Y-54398727D01*
X151352650Y-54456796D01*
X151352659Y-54456820D01*
X151375033Y-54513562D01*
X151375036Y-54513571D01*
X151400073Y-54568951D01*
X151400074Y-54568954D01*
X151427669Y-54622832D01*
X151451748Y-54664709D01*
X151457752Y-54675152D01*
X151457779Y-54675198D01*
X151457790Y-54675217D01*
X151490276Y-54725888D01*
X151490303Y-54725928D01*
X151525130Y-54774904D01*
X151525153Y-54774934D01*
X151562242Y-54822129D01*
X151601509Y-54867462D01*
X151601525Y-54867478D01*
X151601533Y-54867488D01*
X151642922Y-54910899D01*
X151686338Y-54952292D01*
X151731691Y-54991578D01*
X151731693Y-54991579D01*
X151778881Y-55028663D01*
X151778916Y-55028690D01*
X151827892Y-55063517D01*
X151827905Y-55063526D01*
X151827918Y-55063535D01*
X151827926Y-55063540D01*
X151827932Y-55063544D01*
X151878603Y-55096030D01*
X151878622Y-55096041D01*
X151878627Y-55096043D01*
X151878635Y-55096049D01*
X151930981Y-55126147D01*
X151984879Y-55153752D01*
X151984890Y-55153757D01*
X151984894Y-55153759D01*
X152040235Y-55178778D01*
X152040238Y-55178780D01*
X152097000Y-55201161D01*
X152097010Y-55201165D01*
X152097024Y-55201170D01*
X152114208Y-55206984D01*
X152155094Y-55220818D01*
X152214411Y-55237662D01*
X152274887Y-55251620D01*
X152336443Y-55262612D01*
X152399000Y-55270562D01*
X152462481Y-55275389D01*
X152462502Y-55275389D01*
X152462510Y-55275390D01*
X152526789Y-55277015D01*
X152526806Y-55277015D01*
X152526823Y-55277015D01*
X152591101Y-55275390D01*
X152591107Y-55275389D01*
X152591131Y-55275389D01*
X152654611Y-55270562D01*
X152717169Y-55262612D01*
X152778725Y-55251620D01*
X152839201Y-55237662D01*
X152898518Y-55220818D01*
X152956598Y-55201166D01*
X153013363Y-55178784D01*
X153068733Y-55153752D01*
X153122631Y-55126147D01*
X153174977Y-55096049D01*
X153225693Y-55063535D01*
X153274701Y-55028685D01*
X153321918Y-54991579D01*
X153321921Y-54991577D01*
X153367248Y-54952314D01*
X153367248Y-54952313D01*
X153367278Y-54952288D01*
X153410690Y-54910899D01*
X153452079Y-54867488D01*
X153491367Y-54822132D01*
X153528475Y-54774911D01*
X153563326Y-54725903D01*
X153595839Y-54675186D01*
X153625938Y-54622840D01*
X153653542Y-54568943D01*
X153678575Y-54513572D01*
X153700956Y-54456808D01*
X153720608Y-54398727D01*
X153737453Y-54339410D01*
X153751410Y-54278934D01*
X153762403Y-54217378D01*
X153770352Y-54154821D01*
X153775179Y-54091340D01*
X153775180Y-54091304D01*
X153776806Y-54027029D01*
X153776806Y-54027000D01*
X153775180Y-53962725D01*
X153775179Y-53962719D01*
X153775179Y-53962690D01*
X153770352Y-53899210D01*
X153762403Y-53836652D01*
X153751410Y-53775096D01*
X153737453Y-53714620D01*
X153720608Y-53655303D01*
X153700956Y-53597223D01*
X153678575Y-53540458D01*
X153653542Y-53485088D01*
X153625938Y-53431191D01*
X153595839Y-53378844D01*
X153563326Y-53328128D01*
X153528475Y-53279120D01*
X153528468Y-53279110D01*
X153491376Y-53231911D01*
X153491367Y-53231899D01*
X153452079Y-53186543D01*
X153410690Y-53143132D01*
X153367278Y-53101742D01*
X153321922Y-53062454D01*
X153274701Y-53025346D01*
X153274695Y-53025341D01*
X153274685Y-53025334D01*
X153225704Y-52990503D01*
X153174971Y-52957978D01*
X153174954Y-52957968D01*
X153122665Y-52927902D01*
X153122611Y-52927872D01*
X153068726Y-52900275D01*
X153068711Y-52900268D01*
X153013376Y-52875252D01*
X152956598Y-52852865D01*
X152956587Y-52852861D01*
X152898523Y-52833214D01*
X152839208Y-52816371D01*
X152839201Y-52816369D01*
X152778725Y-52802411D01*
X152778724Y-52802410D01*
X152778712Y-52802408D01*
X152717190Y-52791421D01*
X152717174Y-52791419D01*
X152717169Y-52791418D01*
X152695426Y-52788655D01*
X152654615Y-52783469D01*
X152654605Y-52783468D01*
X152591139Y-52778642D01*
X152591095Y-52778640D01*
X152526821Y-52777015D01*
X152526791Y-52777015D01*
X152462516Y-52778640D01*
X152462471Y-52778642D01*
X152399005Y-52783468D01*
X152398995Y-52783469D01*
X152336451Y-52791417D01*
X152336428Y-52791420D01*
X152274899Y-52802408D01*
X152238601Y-52810785D01*
X152214411Y-52816369D01*
X152214408Y-52816369D01*
X152214403Y-52816371D01*
X152155093Y-52833213D01*
X152097024Y-52852860D01*
X152097000Y-52852869D01*
X152040246Y-52875248D01*
X151984900Y-52900268D01*
X151984885Y-52900275D01*
X151931000Y-52927872D01*
X151930946Y-52927902D01*
X151878652Y-52957970D01*
X151878644Y-52957976D01*
X151827921Y-52990493D01*
X151827892Y-52990513D01*
X151778925Y-53025334D01*
X151778903Y-53025351D01*
X151731686Y-53062456D01*
X151686345Y-53101732D01*
X151686316Y-53101758D01*
X151642923Y-53143131D01*
X151601509Y-53186568D01*
X151562242Y-53231901D01*
X151525153Y-53279096D01*
X151525130Y-53279126D01*
X151490293Y-53328116D01*
X151490280Y-53328135D01*
X151457767Y-53378850D01*
X151457757Y-53378867D01*
X151427682Y-53431175D01*
X151427667Y-53431203D01*
X151400074Y-53485076D01*
X151400064Y-53485098D01*
X151375046Y-53540435D01*
X151352655Y-53597222D01*
X151352651Y-53597233D01*
X151333004Y-53655297D01*
X151316160Y-53714617D01*
X151302199Y-53775104D01*
X151291211Y-53836636D01*
X151291209Y-53836650D01*
X151283259Y-53899213D01*
X151278432Y-53962687D01*
X151278430Y-53962719D01*
X151276806Y-54026998D01*
X149026815Y-54026998D01*
X149026823Y-54025993D01*
X149027876Y-53962725D01*
X149028719Y-53912112D01*
X149028853Y-53908060D01*
X149034461Y-53795796D01*
X149034734Y-53791710D01*
X149041154Y-53714620D01*
X149044019Y-53680222D01*
X149044422Y-53676190D01*
X149057347Y-53565439D01*
X149057887Y-53561396D01*
X149058192Y-53559369D01*
X149074406Y-53451490D01*
X149075077Y-53447482D01*
X149095139Y-53338532D01*
X149095942Y-53334542D01*
X149119513Y-53226564D01*
X149120429Y-53222674D01*
X149147468Y-53115747D01*
X149148523Y-53111847D01*
X149151428Y-53101758D01*
X149178962Y-53006123D01*
X149180139Y-53002274D01*
X149213961Y-52897742D01*
X149215258Y-52893948D01*
X149221989Y-52875247D01*
X149252401Y-52790741D01*
X149253817Y-52786999D01*
X149294253Y-52685148D01*
X149295785Y-52681467D01*
X149339459Y-52581079D01*
X149341120Y-52577424D01*
X149387087Y-52480474D01*
X149387972Y-52478606D01*
X149389736Y-52475038D01*
X149390640Y-52473280D01*
X149439758Y-52377790D01*
X149441597Y-52374353D01*
X149494772Y-52278710D01*
X149496721Y-52275335D01*
X149552941Y-52181498D01*
X149554999Y-52178184D01*
X149614243Y-52086184D01*
X149616412Y-52082932D01*
X149678620Y-51992868D01*
X149680912Y-51989662D01*
X149746058Y-51901585D01*
X149748416Y-51898504D01*
X149816451Y-51812498D01*
X149818901Y-51809502D01*
X149889829Y-51725589D01*
X149892362Y-51722690D01*
X149966072Y-51641029D01*
X149968714Y-51638196D01*
X150045145Y-51558878D01*
X150047964Y-51556048D01*
X150127055Y-51479159D01*
X150129971Y-51476417D01*
X150211676Y-51402034D01*
X150214700Y-51399368D01*
X150299083Y-51327469D01*
X150302180Y-51324916D01*
X150389145Y-51255621D01*
X150392306Y-51253188D01*
X150481804Y-51186583D01*
X150485017Y-51184273D01*
X150577038Y-51120410D01*
X150580403Y-51118157D01*
X150674824Y-51057168D01*
X150678228Y-51055048D01*
X150774169Y-50997507D01*
X150779528Y-50994473D01*
X150979052Y-50887958D01*
X150986411Y-50884337D01*
X151189990Y-50792449D01*
X151197501Y-50789353D01*
X151405329Y-50711605D01*
X151412992Y-50709021D01*
X151624402Y-50645400D01*
X151632160Y-50643339D01*
X151846395Y-50593860D01*
X151854293Y-50592305D01*
X152070644Y-50556966D01*
X152078559Y-50555935D01*
X152296336Y-50534730D01*
X152304327Y-50534212D01*
X152522818Y-50527145D01*
X152530794Y-50527145D01*
X152749282Y-50534212D01*
G37*
%TD.AperFunction*%
M02*
