%TF.GenerationSoftware,KiCad,Pcbnew,8.0.6*%
%TF.CreationDate,2024-11-04T22:38:12+01:00*%
%TF.ProjectId,christmas_ornament_2024,63687269-7374-46d6-9173-5f6f726e616d,1.0*%
%TF.SameCoordinates,Original*%
%TF.FileFunction,Legend,Bot*%
%TF.FilePolarity,Positive*%
%FSLAX46Y46*%
G04 Gerber Fmt 4.6, Leading zero omitted, Abs format (unit mm)*
G04 Created by KiCad (PCBNEW 8.0.6) date 2024-11-04 22:38:12*
%MOMM*%
%LPD*%
G01*
G04 APERTURE LIST*
G04 Aperture macros list*
%AMRoundRect*
0 Rectangle with rounded corners*
0 $1 Rounding radius*
0 $2 $3 $4 $5 $6 $7 $8 $9 X,Y pos of 4 corners*
0 Add a 4 corners polygon primitive as box body*
4,1,4,$2,$3,$4,$5,$6,$7,$8,$9,$2,$3,0*
0 Add four circle primitives for the rounded corners*
1,1,$1+$1,$2,$3*
1,1,$1+$1,$4,$5*
1,1,$1+$1,$6,$7*
1,1,$1+$1,$8,$9*
0 Add four rect primitives between the rounded corners*
20,1,$1+$1,$2,$3,$4,$5,0*
20,1,$1+$1,$4,$5,$6,$7,0*
20,1,$1+$1,$6,$7,$8,$9,0*
20,1,$1+$1,$8,$9,$2,$3,0*%
%AMFreePoly0*
4,1,19,0.499999,-0.750000,0.000000,-0.750000,0.000000,-0.744912,-0.071157,-0.744911,-0.207708,-0.704816,-0.327430,-0.627875,-0.420627,-0.520320,-0.479746,-0.390866,-0.500000,-0.250000,-0.500000,0.250000,-0.479746,0.390866,-0.420627,0.520320,-0.327430,0.627875,-0.207708,0.704816,-0.071157,0.744911,0.000000,0.744912,0.000000,0.750000,0.499999,0.750000,0.499999,-0.750000,0.499999,-0.750000,
$1*%
%AMFreePoly1*
4,1,19,0.000000,0.744912,0.071157,0.744911,0.207708,0.704816,0.327430,0.627875,0.420627,0.520320,0.479746,0.390866,0.500000,0.250000,0.500000,-0.250000,0.479746,-0.390866,0.420627,-0.520320,0.327430,-0.627875,0.207708,-0.704816,0.071157,-0.744911,0.000000,-0.744912,0.000000,-0.750000,-0.499999,-0.750000,-0.499999,0.750000,0.000000,0.750000,0.000000,0.744912,0.000000,0.744912,
$1*%
G04 Aperture macros list end*
%ADD10C,0.153000*%
%ADD11C,0.400000*%
%ADD12C,0.300000*%
%ADD13C,0.120000*%
%ADD14C,0.127000*%
%ADD15C,0.250000*%
%ADD16C,0.000000*%
%ADD17RoundRect,0.250000X0.450000X-0.350000X0.450000X0.350000X-0.450000X0.350000X-0.450000X-0.350000X0*%
%ADD18RoundRect,0.250000X-0.565685X-0.070711X-0.070711X-0.565685X0.565685X0.070711X0.070711X0.565685X0*%
%ADD19RoundRect,0.250000X0.337500X0.475000X-0.337500X0.475000X-0.337500X-0.475000X0.337500X-0.475000X0*%
%ADD20C,0.900000*%
%ADD21RoundRect,0.102000X-0.282843X0.777817X-0.777817X0.282843X0.282843X-0.777817X0.777817X-0.282843X0*%
%ADD22RoundRect,0.102000X0.070711X0.636396X-0.636396X-0.070711X-0.070711X-0.636396X0.636396X0.070711X0*%
%ADD23RoundRect,0.250000X-0.450000X0.350000X-0.450000X-0.350000X0.450000X-0.350000X0.450000X0.350000X0*%
%ADD24RoundRect,0.250000X-0.350000X-0.450000X0.350000X-0.450000X0.350000X0.450000X-0.350000X0.450000X0*%
%ADD25RoundRect,0.250000X0.350000X0.450000X-0.350000X0.450000X-0.350000X-0.450000X0.350000X-0.450000X0*%
%ADD26FreePoly0,45.000000*%
%ADD27FreePoly1,45.000000*%
%ADD28R,1.750000X0.650000*%
%ADD29C,18.104000*%
%ADD30RoundRect,0.102000X2.850000X3.050000X-2.850000X3.050000X-2.850000X-3.050000X2.850000X-3.050000X0*%
%ADD31RoundRect,0.425000X0.425000X0.425000X-0.425000X0.425000X-0.425000X-0.425000X0.425000X-0.425000X0*%
%ADD32C,1.700000*%
%ADD33RoundRect,0.200000X-0.200000X0.750000X-0.200000X-0.750000X0.200000X-0.750000X0.200000X0.750000X0*%
%ADD34RoundRect,0.250000X0.650000X-1.500000X0.650000X1.500000X-0.650000X1.500000X-0.650000X-1.500000X0*%
G04 APERTURE END LIST*
D10*
X181792806Y-77768453D02*
X173664806Y-77768453D01*
X177474806Y-78276453D02*
X177474806Y-82848453D01*
X181792806Y-86912453D02*
X181792806Y-76244453D01*
X148180053Y-98974116D02*
X148180053Y-97974116D01*
X148180053Y-97974116D02*
X147941958Y-97974116D01*
X147941958Y-97974116D02*
X147799101Y-98021735D01*
X147799101Y-98021735D02*
X147703863Y-98116973D01*
X147703863Y-98116973D02*
X147656244Y-98212211D01*
X147656244Y-98212211D02*
X147608625Y-98402687D01*
X147608625Y-98402687D02*
X147608625Y-98545544D01*
X147608625Y-98545544D02*
X147656244Y-98736020D01*
X147656244Y-98736020D02*
X147703863Y-98831258D01*
X147703863Y-98831258D02*
X147799101Y-98926497D01*
X147799101Y-98926497D02*
X147941958Y-98974116D01*
X147941958Y-98974116D02*
X148180053Y-98974116D01*
X146608625Y-98974116D02*
X146941958Y-98497925D01*
X147180053Y-98974116D02*
X147180053Y-97974116D01*
X147180053Y-97974116D02*
X146799101Y-97974116D01*
X146799101Y-97974116D02*
X146703863Y-98021735D01*
X146703863Y-98021735D02*
X146656244Y-98069354D01*
X146656244Y-98069354D02*
X146608625Y-98164592D01*
X146608625Y-98164592D02*
X146608625Y-98307449D01*
X146608625Y-98307449D02*
X146656244Y-98402687D01*
X146656244Y-98402687D02*
X146703863Y-98450306D01*
X146703863Y-98450306D02*
X146799101Y-98497925D01*
X146799101Y-98497925D02*
X147180053Y-98497925D01*
X144846720Y-98974116D02*
X145180053Y-98497925D01*
X145418148Y-98974116D02*
X145418148Y-97974116D01*
X145418148Y-97974116D02*
X145037196Y-97974116D01*
X145037196Y-97974116D02*
X144941958Y-98021735D01*
X144941958Y-98021735D02*
X144894339Y-98069354D01*
X144894339Y-98069354D02*
X144846720Y-98164592D01*
X144846720Y-98164592D02*
X144846720Y-98307449D01*
X144846720Y-98307449D02*
X144894339Y-98402687D01*
X144894339Y-98402687D02*
X144941958Y-98450306D01*
X144941958Y-98450306D02*
X145037196Y-98497925D01*
X145037196Y-98497925D02*
X145418148Y-98497925D01*
X144418148Y-98450306D02*
X144084815Y-98450306D01*
X143941958Y-98974116D02*
X144418148Y-98974116D01*
X144418148Y-98974116D02*
X144418148Y-97974116D01*
X144418148Y-97974116D02*
X143941958Y-97974116D01*
X143656243Y-97974116D02*
X143322910Y-98974116D01*
X143322910Y-98974116D02*
X142989577Y-97974116D01*
X141370529Y-98974116D02*
X141941957Y-98974116D01*
X141656243Y-98974116D02*
X141656243Y-97974116D01*
X141656243Y-97974116D02*
X141751481Y-98116973D01*
X141751481Y-98116973D02*
X141846719Y-98212211D01*
X141846719Y-98212211D02*
X141941957Y-98259830D01*
X140941957Y-98878877D02*
X140894338Y-98926497D01*
X140894338Y-98926497D02*
X140941957Y-98974116D01*
X140941957Y-98974116D02*
X140989576Y-98926497D01*
X140989576Y-98926497D02*
X140941957Y-98878877D01*
X140941957Y-98878877D02*
X140941957Y-98974116D01*
X140275291Y-97974116D02*
X140180053Y-97974116D01*
X140180053Y-97974116D02*
X140084815Y-98021735D01*
X140084815Y-98021735D02*
X140037196Y-98069354D01*
X140037196Y-98069354D02*
X139989577Y-98164592D01*
X139989577Y-98164592D02*
X139941958Y-98355068D01*
X139941958Y-98355068D02*
X139941958Y-98593163D01*
X139941958Y-98593163D02*
X139989577Y-98783639D01*
X139989577Y-98783639D02*
X140037196Y-98878877D01*
X140037196Y-98878877D02*
X140084815Y-98926497D01*
X140084815Y-98926497D02*
X140180053Y-98974116D01*
X140180053Y-98974116D02*
X140275291Y-98974116D01*
X140275291Y-98974116D02*
X140370529Y-98926497D01*
X140370529Y-98926497D02*
X140418148Y-98878877D01*
X140418148Y-98878877D02*
X140465767Y-98783639D01*
X140465767Y-98783639D02*
X140513386Y-98593163D01*
X140513386Y-98593163D02*
X140513386Y-98355068D01*
X140513386Y-98355068D02*
X140465767Y-98164592D01*
X140465767Y-98164592D02*
X140418148Y-98069354D01*
X140418148Y-98069354D02*
X140370529Y-98021735D01*
X140370529Y-98021735D02*
X140275291Y-97974116D01*
X138322910Y-98307449D02*
X138322910Y-98974116D01*
X138561005Y-97926497D02*
X138799100Y-98640782D01*
X138799100Y-98640782D02*
X138180053Y-98640782D01*
X137370529Y-98307449D02*
X137370529Y-98974116D01*
X137608624Y-97926497D02*
X137846719Y-98640782D01*
X137846719Y-98640782D02*
X137227672Y-98640782D01*
X136132434Y-97926497D02*
X136989576Y-99212211D01*
X135846719Y-98069354D02*
X135799100Y-98021735D01*
X135799100Y-98021735D02*
X135703862Y-97974116D01*
X135703862Y-97974116D02*
X135465767Y-97974116D01*
X135465767Y-97974116D02*
X135370529Y-98021735D01*
X135370529Y-98021735D02*
X135322910Y-98069354D01*
X135322910Y-98069354D02*
X135275291Y-98164592D01*
X135275291Y-98164592D02*
X135275291Y-98259830D01*
X135275291Y-98259830D02*
X135322910Y-98402687D01*
X135322910Y-98402687D02*
X135894338Y-98974116D01*
X135894338Y-98974116D02*
X135275291Y-98974116D01*
X134418148Y-98307449D02*
X134418148Y-98974116D01*
X134656243Y-97926497D02*
X134894338Y-98640782D01*
X134894338Y-98640782D02*
X134275291Y-98640782D01*
G36*
X172643840Y-119707138D02*
G01*
X172752990Y-119816288D01*
X172777025Y-119888391D01*
X172777025Y-119989475D01*
X172691758Y-120131587D01*
X172469371Y-120353974D01*
X172327260Y-120439241D01*
X172226175Y-120439241D01*
X172154072Y-120415206D01*
X172044922Y-120306056D01*
X172020888Y-120233952D01*
X172020888Y-120132868D01*
X172106154Y-119990757D01*
X172328541Y-119768370D01*
X172470654Y-119683104D01*
X172571737Y-119683104D01*
X172643840Y-119707138D01*
G37*
G36*
X173253536Y-119943321D02*
G01*
X172281106Y-120915751D01*
X171477036Y-120111680D01*
X171867888Y-120111680D01*
X171867888Y-120246367D01*
X171868632Y-120253921D01*
X171868489Y-120255936D01*
X171869091Y-120258585D01*
X171869358Y-120261291D01*
X171870130Y-120263156D01*
X171871814Y-120270559D01*
X171905486Y-120371573D01*
X171911600Y-120385267D01*
X171913401Y-120387343D01*
X171914453Y-120389883D01*
X171923966Y-120401476D01*
X172058653Y-120536163D01*
X172070246Y-120545676D01*
X172072785Y-120546727D01*
X172074862Y-120548529D01*
X172088555Y-120554643D01*
X172189570Y-120588315D01*
X172196972Y-120589998D01*
X172198838Y-120590771D01*
X172201543Y-120591037D01*
X172204193Y-120591640D01*
X172206207Y-120591496D01*
X172213762Y-120592241D01*
X172348449Y-120592241D01*
X172363373Y-120590771D01*
X172368628Y-120588594D01*
X172374254Y-120587757D01*
X172387808Y-120581339D01*
X172556166Y-120480325D01*
X172558268Y-120478763D01*
X172559309Y-120478333D01*
X172563673Y-120474751D01*
X172568207Y-120471386D01*
X172568877Y-120470481D01*
X172570902Y-120468820D01*
X172806604Y-120233118D01*
X172808265Y-120231093D01*
X172809169Y-120230424D01*
X172812532Y-120225892D01*
X172816117Y-120221525D01*
X172816548Y-120220484D01*
X172818108Y-120218383D01*
X172919123Y-120050024D01*
X172925541Y-120036471D01*
X172926378Y-120030844D01*
X172928555Y-120025589D01*
X172930025Y-120010665D01*
X172930025Y-119875978D01*
X172929280Y-119868423D01*
X172929424Y-119866409D01*
X172928821Y-119863759D01*
X172928555Y-119861054D01*
X172927782Y-119859188D01*
X172926099Y-119851786D01*
X172892427Y-119750771D01*
X172886313Y-119737078D01*
X172884511Y-119735001D01*
X172883460Y-119732462D01*
X172873947Y-119720869D01*
X172739260Y-119586182D01*
X172727667Y-119576669D01*
X172725127Y-119575617D01*
X172723051Y-119573816D01*
X172709357Y-119567702D01*
X172608343Y-119534030D01*
X172600940Y-119532346D01*
X172599075Y-119531574D01*
X172596369Y-119531307D01*
X172593720Y-119530705D01*
X172591705Y-119530848D01*
X172584151Y-119530104D01*
X172449464Y-119530104D01*
X172434540Y-119531574D01*
X172429284Y-119533750D01*
X172423658Y-119534588D01*
X172410105Y-119541006D01*
X172241746Y-119642021D01*
X172239644Y-119643580D01*
X172238604Y-119644012D01*
X172234236Y-119647596D01*
X172229705Y-119650960D01*
X172229035Y-119651863D01*
X172227011Y-119653525D01*
X171991309Y-119889227D01*
X171989647Y-119891251D01*
X171988743Y-119891922D01*
X171985377Y-119896455D01*
X171981796Y-119900820D01*
X171981365Y-119901860D01*
X171979804Y-119903963D01*
X171878790Y-120072321D01*
X171872372Y-120085875D01*
X171871534Y-120091500D01*
X171869358Y-120096756D01*
X171867888Y-120111680D01*
X171477036Y-120111680D01*
X171226410Y-119861054D01*
X171431625Y-119861054D01*
X171431625Y-119890902D01*
X171443048Y-119918479D01*
X171464154Y-119939585D01*
X171491731Y-119951008D01*
X171521579Y-119951008D01*
X171549156Y-119939585D01*
X171560749Y-119930072D01*
X172267855Y-119222965D01*
X172277369Y-119211373D01*
X172288791Y-119183795D01*
X172288791Y-119153947D01*
X172277369Y-119126370D01*
X172277369Y-119126369D01*
X172267855Y-119114777D01*
X171931138Y-118778060D01*
X171919545Y-118768547D01*
X171891968Y-118757124D01*
X171862120Y-118757124D01*
X171834543Y-118768547D01*
X171813437Y-118789653D01*
X171802014Y-118817230D01*
X171802014Y-118847078D01*
X171813437Y-118874655D01*
X171822950Y-118886248D01*
X172105574Y-119168871D01*
X171877044Y-119397401D01*
X171695436Y-119215792D01*
X171683843Y-119206279D01*
X171656266Y-119194856D01*
X171626418Y-119194856D01*
X171598841Y-119206279D01*
X171577735Y-119227385D01*
X171566312Y-119254962D01*
X171566312Y-119284810D01*
X171577735Y-119312387D01*
X171587248Y-119323980D01*
X171768856Y-119505589D01*
X171452561Y-119821884D01*
X171443048Y-119833477D01*
X171431625Y-119861054D01*
X171226410Y-119861054D01*
X170620318Y-119254962D01*
X170825534Y-119254962D01*
X170825534Y-119284810D01*
X170836957Y-119312387D01*
X170858063Y-119333493D01*
X170885640Y-119344916D01*
X170915488Y-119344916D01*
X170943065Y-119333493D01*
X170954658Y-119323980D01*
X171661764Y-118616872D01*
X171671272Y-118605285D01*
X171671277Y-118605281D01*
X171682700Y-118577703D01*
X171682700Y-118547855D01*
X171671277Y-118520278D01*
X171671277Y-118520277D01*
X171671272Y-118520272D01*
X171661764Y-118508686D01*
X171325047Y-118171968D01*
X171313454Y-118162455D01*
X171285877Y-118151032D01*
X171256029Y-118151032D01*
X171228452Y-118162455D01*
X171207346Y-118183561D01*
X171195923Y-118211138D01*
X171195923Y-118240986D01*
X171207346Y-118268563D01*
X171216859Y-118280156D01*
X171499482Y-118562779D01*
X171270953Y-118791309D01*
X171089345Y-118609701D01*
X171077752Y-118600188D01*
X171050175Y-118588765D01*
X171020327Y-118588765D01*
X170992750Y-118600188D01*
X170971644Y-118621294D01*
X170960221Y-118648871D01*
X170960221Y-118678719D01*
X170971644Y-118706296D01*
X170981157Y-118717889D01*
X171162765Y-118899497D01*
X170846470Y-119215792D01*
X170836957Y-119227385D01*
X170825534Y-119254962D01*
X170620318Y-119254962D01*
X170299564Y-118934208D01*
X171271993Y-117961779D01*
X173253536Y-119943321D01*
G37*
D11*
X162523282Y-78909888D02*
X162761377Y-78790840D01*
X162761377Y-78790840D02*
X163118520Y-78790840D01*
X163118520Y-78790840D02*
X163475663Y-78909888D01*
X163475663Y-78909888D02*
X163713758Y-79147983D01*
X163713758Y-79147983D02*
X163832805Y-79386078D01*
X163832805Y-79386078D02*
X163951853Y-79862269D01*
X163951853Y-79862269D02*
X163951853Y-80219412D01*
X163951853Y-80219412D02*
X163832805Y-80695602D01*
X163832805Y-80695602D02*
X163713758Y-80933697D01*
X163713758Y-80933697D02*
X163475663Y-81171793D01*
X163475663Y-81171793D02*
X163118520Y-81290840D01*
X163118520Y-81290840D02*
X162880424Y-81290840D01*
X162880424Y-81290840D02*
X162523282Y-81171793D01*
X162523282Y-81171793D02*
X162404234Y-81052745D01*
X162404234Y-81052745D02*
X162404234Y-80219412D01*
X162404234Y-80219412D02*
X162880424Y-80219412D01*
X160975663Y-81290840D02*
X161213758Y-81171793D01*
X161213758Y-81171793D02*
X161332805Y-80933697D01*
X161332805Y-80933697D02*
X161332805Y-78790840D01*
X160023281Y-79743221D02*
X159785186Y-79624173D01*
X159785186Y-79624173D02*
X159308996Y-79624173D01*
X159308996Y-79624173D02*
X159070900Y-79743221D01*
X159070900Y-79743221D02*
X158951853Y-79981316D01*
X157880424Y-81171793D02*
X158118520Y-81290840D01*
X158118520Y-81290840D02*
X158594710Y-81290840D01*
X158594710Y-81290840D02*
X158832805Y-81171793D01*
X158832805Y-81171793D02*
X158951853Y-80933697D01*
X158951853Y-80933697D02*
X158951853Y-79981316D01*
X158951853Y-79981316D02*
X158832805Y-79743221D01*
X158832805Y-79743221D02*
X158594710Y-79624173D01*
X158594710Y-79624173D02*
X158118520Y-79624173D01*
X158118520Y-79624173D02*
X157880424Y-79743221D01*
X157880424Y-79743221D02*
X157761377Y-79981316D01*
X157761377Y-79981316D02*
X157761377Y-80219412D01*
X157761377Y-80219412D02*
X158951853Y-80338459D01*
X158951853Y-80338459D02*
X159785186Y-80338459D01*
X159785186Y-80338459D02*
X160023281Y-80457507D01*
X160023281Y-80457507D02*
X160142329Y-80695602D01*
X160142329Y-80695602D02*
X160142329Y-80933697D01*
X160142329Y-80933697D02*
X160023281Y-81171793D01*
X160023281Y-81171793D02*
X159785186Y-81290840D01*
X159785186Y-81290840D02*
X159308996Y-81290840D01*
X159308996Y-81290840D02*
X159070900Y-81171793D01*
X159070900Y-81171793D02*
X158951853Y-80933697D01*
X155618520Y-81290840D02*
X155618520Y-78790840D01*
X155618520Y-81171793D02*
X155856615Y-81290840D01*
X155856615Y-81290840D02*
X156332806Y-81290840D01*
X156332806Y-81290840D02*
X156570901Y-81171793D01*
X156570901Y-81171793D02*
X156689948Y-81052745D01*
X156689948Y-81052745D02*
X156808996Y-80814650D01*
X156808996Y-80814650D02*
X156808996Y-80100364D01*
X156808996Y-80100364D02*
X156689948Y-79862269D01*
X156689948Y-79862269D02*
X156570901Y-79743221D01*
X156570901Y-79743221D02*
X156332806Y-79624173D01*
X156332806Y-79624173D02*
X155856615Y-79624173D01*
X155856615Y-79624173D02*
X155618520Y-79743221D01*
X153475662Y-81171793D02*
X153713758Y-81290840D01*
X153713758Y-81290840D02*
X154189948Y-81290840D01*
X154189948Y-81290840D02*
X154428043Y-81171793D01*
X154428043Y-81171793D02*
X154547091Y-80933697D01*
X154547091Y-80933697D02*
X154547091Y-79981316D01*
X154547091Y-79981316D02*
X154428043Y-79743221D01*
X154428043Y-79743221D02*
X154189948Y-79624173D01*
X154189948Y-79624173D02*
X153713758Y-79624173D01*
X153713758Y-79624173D02*
X153475662Y-79743221D01*
X153475662Y-79743221D02*
X153356615Y-79981316D01*
X153356615Y-79981316D02*
X153356615Y-80219412D01*
X153356615Y-80219412D02*
X154547091Y-80457507D01*
X151928044Y-81290840D02*
X152166139Y-81171793D01*
X152166139Y-81171793D02*
X152285186Y-80933697D01*
X152285186Y-80933697D02*
X152285186Y-78790840D01*
X150975662Y-81290840D02*
X150975662Y-79624173D01*
X150975662Y-78790840D02*
X151094710Y-78909888D01*
X151094710Y-78909888D02*
X150975662Y-79028935D01*
X150975662Y-79028935D02*
X150856615Y-78909888D01*
X150856615Y-78909888D02*
X150975662Y-78790840D01*
X150975662Y-78790840D02*
X150975662Y-79028935D01*
X148713758Y-79624173D02*
X148713758Y-81647983D01*
X148713758Y-81647983D02*
X148832805Y-81886078D01*
X148832805Y-81886078D02*
X148951853Y-82005126D01*
X148951853Y-82005126D02*
X149189948Y-82124173D01*
X149189948Y-82124173D02*
X149547091Y-82124173D01*
X149547091Y-82124173D02*
X149785186Y-82005126D01*
X148713758Y-81171793D02*
X148951853Y-81290840D01*
X148951853Y-81290840D02*
X149428044Y-81290840D01*
X149428044Y-81290840D02*
X149666139Y-81171793D01*
X149666139Y-81171793D02*
X149785186Y-81052745D01*
X149785186Y-81052745D02*
X149904234Y-80814650D01*
X149904234Y-80814650D02*
X149904234Y-80100364D01*
X149904234Y-80100364D02*
X149785186Y-79862269D01*
X149785186Y-79862269D02*
X149666139Y-79743221D01*
X149666139Y-79743221D02*
X149428044Y-79624173D01*
X149428044Y-79624173D02*
X148951853Y-79624173D01*
X148951853Y-79624173D02*
X148713758Y-79743221D01*
X144904234Y-78790840D02*
X144904234Y-80576554D01*
X144904234Y-80576554D02*
X145023281Y-80933697D01*
X145023281Y-80933697D02*
X145261377Y-81171793D01*
X145261377Y-81171793D02*
X145618519Y-81290840D01*
X145618519Y-81290840D02*
X145856615Y-81290840D01*
X142642329Y-79624173D02*
X142642329Y-81290840D01*
X143713757Y-79624173D02*
X143713757Y-80933697D01*
X143713757Y-80933697D02*
X143594710Y-81171793D01*
X143594710Y-81171793D02*
X143356615Y-81290840D01*
X143356615Y-81290840D02*
X142999472Y-81290840D01*
X142999472Y-81290840D02*
X142761376Y-81171793D01*
X142761376Y-81171793D02*
X142642329Y-81052745D01*
X141094710Y-81290840D02*
X141332805Y-81171793D01*
X141332805Y-81171793D02*
X141451852Y-80933697D01*
X141451852Y-80933697D02*
X141451852Y-78790840D01*
X156868519Y-83053795D02*
X156749471Y-82934748D01*
X156749471Y-82934748D02*
X156511376Y-82815700D01*
X156511376Y-82815700D02*
X155916138Y-82815700D01*
X155916138Y-82815700D02*
X155678043Y-82934748D01*
X155678043Y-82934748D02*
X155558995Y-83053795D01*
X155558995Y-83053795D02*
X155439948Y-83291891D01*
X155439948Y-83291891D02*
X155439948Y-83529986D01*
X155439948Y-83529986D02*
X155558995Y-83887129D01*
X155558995Y-83887129D02*
X156987567Y-85315700D01*
X156987567Y-85315700D02*
X155439948Y-85315700D01*
X153892329Y-82815700D02*
X153654234Y-82815700D01*
X153654234Y-82815700D02*
X153416138Y-82934748D01*
X153416138Y-82934748D02*
X153297091Y-83053795D01*
X153297091Y-83053795D02*
X153178043Y-83291891D01*
X153178043Y-83291891D02*
X153058996Y-83768081D01*
X153058996Y-83768081D02*
X153058996Y-84363319D01*
X153058996Y-84363319D02*
X153178043Y-84839510D01*
X153178043Y-84839510D02*
X153297091Y-85077605D01*
X153297091Y-85077605D02*
X153416138Y-85196653D01*
X153416138Y-85196653D02*
X153654234Y-85315700D01*
X153654234Y-85315700D02*
X153892329Y-85315700D01*
X153892329Y-85315700D02*
X154130424Y-85196653D01*
X154130424Y-85196653D02*
X154249472Y-85077605D01*
X154249472Y-85077605D02*
X154368519Y-84839510D01*
X154368519Y-84839510D02*
X154487567Y-84363319D01*
X154487567Y-84363319D02*
X154487567Y-83768081D01*
X154487567Y-83768081D02*
X154368519Y-83291891D01*
X154368519Y-83291891D02*
X154249472Y-83053795D01*
X154249472Y-83053795D02*
X154130424Y-82934748D01*
X154130424Y-82934748D02*
X153892329Y-82815700D01*
X152106615Y-83053795D02*
X151987567Y-82934748D01*
X151987567Y-82934748D02*
X151749472Y-82815700D01*
X151749472Y-82815700D02*
X151154234Y-82815700D01*
X151154234Y-82815700D02*
X150916139Y-82934748D01*
X150916139Y-82934748D02*
X150797091Y-83053795D01*
X150797091Y-83053795D02*
X150678044Y-83291891D01*
X150678044Y-83291891D02*
X150678044Y-83529986D01*
X150678044Y-83529986D02*
X150797091Y-83887129D01*
X150797091Y-83887129D02*
X152225663Y-85315700D01*
X152225663Y-85315700D02*
X150678044Y-85315700D01*
X148535187Y-83649033D02*
X148535187Y-85315700D01*
X149130425Y-82696653D02*
X149725663Y-84482367D01*
X149725663Y-84482367D02*
X148178044Y-84482367D01*
D10*
X146930615Y-97019116D02*
X146930615Y-96019116D01*
X146930615Y-96971497D02*
X147025853Y-97019116D01*
X147025853Y-97019116D02*
X147216329Y-97019116D01*
X147216329Y-97019116D02*
X147311567Y-96971497D01*
X147311567Y-96971497D02*
X147359186Y-96923877D01*
X147359186Y-96923877D02*
X147406805Y-96828639D01*
X147406805Y-96828639D02*
X147406805Y-96542925D01*
X147406805Y-96542925D02*
X147359186Y-96447687D01*
X147359186Y-96447687D02*
X147311567Y-96400068D01*
X147311567Y-96400068D02*
X147216329Y-96352449D01*
X147216329Y-96352449D02*
X147025853Y-96352449D01*
X147025853Y-96352449D02*
X146930615Y-96400068D01*
X146025853Y-97019116D02*
X146025853Y-96495306D01*
X146025853Y-96495306D02*
X146073472Y-96400068D01*
X146073472Y-96400068D02*
X146168710Y-96352449D01*
X146168710Y-96352449D02*
X146359186Y-96352449D01*
X146359186Y-96352449D02*
X146454424Y-96400068D01*
X146025853Y-96971497D02*
X146121091Y-97019116D01*
X146121091Y-97019116D02*
X146359186Y-97019116D01*
X146359186Y-97019116D02*
X146454424Y-96971497D01*
X146454424Y-96971497D02*
X146502043Y-96876258D01*
X146502043Y-96876258D02*
X146502043Y-96781020D01*
X146502043Y-96781020D02*
X146454424Y-96685782D01*
X146454424Y-96685782D02*
X146359186Y-96638163D01*
X146359186Y-96638163D02*
X146121091Y-96638163D01*
X146121091Y-96638163D02*
X146025853Y-96590544D01*
X145549662Y-96352449D02*
X145549662Y-97019116D01*
X145549662Y-96447687D02*
X145502043Y-96400068D01*
X145502043Y-96400068D02*
X145406805Y-96352449D01*
X145406805Y-96352449D02*
X145263948Y-96352449D01*
X145263948Y-96352449D02*
X145168710Y-96400068D01*
X145168710Y-96400068D02*
X145121091Y-96495306D01*
X145121091Y-96495306D02*
X145121091Y-97019116D01*
X144644900Y-96352449D02*
X144644900Y-97019116D01*
X144644900Y-96447687D02*
X144597281Y-96400068D01*
X144597281Y-96400068D02*
X144502043Y-96352449D01*
X144502043Y-96352449D02*
X144359186Y-96352449D01*
X144359186Y-96352449D02*
X144263948Y-96400068D01*
X144263948Y-96400068D02*
X144216329Y-96495306D01*
X144216329Y-96495306D02*
X144216329Y-97019116D01*
X143740138Y-97019116D02*
X143740138Y-96352449D01*
X143740138Y-96019116D02*
X143787757Y-96066735D01*
X143787757Y-96066735D02*
X143740138Y-96114354D01*
X143740138Y-96114354D02*
X143692519Y-96066735D01*
X143692519Y-96066735D02*
X143740138Y-96019116D01*
X143740138Y-96019116D02*
X143740138Y-96114354D01*
X143263948Y-97019116D02*
X143263948Y-96352449D01*
X143263948Y-96542925D02*
X143216329Y-96447687D01*
X143216329Y-96447687D02*
X143168710Y-96400068D01*
X143168710Y-96400068D02*
X143073472Y-96352449D01*
X143073472Y-96352449D02*
X142978234Y-96352449D01*
X142216329Y-97019116D02*
X142216329Y-96495306D01*
X142216329Y-96495306D02*
X142263948Y-96400068D01*
X142263948Y-96400068D02*
X142359186Y-96352449D01*
X142359186Y-96352449D02*
X142549662Y-96352449D01*
X142549662Y-96352449D02*
X142644900Y-96400068D01*
X142216329Y-96971497D02*
X142311567Y-97019116D01*
X142311567Y-97019116D02*
X142549662Y-97019116D01*
X142549662Y-97019116D02*
X142644900Y-96971497D01*
X142644900Y-96971497D02*
X142692519Y-96876258D01*
X142692519Y-96876258D02*
X142692519Y-96781020D01*
X142692519Y-96781020D02*
X142644900Y-96685782D01*
X142644900Y-96685782D02*
X142549662Y-96638163D01*
X142549662Y-96638163D02*
X142311567Y-96638163D01*
X142311567Y-96638163D02*
X142216329Y-96590544D01*
X141740138Y-96352449D02*
X141740138Y-97019116D01*
X141740138Y-96447687D02*
X141692519Y-96400068D01*
X141692519Y-96400068D02*
X141597281Y-96352449D01*
X141597281Y-96352449D02*
X141454424Y-96352449D01*
X141454424Y-96352449D02*
X141359186Y-96400068D01*
X141359186Y-96400068D02*
X141311567Y-96495306D01*
X141311567Y-96495306D02*
X141311567Y-97019116D01*
X140406805Y-97019116D02*
X140406805Y-96019116D01*
X140406805Y-96971497D02*
X140502043Y-97019116D01*
X140502043Y-97019116D02*
X140692519Y-97019116D01*
X140692519Y-97019116D02*
X140787757Y-96971497D01*
X140787757Y-96971497D02*
X140835376Y-96923877D01*
X140835376Y-96923877D02*
X140882995Y-96828639D01*
X140882995Y-96828639D02*
X140882995Y-96542925D01*
X140882995Y-96542925D02*
X140835376Y-96447687D01*
X140835376Y-96447687D02*
X140787757Y-96400068D01*
X140787757Y-96400068D02*
X140692519Y-96352449D01*
X140692519Y-96352449D02*
X140502043Y-96352449D01*
X140502043Y-96352449D02*
X140406805Y-96400068D01*
X139549662Y-96971497D02*
X139644900Y-97019116D01*
X139644900Y-97019116D02*
X139835376Y-97019116D01*
X139835376Y-97019116D02*
X139930614Y-96971497D01*
X139930614Y-96971497D02*
X139978233Y-96876258D01*
X139978233Y-96876258D02*
X139978233Y-96495306D01*
X139978233Y-96495306D02*
X139930614Y-96400068D01*
X139930614Y-96400068D02*
X139835376Y-96352449D01*
X139835376Y-96352449D02*
X139644900Y-96352449D01*
X139644900Y-96352449D02*
X139549662Y-96400068D01*
X139549662Y-96400068D02*
X139502043Y-96495306D01*
X139502043Y-96495306D02*
X139502043Y-96590544D01*
X139502043Y-96590544D02*
X139978233Y-96685782D01*
X139073471Y-97019116D02*
X139073471Y-96352449D01*
X139073471Y-96542925D02*
X139025852Y-96447687D01*
X139025852Y-96447687D02*
X138978233Y-96400068D01*
X138978233Y-96400068D02*
X138882995Y-96352449D01*
X138882995Y-96352449D02*
X138787757Y-96352449D01*
X138454423Y-97019116D02*
X138454423Y-96352449D01*
X138454423Y-96019116D02*
X138502042Y-96066735D01*
X138502042Y-96066735D02*
X138454423Y-96114354D01*
X138454423Y-96114354D02*
X138406804Y-96066735D01*
X138406804Y-96066735D02*
X138454423Y-96019116D01*
X138454423Y-96019116D02*
X138454423Y-96114354D01*
X138025852Y-96971497D02*
X137930614Y-97019116D01*
X137930614Y-97019116D02*
X137740138Y-97019116D01*
X137740138Y-97019116D02*
X137644900Y-96971497D01*
X137644900Y-96971497D02*
X137597281Y-96876258D01*
X137597281Y-96876258D02*
X137597281Y-96828639D01*
X137597281Y-96828639D02*
X137644900Y-96733401D01*
X137644900Y-96733401D02*
X137740138Y-96685782D01*
X137740138Y-96685782D02*
X137882995Y-96685782D01*
X137882995Y-96685782D02*
X137978233Y-96638163D01*
X137978233Y-96638163D02*
X138025852Y-96542925D01*
X138025852Y-96542925D02*
X138025852Y-96495306D01*
X138025852Y-96495306D02*
X137978233Y-96400068D01*
X137978233Y-96400068D02*
X137882995Y-96352449D01*
X137882995Y-96352449D02*
X137740138Y-96352449D01*
X137740138Y-96352449D02*
X137644900Y-96400068D01*
X137168709Y-96923877D02*
X137121090Y-96971497D01*
X137121090Y-96971497D02*
X137168709Y-97019116D01*
X137168709Y-97019116D02*
X137216328Y-96971497D01*
X137216328Y-96971497D02*
X137168709Y-96923877D01*
X137168709Y-96923877D02*
X137168709Y-97019116D01*
X136263948Y-97019116D02*
X136263948Y-96019116D01*
X136263948Y-96971497D02*
X136359186Y-97019116D01*
X136359186Y-97019116D02*
X136549662Y-97019116D01*
X136549662Y-97019116D02*
X136644900Y-96971497D01*
X136644900Y-96971497D02*
X136692519Y-96923877D01*
X136692519Y-96923877D02*
X136740138Y-96828639D01*
X136740138Y-96828639D02*
X136740138Y-96542925D01*
X136740138Y-96542925D02*
X136692519Y-96447687D01*
X136692519Y-96447687D02*
X136644900Y-96400068D01*
X136644900Y-96400068D02*
X136549662Y-96352449D01*
X136549662Y-96352449D02*
X136359186Y-96352449D01*
X136359186Y-96352449D02*
X136263948Y-96400068D01*
X135787757Y-97019116D02*
X135787757Y-96019116D01*
X135692519Y-96638163D02*
X135406805Y-97019116D01*
X135406805Y-96352449D02*
X135787757Y-96733401D01*
X181289938Y-77384116D02*
X181289938Y-76384116D01*
X180861367Y-77336497D02*
X180718510Y-77384116D01*
X180718510Y-77384116D02*
X180480415Y-77384116D01*
X180480415Y-77384116D02*
X180385177Y-77336497D01*
X180385177Y-77336497D02*
X180337558Y-77288877D01*
X180337558Y-77288877D02*
X180289939Y-77193639D01*
X180289939Y-77193639D02*
X180289939Y-77098401D01*
X180289939Y-77098401D02*
X180337558Y-77003163D01*
X180337558Y-77003163D02*
X180385177Y-76955544D01*
X180385177Y-76955544D02*
X180480415Y-76907925D01*
X180480415Y-76907925D02*
X180670891Y-76860306D01*
X180670891Y-76860306D02*
X180766129Y-76812687D01*
X180766129Y-76812687D02*
X180813748Y-76765068D01*
X180813748Y-76765068D02*
X180861367Y-76669830D01*
X180861367Y-76669830D02*
X180861367Y-76574592D01*
X180861367Y-76574592D02*
X180813748Y-76479354D01*
X180813748Y-76479354D02*
X180766129Y-76431735D01*
X180766129Y-76431735D02*
X180670891Y-76384116D01*
X180670891Y-76384116D02*
X180432796Y-76384116D01*
X180432796Y-76384116D02*
X180289939Y-76431735D01*
X179861367Y-77384116D02*
X179861367Y-76384116D01*
X179861367Y-76384116D02*
X179480415Y-76384116D01*
X179480415Y-76384116D02*
X179385177Y-76431735D01*
X179385177Y-76431735D02*
X179337558Y-76479354D01*
X179337558Y-76479354D02*
X179289939Y-76574592D01*
X179289939Y-76574592D02*
X179289939Y-76717449D01*
X179289939Y-76717449D02*
X179337558Y-76812687D01*
X179337558Y-76812687D02*
X179385177Y-76860306D01*
X179385177Y-76860306D02*
X179480415Y-76907925D01*
X179480415Y-76907925D02*
X179861367Y-76907925D01*
G36*
X180263840Y-112087138D02*
G01*
X180372990Y-112196288D01*
X180397025Y-112268391D01*
X180397025Y-112369475D01*
X180311758Y-112511587D01*
X180089371Y-112733974D01*
X179947260Y-112819241D01*
X179846175Y-112819241D01*
X179774072Y-112795206D01*
X179664922Y-112686056D01*
X179640888Y-112613952D01*
X179640888Y-112512868D01*
X179726154Y-112370757D01*
X179948541Y-112148370D01*
X180090654Y-112063104D01*
X180191737Y-112063104D01*
X180263840Y-112087138D01*
G37*
G36*
X180873535Y-112323322D02*
G01*
X179901106Y-113295751D01*
X179097036Y-112491680D01*
X179487888Y-112491680D01*
X179487888Y-112626367D01*
X179488632Y-112633921D01*
X179488489Y-112635936D01*
X179489091Y-112638585D01*
X179489358Y-112641291D01*
X179490130Y-112643156D01*
X179491814Y-112650559D01*
X179525486Y-112751573D01*
X179531600Y-112765267D01*
X179533401Y-112767343D01*
X179534453Y-112769883D01*
X179543966Y-112781476D01*
X179678653Y-112916163D01*
X179690246Y-112925676D01*
X179692785Y-112926727D01*
X179694862Y-112928529D01*
X179708555Y-112934643D01*
X179809570Y-112968315D01*
X179816972Y-112969998D01*
X179818838Y-112970771D01*
X179821543Y-112971037D01*
X179824193Y-112971640D01*
X179826207Y-112971496D01*
X179833762Y-112972241D01*
X179968449Y-112972241D01*
X179983373Y-112970771D01*
X179988628Y-112968594D01*
X179994254Y-112967757D01*
X180007808Y-112961339D01*
X180176166Y-112860325D01*
X180178268Y-112858763D01*
X180179309Y-112858333D01*
X180183673Y-112854751D01*
X180188207Y-112851386D01*
X180188877Y-112850481D01*
X180190902Y-112848820D01*
X180426604Y-112613118D01*
X180428265Y-112611093D01*
X180429169Y-112610424D01*
X180432532Y-112605892D01*
X180436117Y-112601525D01*
X180436548Y-112600484D01*
X180438108Y-112598383D01*
X180539123Y-112430024D01*
X180545541Y-112416471D01*
X180546378Y-112410844D01*
X180548555Y-112405589D01*
X180550025Y-112390665D01*
X180550025Y-112255978D01*
X180549280Y-112248423D01*
X180549424Y-112246409D01*
X180548821Y-112243759D01*
X180548555Y-112241054D01*
X180547782Y-112239188D01*
X180546099Y-112231786D01*
X180512427Y-112130771D01*
X180506313Y-112117078D01*
X180504511Y-112115001D01*
X180503460Y-112112462D01*
X180493947Y-112100869D01*
X180359260Y-111966182D01*
X180347667Y-111956669D01*
X180345127Y-111955617D01*
X180343051Y-111953816D01*
X180329357Y-111947702D01*
X180228343Y-111914030D01*
X180220940Y-111912346D01*
X180219075Y-111911574D01*
X180216369Y-111911307D01*
X180213720Y-111910705D01*
X180211705Y-111910848D01*
X180204151Y-111910104D01*
X180069464Y-111910104D01*
X180054540Y-111911574D01*
X180049284Y-111913750D01*
X180043658Y-111914588D01*
X180030105Y-111921006D01*
X179861746Y-112022021D01*
X179859644Y-112023580D01*
X179858604Y-112024012D01*
X179854236Y-112027596D01*
X179849705Y-112030960D01*
X179849035Y-112031863D01*
X179847011Y-112033525D01*
X179611309Y-112269227D01*
X179609647Y-112271251D01*
X179608743Y-112271922D01*
X179605377Y-112276455D01*
X179601796Y-112280820D01*
X179601365Y-112281860D01*
X179599804Y-112283963D01*
X179498790Y-112452321D01*
X179492372Y-112465875D01*
X179491534Y-112471500D01*
X179489358Y-112476756D01*
X179487888Y-112491680D01*
X179097036Y-112491680D01*
X178462617Y-111857261D01*
X178646281Y-111857261D01*
X178647564Y-111861965D01*
X178647564Y-111866841D01*
X178651457Y-111876241D01*
X178654135Y-111886057D01*
X178657120Y-111889912D01*
X178658987Y-111894418D01*
X178666180Y-111901611D01*
X178672411Y-111909657D01*
X178676645Y-111912076D01*
X178680093Y-111915524D01*
X178689494Y-111919418D01*
X178698327Y-111924465D01*
X178703162Y-111925079D01*
X178707670Y-111926947D01*
X178717847Y-111926947D01*
X178727938Y-111928230D01*
X178735498Y-111926947D01*
X178737518Y-111926947D01*
X178738920Y-111926366D01*
X178742722Y-111925721D01*
X179575974Y-111698470D01*
X179072561Y-112201884D01*
X179063048Y-112213477D01*
X179051625Y-112241054D01*
X179051625Y-112270902D01*
X179063048Y-112298479D01*
X179084154Y-112319585D01*
X179111731Y-112331008D01*
X179141579Y-112331008D01*
X179169156Y-112319585D01*
X179180749Y-112310072D01*
X179887855Y-111602965D01*
X179890304Y-111599980D01*
X179891501Y-111599054D01*
X179892500Y-111597304D01*
X179897369Y-111591373D01*
X179901264Y-111581968D01*
X179906310Y-111573138D01*
X179906925Y-111568299D01*
X179908791Y-111563795D01*
X179908791Y-111553626D01*
X179910075Y-111543528D01*
X179908791Y-111538820D01*
X179908791Y-111533947D01*
X179904899Y-111524550D01*
X179902221Y-111514731D01*
X179899235Y-111510875D01*
X179897369Y-111506370D01*
X179890173Y-111499174D01*
X179883945Y-111491132D01*
X179879712Y-111488713D01*
X179876263Y-111485264D01*
X179866861Y-111481369D01*
X179858029Y-111476323D01*
X179853190Y-111475707D01*
X179848686Y-111473842D01*
X179838516Y-111473842D01*
X179828418Y-111472558D01*
X179820852Y-111473842D01*
X179818838Y-111473842D01*
X179817440Y-111474420D01*
X179813633Y-111475067D01*
X178980380Y-111702317D01*
X179483794Y-111198904D01*
X179493308Y-111187312D01*
X179504730Y-111159734D01*
X179504730Y-111129886D01*
X179493308Y-111102309D01*
X179472202Y-111081203D01*
X179444625Y-111069781D01*
X179414777Y-111069781D01*
X179387199Y-111081203D01*
X179375607Y-111090717D01*
X178668500Y-111797823D01*
X178666051Y-111800806D01*
X178664854Y-111801734D01*
X178663852Y-111803486D01*
X178658987Y-111809416D01*
X178655092Y-111818817D01*
X178650046Y-111827650D01*
X178649431Y-111832485D01*
X178647564Y-111836993D01*
X178647564Y-111847170D01*
X178646281Y-111857261D01*
X178462617Y-111857261D01*
X178457272Y-111851916D01*
X179429701Y-110879488D01*
X180873535Y-112323322D01*
G37*
X155228625Y-124954933D02*
X155276244Y-125002553D01*
X155276244Y-125002553D02*
X155419101Y-125050172D01*
X155419101Y-125050172D02*
X155514339Y-125050172D01*
X155514339Y-125050172D02*
X155657196Y-125002553D01*
X155657196Y-125002553D02*
X155752434Y-124907314D01*
X155752434Y-124907314D02*
X155800053Y-124812076D01*
X155800053Y-124812076D02*
X155847672Y-124621600D01*
X155847672Y-124621600D02*
X155847672Y-124478743D01*
X155847672Y-124478743D02*
X155800053Y-124288267D01*
X155800053Y-124288267D02*
X155752434Y-124193029D01*
X155752434Y-124193029D02*
X155657196Y-124097791D01*
X155657196Y-124097791D02*
X155514339Y-124050172D01*
X155514339Y-124050172D02*
X155419101Y-124050172D01*
X155419101Y-124050172D02*
X155276244Y-124097791D01*
X155276244Y-124097791D02*
X155228625Y-124145410D01*
X154228625Y-125050172D02*
X154561958Y-124573981D01*
X154800053Y-125050172D02*
X154800053Y-124050172D01*
X154800053Y-124050172D02*
X154419101Y-124050172D01*
X154419101Y-124050172D02*
X154323863Y-124097791D01*
X154323863Y-124097791D02*
X154276244Y-124145410D01*
X154276244Y-124145410D02*
X154228625Y-124240648D01*
X154228625Y-124240648D02*
X154228625Y-124383505D01*
X154228625Y-124383505D02*
X154276244Y-124478743D01*
X154276244Y-124478743D02*
X154323863Y-124526362D01*
X154323863Y-124526362D02*
X154419101Y-124573981D01*
X154419101Y-124573981D02*
X154800053Y-124573981D01*
X153847672Y-124145410D02*
X153800053Y-124097791D01*
X153800053Y-124097791D02*
X153704815Y-124050172D01*
X153704815Y-124050172D02*
X153466720Y-124050172D01*
X153466720Y-124050172D02*
X153371482Y-124097791D01*
X153371482Y-124097791D02*
X153323863Y-124145410D01*
X153323863Y-124145410D02*
X153276244Y-124240648D01*
X153276244Y-124240648D02*
X153276244Y-124335886D01*
X153276244Y-124335886D02*
X153323863Y-124478743D01*
X153323863Y-124478743D02*
X153895291Y-125050172D01*
X153895291Y-125050172D02*
X153276244Y-125050172D01*
X152657196Y-124050172D02*
X152561958Y-124050172D01*
X152561958Y-124050172D02*
X152466720Y-124097791D01*
X152466720Y-124097791D02*
X152419101Y-124145410D01*
X152419101Y-124145410D02*
X152371482Y-124240648D01*
X152371482Y-124240648D02*
X152323863Y-124431124D01*
X152323863Y-124431124D02*
X152323863Y-124669219D01*
X152323863Y-124669219D02*
X152371482Y-124859695D01*
X152371482Y-124859695D02*
X152419101Y-124954933D01*
X152419101Y-124954933D02*
X152466720Y-125002553D01*
X152466720Y-125002553D02*
X152561958Y-125050172D01*
X152561958Y-125050172D02*
X152657196Y-125050172D01*
X152657196Y-125050172D02*
X152752434Y-125002553D01*
X152752434Y-125002553D02*
X152800053Y-124954933D01*
X152800053Y-124954933D02*
X152847672Y-124859695D01*
X152847672Y-124859695D02*
X152895291Y-124669219D01*
X152895291Y-124669219D02*
X152895291Y-124431124D01*
X152895291Y-124431124D02*
X152847672Y-124240648D01*
X152847672Y-124240648D02*
X152800053Y-124145410D01*
X152800053Y-124145410D02*
X152752434Y-124097791D01*
X152752434Y-124097791D02*
X152657196Y-124050172D01*
X151990529Y-124050172D02*
X151371482Y-124050172D01*
X151371482Y-124050172D02*
X151704815Y-124431124D01*
X151704815Y-124431124D02*
X151561958Y-124431124D01*
X151561958Y-124431124D02*
X151466720Y-124478743D01*
X151466720Y-124478743D02*
X151419101Y-124526362D01*
X151419101Y-124526362D02*
X151371482Y-124621600D01*
X151371482Y-124621600D02*
X151371482Y-124859695D01*
X151371482Y-124859695D02*
X151419101Y-124954933D01*
X151419101Y-124954933D02*
X151466720Y-125002553D01*
X151466720Y-125002553D02*
X151561958Y-125050172D01*
X151561958Y-125050172D02*
X151847672Y-125050172D01*
X151847672Y-125050172D02*
X151942910Y-125002553D01*
X151942910Y-125002553D02*
X151990529Y-124954933D01*
X150990529Y-124145410D02*
X150942910Y-124097791D01*
X150942910Y-124097791D02*
X150847672Y-124050172D01*
X150847672Y-124050172D02*
X150609577Y-124050172D01*
X150609577Y-124050172D02*
X150514339Y-124097791D01*
X150514339Y-124097791D02*
X150466720Y-124145410D01*
X150466720Y-124145410D02*
X150419101Y-124240648D01*
X150419101Y-124240648D02*
X150419101Y-124335886D01*
X150419101Y-124335886D02*
X150466720Y-124478743D01*
X150466720Y-124478743D02*
X151038148Y-125050172D01*
X151038148Y-125050172D02*
X150419101Y-125050172D01*
X149323862Y-124050172D02*
X148704815Y-124050172D01*
X148704815Y-124050172D02*
X149038148Y-124431124D01*
X149038148Y-124431124D02*
X148895291Y-124431124D01*
X148895291Y-124431124D02*
X148800053Y-124478743D01*
X148800053Y-124478743D02*
X148752434Y-124526362D01*
X148752434Y-124526362D02*
X148704815Y-124621600D01*
X148704815Y-124621600D02*
X148704815Y-124859695D01*
X148704815Y-124859695D02*
X148752434Y-124954933D01*
X148752434Y-124954933D02*
X148800053Y-125002553D01*
X148800053Y-125002553D02*
X148895291Y-125050172D01*
X148895291Y-125050172D02*
X149181005Y-125050172D01*
X149181005Y-125050172D02*
X149276243Y-125002553D01*
X149276243Y-125002553D02*
X149323862Y-124954933D01*
X148419100Y-124050172D02*
X148085767Y-125050172D01*
X148085767Y-125050172D02*
X147752434Y-124050172D01*
X155800053Y-126279163D02*
X155038149Y-126279163D01*
X155419101Y-126660116D02*
X155419101Y-125898211D01*
X153800053Y-125660116D02*
X153800053Y-126469639D01*
X153800053Y-126469639D02*
X153752434Y-126564877D01*
X153752434Y-126564877D02*
X153704815Y-126612497D01*
X153704815Y-126612497D02*
X153609577Y-126660116D01*
X153609577Y-126660116D02*
X153419101Y-126660116D01*
X153419101Y-126660116D02*
X153323863Y-126612497D01*
X153323863Y-126612497D02*
X153276244Y-126564877D01*
X153276244Y-126564877D02*
X153228625Y-126469639D01*
X153228625Y-126469639D02*
X153228625Y-125660116D01*
X152752434Y-126660116D02*
X152752434Y-125660116D01*
X152752434Y-125660116D02*
X152371482Y-125660116D01*
X152371482Y-125660116D02*
X152276244Y-125707735D01*
X152276244Y-125707735D02*
X152228625Y-125755354D01*
X152228625Y-125755354D02*
X152181006Y-125850592D01*
X152181006Y-125850592D02*
X152181006Y-125993449D01*
X152181006Y-125993449D02*
X152228625Y-126088687D01*
X152228625Y-126088687D02*
X152276244Y-126136306D01*
X152276244Y-126136306D02*
X152371482Y-126183925D01*
X152371482Y-126183925D02*
X152752434Y-126183925D01*
X147129663Y-86351116D02*
X147462996Y-85874925D01*
X147701091Y-86351116D02*
X147701091Y-85351116D01*
X147701091Y-85351116D02*
X147320139Y-85351116D01*
X147320139Y-85351116D02*
X147224901Y-85398735D01*
X147224901Y-85398735D02*
X147177282Y-85446354D01*
X147177282Y-85446354D02*
X147129663Y-85541592D01*
X147129663Y-85541592D02*
X147129663Y-85684449D01*
X147129663Y-85684449D02*
X147177282Y-85779687D01*
X147177282Y-85779687D02*
X147224901Y-85827306D01*
X147224901Y-85827306D02*
X147320139Y-85874925D01*
X147320139Y-85874925D02*
X147701091Y-85874925D01*
X146177282Y-86351116D02*
X146748710Y-86351116D01*
X146462996Y-86351116D02*
X146462996Y-85351116D01*
X146462996Y-85351116D02*
X146558234Y-85493973D01*
X146558234Y-85493973D02*
X146653472Y-85589211D01*
X146653472Y-85589211D02*
X146748710Y-85636830D01*
X145272520Y-85351116D02*
X145748710Y-85351116D01*
X145748710Y-85351116D02*
X145796329Y-85827306D01*
X145796329Y-85827306D02*
X145748710Y-85779687D01*
X145748710Y-85779687D02*
X145653472Y-85732068D01*
X145653472Y-85732068D02*
X145415377Y-85732068D01*
X145415377Y-85732068D02*
X145320139Y-85779687D01*
X145320139Y-85779687D02*
X145272520Y-85827306D01*
X145272520Y-85827306D02*
X145224901Y-85922544D01*
X145224901Y-85922544D02*
X145224901Y-86160639D01*
X145224901Y-86160639D02*
X145272520Y-86255877D01*
X145272520Y-86255877D02*
X145320139Y-86303497D01*
X145320139Y-86303497D02*
X145415377Y-86351116D01*
X145415377Y-86351116D02*
X145653472Y-86351116D01*
X145653472Y-86351116D02*
X145748710Y-86303497D01*
X145748710Y-86303497D02*
X145796329Y-86255877D01*
X172580152Y-105404097D02*
X172479136Y-104831677D01*
X172984213Y-105000036D02*
X172277106Y-104292929D01*
X172277106Y-104292929D02*
X172007732Y-104562303D01*
X172007732Y-104562303D02*
X171974060Y-104663318D01*
X171974060Y-104663318D02*
X171974060Y-104730662D01*
X171974060Y-104730662D02*
X172007732Y-104831677D01*
X172007732Y-104831677D02*
X172108747Y-104932693D01*
X172108747Y-104932693D02*
X172209762Y-104966364D01*
X172209762Y-104966364D02*
X172277106Y-104966364D01*
X172277106Y-104966364D02*
X172378121Y-104932693D01*
X172378121Y-104932693D02*
X172647495Y-104663318D01*
X172243434Y-105740815D02*
X172108747Y-105875502D01*
X172108747Y-105875502D02*
X172007732Y-105909173D01*
X172007732Y-105909173D02*
X171940388Y-105909173D01*
X171940388Y-105909173D02*
X171772030Y-105875502D01*
X171772030Y-105875502D02*
X171603671Y-105774486D01*
X171603671Y-105774486D02*
X171334297Y-105505112D01*
X171334297Y-105505112D02*
X171300625Y-105404097D01*
X171300625Y-105404097D02*
X171300625Y-105336754D01*
X171300625Y-105336754D02*
X171334297Y-105235738D01*
X171334297Y-105235738D02*
X171468984Y-105101051D01*
X171468984Y-105101051D02*
X171569999Y-105067380D01*
X171569999Y-105067380D02*
X171637343Y-105067380D01*
X171637343Y-105067380D02*
X171738358Y-105101051D01*
X171738358Y-105101051D02*
X171906717Y-105269410D01*
X171906717Y-105269410D02*
X171940388Y-105370425D01*
X171940388Y-105370425D02*
X171940388Y-105437769D01*
X171940388Y-105437769D02*
X171906717Y-105538784D01*
X171906717Y-105538784D02*
X171772030Y-105673471D01*
X171772030Y-105673471D02*
X171671014Y-105707143D01*
X171671014Y-105707143D02*
X171603671Y-105707143D01*
X171603671Y-105707143D02*
X171502656Y-105673471D01*
X181959472Y-108607877D02*
X182007091Y-108655497D01*
X182007091Y-108655497D02*
X182149948Y-108703116D01*
X182149948Y-108703116D02*
X182245186Y-108703116D01*
X182245186Y-108703116D02*
X182388043Y-108655497D01*
X182388043Y-108655497D02*
X182483281Y-108560258D01*
X182483281Y-108560258D02*
X182530900Y-108465020D01*
X182530900Y-108465020D02*
X182578519Y-108274544D01*
X182578519Y-108274544D02*
X182578519Y-108131687D01*
X182578519Y-108131687D02*
X182530900Y-107941211D01*
X182530900Y-107941211D02*
X182483281Y-107845973D01*
X182483281Y-107845973D02*
X182388043Y-107750735D01*
X182388043Y-107750735D02*
X182245186Y-107703116D01*
X182245186Y-107703116D02*
X182149948Y-107703116D01*
X182149948Y-107703116D02*
X182007091Y-107750735D01*
X182007091Y-107750735D02*
X181959472Y-107798354D01*
X181007091Y-108703116D02*
X181578519Y-108703116D01*
X181292805Y-108703116D02*
X181292805Y-107703116D01*
X181292805Y-107703116D02*
X181388043Y-107845973D01*
X181388043Y-107845973D02*
X181483281Y-107941211D01*
X181483281Y-107941211D02*
X181578519Y-107988830D01*
X147923472Y-68047116D02*
X148256805Y-67570925D01*
X148494900Y-68047116D02*
X148494900Y-67047116D01*
X148494900Y-67047116D02*
X148113948Y-67047116D01*
X148113948Y-67047116D02*
X148018710Y-67094735D01*
X148018710Y-67094735D02*
X147971091Y-67142354D01*
X147971091Y-67142354D02*
X147923472Y-67237592D01*
X147923472Y-67237592D02*
X147923472Y-67380449D01*
X147923472Y-67380449D02*
X147971091Y-67475687D01*
X147971091Y-67475687D02*
X148018710Y-67523306D01*
X148018710Y-67523306D02*
X148113948Y-67570925D01*
X148113948Y-67570925D02*
X148494900Y-67570925D01*
X147590138Y-67047116D02*
X146971091Y-67047116D01*
X146971091Y-67047116D02*
X147304424Y-67428068D01*
X147304424Y-67428068D02*
X147161567Y-67428068D01*
X147161567Y-67428068D02*
X147066329Y-67475687D01*
X147066329Y-67475687D02*
X147018710Y-67523306D01*
X147018710Y-67523306D02*
X146971091Y-67618544D01*
X146971091Y-67618544D02*
X146971091Y-67856639D01*
X146971091Y-67856639D02*
X147018710Y-67951877D01*
X147018710Y-67951877D02*
X147066329Y-67999497D01*
X147066329Y-67999497D02*
X147161567Y-68047116D01*
X147161567Y-68047116D02*
X147447281Y-68047116D01*
X147447281Y-68047116D02*
X147542519Y-67999497D01*
X147542519Y-67999497D02*
X147590138Y-67951877D01*
X158083472Y-68047116D02*
X158416805Y-67570925D01*
X158654900Y-68047116D02*
X158654900Y-67047116D01*
X158654900Y-67047116D02*
X158273948Y-67047116D01*
X158273948Y-67047116D02*
X158178710Y-67094735D01*
X158178710Y-67094735D02*
X158131091Y-67142354D01*
X158131091Y-67142354D02*
X158083472Y-67237592D01*
X158083472Y-67237592D02*
X158083472Y-67380449D01*
X158083472Y-67380449D02*
X158131091Y-67475687D01*
X158131091Y-67475687D02*
X158178710Y-67523306D01*
X158178710Y-67523306D02*
X158273948Y-67570925D01*
X158273948Y-67570925D02*
X158654900Y-67570925D01*
X157226329Y-67380449D02*
X157226329Y-68047116D01*
X157464424Y-66999497D02*
X157702519Y-67713782D01*
X157702519Y-67713782D02*
X157083472Y-67713782D01*
X174815663Y-96129116D02*
X175148996Y-95652925D01*
X175387091Y-96129116D02*
X175387091Y-95129116D01*
X175387091Y-95129116D02*
X175006139Y-95129116D01*
X175006139Y-95129116D02*
X174910901Y-95176735D01*
X174910901Y-95176735D02*
X174863282Y-95224354D01*
X174863282Y-95224354D02*
X174815663Y-95319592D01*
X174815663Y-95319592D02*
X174815663Y-95462449D01*
X174815663Y-95462449D02*
X174863282Y-95557687D01*
X174863282Y-95557687D02*
X174910901Y-95605306D01*
X174910901Y-95605306D02*
X175006139Y-95652925D01*
X175006139Y-95652925D02*
X175387091Y-95652925D01*
X173863282Y-96129116D02*
X174434710Y-96129116D01*
X174148996Y-96129116D02*
X174148996Y-95129116D01*
X174148996Y-95129116D02*
X174244234Y-95271973D01*
X174244234Y-95271973D02*
X174339472Y-95367211D01*
X174339472Y-95367211D02*
X174434710Y-95414830D01*
X173006139Y-95462449D02*
X173006139Y-96129116D01*
X173244234Y-95081497D02*
X173482329Y-95795782D01*
X173482329Y-95795782D02*
X172863282Y-95795782D01*
X125539663Y-97781116D02*
X125872996Y-97304925D01*
X126111091Y-97781116D02*
X126111091Y-96781116D01*
X126111091Y-96781116D02*
X125730139Y-96781116D01*
X125730139Y-96781116D02*
X125634901Y-96828735D01*
X125634901Y-96828735D02*
X125587282Y-96876354D01*
X125587282Y-96876354D02*
X125539663Y-96971592D01*
X125539663Y-96971592D02*
X125539663Y-97114449D01*
X125539663Y-97114449D02*
X125587282Y-97209687D01*
X125587282Y-97209687D02*
X125634901Y-97257306D01*
X125634901Y-97257306D02*
X125730139Y-97304925D01*
X125730139Y-97304925D02*
X126111091Y-97304925D01*
X124587282Y-97781116D02*
X125158710Y-97781116D01*
X124872996Y-97781116D02*
X124872996Y-96781116D01*
X124872996Y-96781116D02*
X124968234Y-96923973D01*
X124968234Y-96923973D02*
X125063472Y-97019211D01*
X125063472Y-97019211D02*
X125158710Y-97066830D01*
X124253948Y-96781116D02*
X123587282Y-96781116D01*
X123587282Y-96781116D02*
X124015853Y-97781116D01*
X133699472Y-108957116D02*
X134032805Y-108480925D01*
X134270900Y-108957116D02*
X134270900Y-107957116D01*
X134270900Y-107957116D02*
X133889948Y-107957116D01*
X133889948Y-107957116D02*
X133794710Y-108004735D01*
X133794710Y-108004735D02*
X133747091Y-108052354D01*
X133747091Y-108052354D02*
X133699472Y-108147592D01*
X133699472Y-108147592D02*
X133699472Y-108290449D01*
X133699472Y-108290449D02*
X133747091Y-108385687D01*
X133747091Y-108385687D02*
X133794710Y-108433306D01*
X133794710Y-108433306D02*
X133889948Y-108480925D01*
X133889948Y-108480925D02*
X134270900Y-108480925D01*
X133366138Y-107957116D02*
X132699472Y-107957116D01*
X132699472Y-107957116D02*
X133128043Y-108957116D01*
X177932450Y-109610758D02*
X178437526Y-110115835D01*
X178437526Y-110115835D02*
X178572213Y-110183178D01*
X178572213Y-110183178D02*
X178706900Y-110183178D01*
X178706900Y-110183178D02*
X178841587Y-110115835D01*
X178841587Y-110115835D02*
X178908931Y-110048491D01*
X178302839Y-110654583D02*
X177595732Y-109947476D01*
X177595732Y-109947476D02*
X177326358Y-110216850D01*
X177326358Y-110216850D02*
X177292686Y-110317865D01*
X177292686Y-110317865D02*
X177292686Y-110385209D01*
X177292686Y-110385209D02*
X177326358Y-110486224D01*
X177326358Y-110486224D02*
X177427373Y-110587239D01*
X177427373Y-110587239D02*
X177528389Y-110620911D01*
X177528389Y-110620911D02*
X177595732Y-110620911D01*
X177595732Y-110620911D02*
X177696747Y-110587239D01*
X177696747Y-110587239D02*
X177966121Y-110317865D01*
X177225343Y-111732079D02*
X177629404Y-111328018D01*
X177427373Y-111530048D02*
X176720267Y-110822942D01*
X176720267Y-110822942D02*
X176888625Y-110856613D01*
X176888625Y-110856613D02*
X177023312Y-110856613D01*
X177023312Y-110856613D02*
X177124328Y-110822942D01*
X178299938Y-106671117D02*
X178299938Y-105671117D01*
X177252320Y-106575878D02*
X177299939Y-106623498D01*
X177299939Y-106623498D02*
X177442796Y-106671117D01*
X177442796Y-106671117D02*
X177538034Y-106671117D01*
X177538034Y-106671117D02*
X177680891Y-106623498D01*
X177680891Y-106623498D02*
X177776129Y-106528259D01*
X177776129Y-106528259D02*
X177823748Y-106433021D01*
X177823748Y-106433021D02*
X177871367Y-106242545D01*
X177871367Y-106242545D02*
X177871367Y-106099688D01*
X177871367Y-106099688D02*
X177823748Y-105909212D01*
X177823748Y-105909212D02*
X177776129Y-105813974D01*
X177776129Y-105813974D02*
X177680891Y-105718736D01*
X177680891Y-105718736D02*
X177538034Y-105671117D01*
X177538034Y-105671117D02*
X177442796Y-105671117D01*
X177442796Y-105671117D02*
X177299939Y-105718736D01*
X177299939Y-105718736D02*
X177252320Y-105766355D01*
X176299939Y-106671117D02*
X176871367Y-106671117D01*
X176585653Y-106671117D02*
X176585653Y-105671117D01*
X176585653Y-105671117D02*
X176680891Y-105813974D01*
X176680891Y-105813974D02*
X176776129Y-105909212D01*
X176776129Y-105909212D02*
X176871367Y-105956831D01*
D12*
G36*
X134245722Y-85631341D02*
G01*
X129683817Y-85631341D01*
X129683817Y-83457531D01*
X129850484Y-83457531D01*
X129850484Y-84957531D01*
X129851225Y-84965056D01*
X129850850Y-84968008D01*
X129851892Y-84971828D01*
X129853366Y-84986795D01*
X129861001Y-85005227D01*
X129866250Y-85024472D01*
X129872104Y-85032031D01*
X129875764Y-85040867D01*
X129889871Y-85054974D01*
X129902085Y-85070746D01*
X129910387Y-85075490D01*
X129917148Y-85082251D01*
X129935578Y-85089885D01*
X129952901Y-85099784D01*
X129962386Y-85100989D01*
X129971220Y-85104649D01*
X129991170Y-85104649D01*
X130010961Y-85107165D01*
X130020186Y-85104649D01*
X130029748Y-85104649D01*
X130048180Y-85097013D01*
X130067425Y-85091765D01*
X130074984Y-85085910D01*
X130083820Y-85082251D01*
X130097927Y-85068143D01*
X130113699Y-85055930D01*
X130122404Y-85043666D01*
X130125204Y-85040867D01*
X130126342Y-85038119D01*
X130130720Y-85031952D01*
X130707627Y-84022366D01*
X130707627Y-84957531D01*
X130710509Y-84986795D01*
X130732907Y-85040867D01*
X130774291Y-85082251D01*
X130828363Y-85104649D01*
X130886891Y-85104649D01*
X130940963Y-85082251D01*
X130982347Y-85040867D01*
X131004745Y-84986795D01*
X131007627Y-84957531D01*
X131007627Y-83457531D01*
X131006885Y-83450004D01*
X131007261Y-83447053D01*
X131006218Y-83443231D01*
X131004745Y-83428267D01*
X130997109Y-83409834D01*
X130991861Y-83390590D01*
X130988264Y-83385945D01*
X131207627Y-83385945D01*
X131218985Y-83443360D01*
X131232819Y-83469308D01*
X132518534Y-85397879D01*
X132537164Y-85420630D01*
X132585794Y-85453196D01*
X132643184Y-85464674D01*
X132700598Y-85453316D01*
X132749297Y-85420851D01*
X132781863Y-85372221D01*
X132793341Y-85314832D01*
X132781983Y-85257417D01*
X132768149Y-85231469D01*
X132299810Y-84528960D01*
X132921912Y-84528960D01*
X132921912Y-84671817D01*
X132924794Y-84701081D01*
X132926857Y-84706061D01*
X132927239Y-84711436D01*
X132937748Y-84738899D01*
X133009177Y-84881756D01*
X133017104Y-84894349D01*
X133018620Y-84898009D01*
X133022001Y-84902128D01*
X133024842Y-84906642D01*
X133027835Y-84909238D01*
X133037275Y-84920740D01*
X133108704Y-84992169D01*
X133120208Y-85001610D01*
X133122803Y-85004602D01*
X133127312Y-85007440D01*
X133131435Y-85010824D01*
X133135096Y-85012340D01*
X133147688Y-85020267D01*
X133290546Y-85091695D01*
X133318009Y-85102205D01*
X133323384Y-85102586D01*
X133328363Y-85104649D01*
X133357627Y-85107531D01*
X133714770Y-85107531D01*
X133729575Y-85106072D01*
X133733530Y-85106354D01*
X133738731Y-85105171D01*
X133744034Y-85104649D01*
X133747691Y-85103133D01*
X133762204Y-85099834D01*
X133976489Y-85028406D01*
X134003340Y-85016417D01*
X134047554Y-84978070D01*
X134073728Y-84925723D01*
X134077877Y-84867343D01*
X134059369Y-84811818D01*
X134021022Y-84767604D01*
X133968675Y-84741430D01*
X133910295Y-84737281D01*
X133881621Y-84743800D01*
X133690427Y-84807531D01*
X133393037Y-84807531D01*
X133303623Y-84762824D01*
X133266619Y-84725820D01*
X133221912Y-84636406D01*
X133221912Y-84564370D01*
X133266619Y-84474956D01*
X133303624Y-84437951D01*
X133409983Y-84384772D01*
X133679721Y-84317338D01*
X133681879Y-84316566D01*
X133682960Y-84316490D01*
X133695134Y-84311831D01*
X133707412Y-84307445D01*
X133708282Y-84306800D01*
X133710423Y-84305981D01*
X133853280Y-84234552D01*
X133865875Y-84226623D01*
X133869532Y-84225109D01*
X133873649Y-84221729D01*
X133878166Y-84218887D01*
X133880763Y-84215892D01*
X133892263Y-84206455D01*
X133963692Y-84135027D01*
X133973134Y-84123521D01*
X133976126Y-84120927D01*
X133978965Y-84116416D01*
X133982347Y-84112296D01*
X133983862Y-84108636D01*
X133991791Y-84096042D01*
X134063219Y-83953184D01*
X134073729Y-83925721D01*
X134074110Y-83920345D01*
X134076173Y-83915367D01*
X134079055Y-83886103D01*
X134079055Y-83743245D01*
X134076173Y-83713981D01*
X134074110Y-83709002D01*
X134073729Y-83703627D01*
X134063219Y-83676164D01*
X133991791Y-83533306D01*
X133983862Y-83520711D01*
X133982347Y-83517052D01*
X133978965Y-83512931D01*
X133976126Y-83508421D01*
X133973134Y-83505826D01*
X133963692Y-83494321D01*
X133892263Y-83422893D01*
X133880763Y-83413455D01*
X133878166Y-83410461D01*
X133873649Y-83407618D01*
X133869532Y-83404239D01*
X133865875Y-83402724D01*
X133853280Y-83394796D01*
X133710423Y-83323367D01*
X133682960Y-83312858D01*
X133677585Y-83312476D01*
X133672605Y-83310413D01*
X133643341Y-83307531D01*
X133286198Y-83307531D01*
X133271386Y-83308989D01*
X133267437Y-83308709D01*
X133262242Y-83309890D01*
X133256934Y-83310413D01*
X133253272Y-83311929D01*
X133238763Y-83315229D01*
X133024478Y-83386658D01*
X132997627Y-83398646D01*
X132953412Y-83436994D01*
X132927239Y-83489341D01*
X132923090Y-83547721D01*
X132941598Y-83603245D01*
X132979946Y-83647460D01*
X133032293Y-83673633D01*
X133090673Y-83677782D01*
X133119346Y-83671262D01*
X133310541Y-83607531D01*
X133607931Y-83607531D01*
X133697345Y-83652238D01*
X133734349Y-83689242D01*
X133779055Y-83778654D01*
X133779055Y-83850693D01*
X133734349Y-83940105D01*
X133697345Y-83977109D01*
X133590984Y-84030290D01*
X133321247Y-84097724D01*
X133319088Y-84098495D01*
X133318008Y-84098572D01*
X133305827Y-84103232D01*
X133293556Y-84107617D01*
X133292686Y-84108261D01*
X133290544Y-84109081D01*
X133147688Y-84180510D01*
X133135094Y-84188437D01*
X133131435Y-84189953D01*
X133127315Y-84193334D01*
X133122802Y-84196175D01*
X133120205Y-84199169D01*
X133108704Y-84208608D01*
X133037275Y-84280037D01*
X133027835Y-84291538D01*
X133024842Y-84294135D01*
X133022001Y-84298648D01*
X133018620Y-84302768D01*
X133017104Y-84306427D01*
X133009177Y-84319021D01*
X132937748Y-84461878D01*
X132927239Y-84489341D01*
X132926857Y-84494715D01*
X132924794Y-84499696D01*
X132921912Y-84528960D01*
X132299810Y-84528960D01*
X131482435Y-83302898D01*
X131463804Y-83280147D01*
X131415174Y-83247581D01*
X131357785Y-83236103D01*
X131300370Y-83247461D01*
X131251671Y-83279926D01*
X131219105Y-83328556D01*
X131207627Y-83385945D01*
X130988264Y-83385945D01*
X130986006Y-83383030D01*
X130982347Y-83374195D01*
X130968239Y-83360087D01*
X130956026Y-83344316D01*
X130947723Y-83339571D01*
X130940963Y-83332811D01*
X130922532Y-83325176D01*
X130905210Y-83315278D01*
X130895724Y-83314072D01*
X130886891Y-83310413D01*
X130866941Y-83310413D01*
X130847150Y-83307897D01*
X130837925Y-83310413D01*
X130828363Y-83310413D01*
X130809934Y-83318046D01*
X130790686Y-83323296D01*
X130783124Y-83329152D01*
X130774291Y-83332811D01*
X130760185Y-83346916D01*
X130744412Y-83359132D01*
X130735706Y-83371395D01*
X130732907Y-83374195D01*
X130731768Y-83376942D01*
X130727391Y-83383110D01*
X130150484Y-84392697D01*
X130150484Y-83457531D01*
X130147602Y-83428267D01*
X130125204Y-83374195D01*
X130083820Y-83332811D01*
X130029748Y-83310413D01*
X129971220Y-83310413D01*
X129917148Y-83332811D01*
X129875764Y-83374195D01*
X129853366Y-83428267D01*
X129850484Y-83457531D01*
X129683817Y-83457531D01*
X129683817Y-83069436D01*
X134245722Y-83069436D01*
X134245722Y-85631341D01*
G37*
D10*
X142557663Y-90669116D02*
X142890996Y-90192925D01*
X143129091Y-90669116D02*
X143129091Y-89669116D01*
X143129091Y-89669116D02*
X142748139Y-89669116D01*
X142748139Y-89669116D02*
X142652901Y-89716735D01*
X142652901Y-89716735D02*
X142605282Y-89764354D01*
X142605282Y-89764354D02*
X142557663Y-89859592D01*
X142557663Y-89859592D02*
X142557663Y-90002449D01*
X142557663Y-90002449D02*
X142605282Y-90097687D01*
X142605282Y-90097687D02*
X142652901Y-90145306D01*
X142652901Y-90145306D02*
X142748139Y-90192925D01*
X142748139Y-90192925D02*
X143129091Y-90192925D01*
X141605282Y-90669116D02*
X142176710Y-90669116D01*
X141890996Y-90669116D02*
X141890996Y-89669116D01*
X141890996Y-89669116D02*
X141986234Y-89811973D01*
X141986234Y-89811973D02*
X142081472Y-89907211D01*
X142081472Y-89907211D02*
X142176710Y-89954830D01*
X141271948Y-89669116D02*
X140652901Y-89669116D01*
X140652901Y-89669116D02*
X140986234Y-90050068D01*
X140986234Y-90050068D02*
X140843377Y-90050068D01*
X140843377Y-90050068D02*
X140748139Y-90097687D01*
X140748139Y-90097687D02*
X140700520Y-90145306D01*
X140700520Y-90145306D02*
X140652901Y-90240544D01*
X140652901Y-90240544D02*
X140652901Y-90478639D01*
X140652901Y-90478639D02*
X140700520Y-90573877D01*
X140700520Y-90573877D02*
X140748139Y-90621497D01*
X140748139Y-90621497D02*
X140843377Y-90669116D01*
X140843377Y-90669116D02*
X141129091Y-90669116D01*
X141129091Y-90669116D02*
X141224329Y-90621497D01*
X141224329Y-90621497D02*
X141271948Y-90573877D01*
X133191472Y-117339116D02*
X133524805Y-116862925D01*
X133762900Y-117339116D02*
X133762900Y-116339116D01*
X133762900Y-116339116D02*
X133381948Y-116339116D01*
X133381948Y-116339116D02*
X133286710Y-116386735D01*
X133286710Y-116386735D02*
X133239091Y-116434354D01*
X133239091Y-116434354D02*
X133191472Y-116529592D01*
X133191472Y-116529592D02*
X133191472Y-116672449D01*
X133191472Y-116672449D02*
X133239091Y-116767687D01*
X133239091Y-116767687D02*
X133286710Y-116815306D01*
X133286710Y-116815306D02*
X133381948Y-116862925D01*
X133381948Y-116862925D02*
X133762900Y-116862925D01*
X132620043Y-116767687D02*
X132715281Y-116720068D01*
X132715281Y-116720068D02*
X132762900Y-116672449D01*
X132762900Y-116672449D02*
X132810519Y-116577211D01*
X132810519Y-116577211D02*
X132810519Y-116529592D01*
X132810519Y-116529592D02*
X132762900Y-116434354D01*
X132762900Y-116434354D02*
X132715281Y-116386735D01*
X132715281Y-116386735D02*
X132620043Y-116339116D01*
X132620043Y-116339116D02*
X132429567Y-116339116D01*
X132429567Y-116339116D02*
X132334329Y-116386735D01*
X132334329Y-116386735D02*
X132286710Y-116434354D01*
X132286710Y-116434354D02*
X132239091Y-116529592D01*
X132239091Y-116529592D02*
X132239091Y-116577211D01*
X132239091Y-116577211D02*
X132286710Y-116672449D01*
X132286710Y-116672449D02*
X132334329Y-116720068D01*
X132334329Y-116720068D02*
X132429567Y-116767687D01*
X132429567Y-116767687D02*
X132620043Y-116767687D01*
X132620043Y-116767687D02*
X132715281Y-116815306D01*
X132715281Y-116815306D02*
X132762900Y-116862925D01*
X132762900Y-116862925D02*
X132810519Y-116958163D01*
X132810519Y-116958163D02*
X132810519Y-117148639D01*
X132810519Y-117148639D02*
X132762900Y-117243877D01*
X132762900Y-117243877D02*
X132715281Y-117291497D01*
X132715281Y-117291497D02*
X132620043Y-117339116D01*
X132620043Y-117339116D02*
X132429567Y-117339116D01*
X132429567Y-117339116D02*
X132334329Y-117291497D01*
X132334329Y-117291497D02*
X132286710Y-117243877D01*
X132286710Y-117243877D02*
X132239091Y-117148639D01*
X132239091Y-117148639D02*
X132239091Y-116958163D01*
X132239091Y-116958163D02*
X132286710Y-116862925D01*
X132286710Y-116862925D02*
X132334329Y-116815306D01*
X132334329Y-116815306D02*
X132429567Y-116767687D01*
X173291663Y-85589116D02*
X173624996Y-85112925D01*
X173863091Y-85589116D02*
X173863091Y-84589116D01*
X173863091Y-84589116D02*
X173482139Y-84589116D01*
X173482139Y-84589116D02*
X173386901Y-84636735D01*
X173386901Y-84636735D02*
X173339282Y-84684354D01*
X173339282Y-84684354D02*
X173291663Y-84779592D01*
X173291663Y-84779592D02*
X173291663Y-84922449D01*
X173291663Y-84922449D02*
X173339282Y-85017687D01*
X173339282Y-85017687D02*
X173386901Y-85065306D01*
X173386901Y-85065306D02*
X173482139Y-85112925D01*
X173482139Y-85112925D02*
X173863091Y-85112925D01*
X172339282Y-85589116D02*
X172910710Y-85589116D01*
X172624996Y-85589116D02*
X172624996Y-84589116D01*
X172624996Y-84589116D02*
X172720234Y-84731973D01*
X172720234Y-84731973D02*
X172815472Y-84827211D01*
X172815472Y-84827211D02*
X172910710Y-84874830D01*
X171482139Y-84589116D02*
X171672615Y-84589116D01*
X171672615Y-84589116D02*
X171767853Y-84636735D01*
X171767853Y-84636735D02*
X171815472Y-84684354D01*
X171815472Y-84684354D02*
X171910710Y-84827211D01*
X171910710Y-84827211D02*
X171958329Y-85017687D01*
X171958329Y-85017687D02*
X171958329Y-85398639D01*
X171958329Y-85398639D02*
X171910710Y-85493877D01*
X171910710Y-85493877D02*
X171863091Y-85541497D01*
X171863091Y-85541497D02*
X171767853Y-85589116D01*
X171767853Y-85589116D02*
X171577377Y-85589116D01*
X171577377Y-85589116D02*
X171482139Y-85541497D01*
X171482139Y-85541497D02*
X171434520Y-85493877D01*
X171434520Y-85493877D02*
X171386901Y-85398639D01*
X171386901Y-85398639D02*
X171386901Y-85160544D01*
X171386901Y-85160544D02*
X171434520Y-85065306D01*
X171434520Y-85065306D02*
X171482139Y-85017687D01*
X171482139Y-85017687D02*
X171577377Y-84970068D01*
X171577377Y-84970068D02*
X171767853Y-84970068D01*
X171767853Y-84970068D02*
X171863091Y-85017687D01*
X171863091Y-85017687D02*
X171910710Y-85065306D01*
X171910710Y-85065306D02*
X171958329Y-85160544D01*
X145300806Y-101804830D02*
X145100806Y-101871497D01*
X145100806Y-101871497D02*
X145034139Y-101938163D01*
X145034139Y-101938163D02*
X144967472Y-102071497D01*
X144967472Y-102071497D02*
X144967472Y-102271497D01*
X144967472Y-102271497D02*
X145034139Y-102404830D01*
X145034139Y-102404830D02*
X145100806Y-102471497D01*
X145100806Y-102471497D02*
X145234139Y-102538163D01*
X145234139Y-102538163D02*
X145767472Y-102538163D01*
X145767472Y-102538163D02*
X145767472Y-101138163D01*
X145767472Y-101138163D02*
X145300806Y-101138163D01*
X145300806Y-101138163D02*
X145167472Y-101204830D01*
X145167472Y-101204830D02*
X145100806Y-101271497D01*
X145100806Y-101271497D02*
X145034139Y-101404830D01*
X145034139Y-101404830D02*
X145034139Y-101538163D01*
X145034139Y-101538163D02*
X145100806Y-101671497D01*
X145100806Y-101671497D02*
X145167472Y-101738163D01*
X145167472Y-101738163D02*
X145300806Y-101804830D01*
X145300806Y-101804830D02*
X145767472Y-101804830D01*
X144567472Y-101138163D02*
X143767472Y-101138163D01*
X144167472Y-102538163D02*
X144167472Y-101138163D01*
X142567472Y-102538163D02*
X143367472Y-102538163D01*
X142967472Y-102538163D02*
X142967472Y-101138163D01*
X142967472Y-101138163D02*
X143100805Y-101338163D01*
X143100805Y-101338163D02*
X143234139Y-101471497D01*
X143234139Y-101471497D02*
X143367472Y-101538163D01*
X180914339Y-86875117D02*
X180914339Y-87589402D01*
X180914339Y-87589402D02*
X180961958Y-87732259D01*
X180961958Y-87732259D02*
X181057196Y-87827498D01*
X181057196Y-87827498D02*
X181200053Y-87875117D01*
X181200053Y-87875117D02*
X181295291Y-87875117D01*
X179914339Y-87875117D02*
X180485767Y-87875117D01*
X180200053Y-87875117D02*
X180200053Y-86875117D01*
X180200053Y-86875117D02*
X180295291Y-87017974D01*
X180295291Y-87017974D02*
X180390529Y-87113212D01*
X180390529Y-87113212D02*
X180485767Y-87160831D01*
X177024910Y-78416116D02*
X176691577Y-79416116D01*
X176691577Y-79416116D02*
X176358244Y-78416116D01*
X175453482Y-79320877D02*
X175501101Y-79368497D01*
X175501101Y-79368497D02*
X175643958Y-79416116D01*
X175643958Y-79416116D02*
X175739196Y-79416116D01*
X175739196Y-79416116D02*
X175882053Y-79368497D01*
X175882053Y-79368497D02*
X175977291Y-79273258D01*
X175977291Y-79273258D02*
X176024910Y-79178020D01*
X176024910Y-79178020D02*
X176072529Y-78987544D01*
X176072529Y-78987544D02*
X176072529Y-78844687D01*
X176072529Y-78844687D02*
X176024910Y-78654211D01*
X176024910Y-78654211D02*
X175977291Y-78558973D01*
X175977291Y-78558973D02*
X175882053Y-78463735D01*
X175882053Y-78463735D02*
X175739196Y-78416116D01*
X175739196Y-78416116D02*
X175643958Y-78416116D01*
X175643958Y-78416116D02*
X175501101Y-78463735D01*
X175501101Y-78463735D02*
X175453482Y-78511354D01*
X174453482Y-79320877D02*
X174501101Y-79368497D01*
X174501101Y-79368497D02*
X174643958Y-79416116D01*
X174643958Y-79416116D02*
X174739196Y-79416116D01*
X174739196Y-79416116D02*
X174882053Y-79368497D01*
X174882053Y-79368497D02*
X174977291Y-79273258D01*
X174977291Y-79273258D02*
X175024910Y-79178020D01*
X175024910Y-79178020D02*
X175072529Y-78987544D01*
X175072529Y-78987544D02*
X175072529Y-78844687D01*
X175072529Y-78844687D02*
X175024910Y-78654211D01*
X175024910Y-78654211D02*
X174977291Y-78558973D01*
X174977291Y-78558973D02*
X174882053Y-78463735D01*
X174882053Y-78463735D02*
X174739196Y-78416116D01*
X174739196Y-78416116D02*
X174643958Y-78416116D01*
X174643958Y-78416116D02*
X174501101Y-78463735D01*
X174501101Y-78463735D02*
X174453482Y-78511354D01*
X176882053Y-80940116D02*
X176882053Y-79940116D01*
X176882053Y-79940116D02*
X176548720Y-80654401D01*
X176548720Y-80654401D02*
X176215387Y-79940116D01*
X176215387Y-79940116D02*
X176215387Y-80940116D01*
X175548720Y-79940116D02*
X175358244Y-79940116D01*
X175358244Y-79940116D02*
X175263006Y-79987735D01*
X175263006Y-79987735D02*
X175167768Y-80082973D01*
X175167768Y-80082973D02*
X175120149Y-80273449D01*
X175120149Y-80273449D02*
X175120149Y-80606782D01*
X175120149Y-80606782D02*
X175167768Y-80797258D01*
X175167768Y-80797258D02*
X175263006Y-80892497D01*
X175263006Y-80892497D02*
X175358244Y-80940116D01*
X175358244Y-80940116D02*
X175548720Y-80940116D01*
X175548720Y-80940116D02*
X175643958Y-80892497D01*
X175643958Y-80892497D02*
X175739196Y-80797258D01*
X175739196Y-80797258D02*
X175786815Y-80606782D01*
X175786815Y-80606782D02*
X175786815Y-80273449D01*
X175786815Y-80273449D02*
X175739196Y-80082973D01*
X175739196Y-80082973D02*
X175643958Y-79987735D01*
X175643958Y-79987735D02*
X175548720Y-79940116D01*
X174739196Y-80892497D02*
X174596339Y-80940116D01*
X174596339Y-80940116D02*
X174358244Y-80940116D01*
X174358244Y-80940116D02*
X174263006Y-80892497D01*
X174263006Y-80892497D02*
X174215387Y-80844877D01*
X174215387Y-80844877D02*
X174167768Y-80749639D01*
X174167768Y-80749639D02*
X174167768Y-80654401D01*
X174167768Y-80654401D02*
X174215387Y-80559163D01*
X174215387Y-80559163D02*
X174263006Y-80511544D01*
X174263006Y-80511544D02*
X174358244Y-80463925D01*
X174358244Y-80463925D02*
X174548720Y-80416306D01*
X174548720Y-80416306D02*
X174643958Y-80368687D01*
X174643958Y-80368687D02*
X174691577Y-80321068D01*
X174691577Y-80321068D02*
X174739196Y-80225830D01*
X174739196Y-80225830D02*
X174739196Y-80130592D01*
X174739196Y-80130592D02*
X174691577Y-80035354D01*
X174691577Y-80035354D02*
X174643958Y-79987735D01*
X174643958Y-79987735D02*
X174548720Y-79940116D01*
X174548720Y-79940116D02*
X174310625Y-79940116D01*
X174310625Y-79940116D02*
X174167768Y-79987735D01*
X173739196Y-80940116D02*
X173739196Y-79940116D01*
X181210414Y-79416116D02*
X181210414Y-78416116D01*
X181210414Y-78416116D02*
X180877081Y-79130401D01*
X180877081Y-79130401D02*
X180543748Y-78416116D01*
X180543748Y-78416116D02*
X180543748Y-79416116D01*
X180067557Y-79416116D02*
X180067557Y-78416116D01*
X179638986Y-79368497D02*
X179496129Y-79416116D01*
X179496129Y-79416116D02*
X179258034Y-79416116D01*
X179258034Y-79416116D02*
X179162796Y-79368497D01*
X179162796Y-79368497D02*
X179115177Y-79320877D01*
X179115177Y-79320877D02*
X179067558Y-79225639D01*
X179067558Y-79225639D02*
X179067558Y-79130401D01*
X179067558Y-79130401D02*
X179115177Y-79035163D01*
X179115177Y-79035163D02*
X179162796Y-78987544D01*
X179162796Y-78987544D02*
X179258034Y-78939925D01*
X179258034Y-78939925D02*
X179448510Y-78892306D01*
X179448510Y-78892306D02*
X179543748Y-78844687D01*
X179543748Y-78844687D02*
X179591367Y-78797068D01*
X179591367Y-78797068D02*
X179638986Y-78701830D01*
X179638986Y-78701830D02*
X179638986Y-78606592D01*
X179638986Y-78606592D02*
X179591367Y-78511354D01*
X179591367Y-78511354D02*
X179543748Y-78463735D01*
X179543748Y-78463735D02*
X179448510Y-78416116D01*
X179448510Y-78416116D02*
X179210415Y-78416116D01*
X179210415Y-78416116D02*
X179067558Y-78463735D01*
X178448510Y-78416116D02*
X178258034Y-78416116D01*
X178258034Y-78416116D02*
X178162796Y-78463735D01*
X178162796Y-78463735D02*
X178067558Y-78558973D01*
X178067558Y-78558973D02*
X178019939Y-78749449D01*
X178019939Y-78749449D02*
X178019939Y-79082782D01*
X178019939Y-79082782D02*
X178067558Y-79273258D01*
X178067558Y-79273258D02*
X178162796Y-79368497D01*
X178162796Y-79368497D02*
X178258034Y-79416116D01*
X178258034Y-79416116D02*
X178448510Y-79416116D01*
X178448510Y-79416116D02*
X178543748Y-79368497D01*
X178543748Y-79368497D02*
X178638986Y-79273258D01*
X178638986Y-79273258D02*
X178686605Y-79082782D01*
X178686605Y-79082782D02*
X178686605Y-78749449D01*
X178686605Y-78749449D02*
X178638986Y-78558973D01*
X178638986Y-78558973D02*
X178543748Y-78463735D01*
X178543748Y-78463735D02*
X178448510Y-78416116D01*
X180591367Y-80892497D02*
X180448510Y-80940116D01*
X180448510Y-80940116D02*
X180210415Y-80940116D01*
X180210415Y-80940116D02*
X180115177Y-80892497D01*
X180115177Y-80892497D02*
X180067558Y-80844877D01*
X180067558Y-80844877D02*
X180019939Y-80749639D01*
X180019939Y-80749639D02*
X180019939Y-80654401D01*
X180019939Y-80654401D02*
X180067558Y-80559163D01*
X180067558Y-80559163D02*
X180115177Y-80511544D01*
X180115177Y-80511544D02*
X180210415Y-80463925D01*
X180210415Y-80463925D02*
X180400891Y-80416306D01*
X180400891Y-80416306D02*
X180496129Y-80368687D01*
X180496129Y-80368687D02*
X180543748Y-80321068D01*
X180543748Y-80321068D02*
X180591367Y-80225830D01*
X180591367Y-80225830D02*
X180591367Y-80130592D01*
X180591367Y-80130592D02*
X180543748Y-80035354D01*
X180543748Y-80035354D02*
X180496129Y-79987735D01*
X180496129Y-79987735D02*
X180400891Y-79940116D01*
X180400891Y-79940116D02*
X180162796Y-79940116D01*
X180162796Y-79940116D02*
X180019939Y-79987735D01*
X179019939Y-80844877D02*
X179067558Y-80892497D01*
X179067558Y-80892497D02*
X179210415Y-80940116D01*
X179210415Y-80940116D02*
X179305653Y-80940116D01*
X179305653Y-80940116D02*
X179448510Y-80892497D01*
X179448510Y-80892497D02*
X179543748Y-80797258D01*
X179543748Y-80797258D02*
X179591367Y-80702020D01*
X179591367Y-80702020D02*
X179638986Y-80511544D01*
X179638986Y-80511544D02*
X179638986Y-80368687D01*
X179638986Y-80368687D02*
X179591367Y-80178211D01*
X179591367Y-80178211D02*
X179543748Y-80082973D01*
X179543748Y-80082973D02*
X179448510Y-79987735D01*
X179448510Y-79987735D02*
X179305653Y-79940116D01*
X179305653Y-79940116D02*
X179210415Y-79940116D01*
X179210415Y-79940116D02*
X179067558Y-79987735D01*
X179067558Y-79987735D02*
X179019939Y-80035354D01*
X178591367Y-80940116D02*
X178591367Y-79940116D01*
X178019939Y-80940116D02*
X178448510Y-80368687D01*
X178019939Y-79940116D02*
X178591367Y-80511544D01*
X179734225Y-82718116D02*
X180067558Y-82241925D01*
X180305653Y-82718116D02*
X180305653Y-81718116D01*
X180305653Y-81718116D02*
X179924701Y-81718116D01*
X179924701Y-81718116D02*
X179829463Y-81765735D01*
X179829463Y-81765735D02*
X179781844Y-81813354D01*
X179781844Y-81813354D02*
X179734225Y-81908592D01*
X179734225Y-81908592D02*
X179734225Y-82051449D01*
X179734225Y-82051449D02*
X179781844Y-82146687D01*
X179781844Y-82146687D02*
X179829463Y-82194306D01*
X179829463Y-82194306D02*
X179924701Y-82241925D01*
X179924701Y-82241925D02*
X180305653Y-82241925D01*
X179353272Y-82670497D02*
X179210415Y-82718116D01*
X179210415Y-82718116D02*
X178972320Y-82718116D01*
X178972320Y-82718116D02*
X178877082Y-82670497D01*
X178877082Y-82670497D02*
X178829463Y-82622877D01*
X178829463Y-82622877D02*
X178781844Y-82527639D01*
X178781844Y-82527639D02*
X178781844Y-82432401D01*
X178781844Y-82432401D02*
X178829463Y-82337163D01*
X178829463Y-82337163D02*
X178877082Y-82289544D01*
X178877082Y-82289544D02*
X178972320Y-82241925D01*
X178972320Y-82241925D02*
X179162796Y-82194306D01*
X179162796Y-82194306D02*
X179258034Y-82146687D01*
X179258034Y-82146687D02*
X179305653Y-82099068D01*
X179305653Y-82099068D02*
X179353272Y-82003830D01*
X179353272Y-82003830D02*
X179353272Y-81908592D01*
X179353272Y-81908592D02*
X179305653Y-81813354D01*
X179305653Y-81813354D02*
X179258034Y-81765735D01*
X179258034Y-81765735D02*
X179162796Y-81718116D01*
X179162796Y-81718116D02*
X178924701Y-81718116D01*
X178924701Y-81718116D02*
X178781844Y-81765735D01*
X178496129Y-81718116D02*
X177924701Y-81718116D01*
X178210415Y-82718116D02*
X178210415Y-81718116D01*
X180443749Y-81440497D02*
X177929463Y-81440497D01*
X176358244Y-81765735D02*
X176453482Y-81718116D01*
X176453482Y-81718116D02*
X176596339Y-81718116D01*
X176596339Y-81718116D02*
X176739196Y-81765735D01*
X176739196Y-81765735D02*
X176834434Y-81860973D01*
X176834434Y-81860973D02*
X176882053Y-81956211D01*
X176882053Y-81956211D02*
X176929672Y-82146687D01*
X176929672Y-82146687D02*
X176929672Y-82289544D01*
X176929672Y-82289544D02*
X176882053Y-82480020D01*
X176882053Y-82480020D02*
X176834434Y-82575258D01*
X176834434Y-82575258D02*
X176739196Y-82670497D01*
X176739196Y-82670497D02*
X176596339Y-82718116D01*
X176596339Y-82718116D02*
X176501101Y-82718116D01*
X176501101Y-82718116D02*
X176358244Y-82670497D01*
X176358244Y-82670497D02*
X176310625Y-82622877D01*
X176310625Y-82622877D02*
X176310625Y-82289544D01*
X176310625Y-82289544D02*
X176501101Y-82289544D01*
X175882053Y-82718116D02*
X175882053Y-81718116D01*
X175882053Y-81718116D02*
X175310625Y-82718116D01*
X175310625Y-82718116D02*
X175310625Y-81718116D01*
X174834434Y-82718116D02*
X174834434Y-81718116D01*
X174834434Y-81718116D02*
X174596339Y-81718116D01*
X174596339Y-81718116D02*
X174453482Y-81765735D01*
X174453482Y-81765735D02*
X174358244Y-81860973D01*
X174358244Y-81860973D02*
X174310625Y-81956211D01*
X174310625Y-81956211D02*
X174263006Y-82146687D01*
X174263006Y-82146687D02*
X174263006Y-82289544D01*
X174263006Y-82289544D02*
X174310625Y-82480020D01*
X174310625Y-82480020D02*
X174358244Y-82575258D01*
X174358244Y-82575258D02*
X174453482Y-82670497D01*
X174453482Y-82670497D02*
X174596339Y-82718116D01*
X174596339Y-82718116D02*
X174834434Y-82718116D01*
X124555472Y-102607116D02*
X124888805Y-102130925D01*
X125126900Y-102607116D02*
X125126900Y-101607116D01*
X125126900Y-101607116D02*
X124745948Y-101607116D01*
X124745948Y-101607116D02*
X124650710Y-101654735D01*
X124650710Y-101654735D02*
X124603091Y-101702354D01*
X124603091Y-101702354D02*
X124555472Y-101797592D01*
X124555472Y-101797592D02*
X124555472Y-101940449D01*
X124555472Y-101940449D02*
X124603091Y-102035687D01*
X124603091Y-102035687D02*
X124650710Y-102083306D01*
X124650710Y-102083306D02*
X124745948Y-102130925D01*
X124745948Y-102130925D02*
X125126900Y-102130925D01*
X123698329Y-101607116D02*
X123888805Y-101607116D01*
X123888805Y-101607116D02*
X123984043Y-101654735D01*
X123984043Y-101654735D02*
X124031662Y-101702354D01*
X124031662Y-101702354D02*
X124126900Y-101845211D01*
X124126900Y-101845211D02*
X124174519Y-102035687D01*
X124174519Y-102035687D02*
X124174519Y-102416639D01*
X124174519Y-102416639D02*
X124126900Y-102511877D01*
X124126900Y-102511877D02*
X124079281Y-102559497D01*
X124079281Y-102559497D02*
X123984043Y-102607116D01*
X123984043Y-102607116D02*
X123793567Y-102607116D01*
X123793567Y-102607116D02*
X123698329Y-102559497D01*
X123698329Y-102559497D02*
X123650710Y-102511877D01*
X123650710Y-102511877D02*
X123603091Y-102416639D01*
X123603091Y-102416639D02*
X123603091Y-102178544D01*
X123603091Y-102178544D02*
X123650710Y-102083306D01*
X123650710Y-102083306D02*
X123698329Y-102035687D01*
X123698329Y-102035687D02*
X123793567Y-101988068D01*
X123793567Y-101988068D02*
X123984043Y-101988068D01*
X123984043Y-101988068D02*
X124079281Y-102035687D01*
X124079281Y-102035687D02*
X124126900Y-102083306D01*
X124126900Y-102083306D02*
X124174519Y-102178544D01*
X124555472Y-100321116D02*
X124888805Y-99844925D01*
X125126900Y-100321116D02*
X125126900Y-99321116D01*
X125126900Y-99321116D02*
X124745948Y-99321116D01*
X124745948Y-99321116D02*
X124650710Y-99368735D01*
X124650710Y-99368735D02*
X124603091Y-99416354D01*
X124603091Y-99416354D02*
X124555472Y-99511592D01*
X124555472Y-99511592D02*
X124555472Y-99654449D01*
X124555472Y-99654449D02*
X124603091Y-99749687D01*
X124603091Y-99749687D02*
X124650710Y-99797306D01*
X124650710Y-99797306D02*
X124745948Y-99844925D01*
X124745948Y-99844925D02*
X125126900Y-99844925D01*
X123603091Y-100321116D02*
X124174519Y-100321116D01*
X123888805Y-100321116D02*
X123888805Y-99321116D01*
X123888805Y-99321116D02*
X123984043Y-99463973D01*
X123984043Y-99463973D02*
X124079281Y-99559211D01*
X124079281Y-99559211D02*
X124174519Y-99606830D01*
X123258044Y-108036354D02*
X123353282Y-107988735D01*
X123353282Y-107988735D02*
X123448520Y-107893497D01*
X123448520Y-107893497D02*
X123591377Y-107750639D01*
X123591377Y-107750639D02*
X123686615Y-107703020D01*
X123686615Y-107703020D02*
X123781853Y-107703020D01*
X123734234Y-107941116D02*
X123829472Y-107893497D01*
X123829472Y-107893497D02*
X123924710Y-107798258D01*
X123924710Y-107798258D02*
X123972329Y-107607782D01*
X123972329Y-107607782D02*
X123972329Y-107274449D01*
X123972329Y-107274449D02*
X123924710Y-107083973D01*
X123924710Y-107083973D02*
X123829472Y-106988735D01*
X123829472Y-106988735D02*
X123734234Y-106941116D01*
X123734234Y-106941116D02*
X123543758Y-106941116D01*
X123543758Y-106941116D02*
X123448520Y-106988735D01*
X123448520Y-106988735D02*
X123353282Y-107083973D01*
X123353282Y-107083973D02*
X123305663Y-107274449D01*
X123305663Y-107274449D02*
X123305663Y-107607782D01*
X123305663Y-107607782D02*
X123353282Y-107798258D01*
X123353282Y-107798258D02*
X123448520Y-107893497D01*
X123448520Y-107893497D02*
X123543758Y-107941116D01*
X123543758Y-107941116D02*
X123734234Y-107941116D01*
X122353282Y-107941116D02*
X122924710Y-107941116D01*
X122638996Y-107941116D02*
X122638996Y-106941116D01*
X122638996Y-106941116D02*
X122734234Y-107083973D01*
X122734234Y-107083973D02*
X122829472Y-107179211D01*
X122829472Y-107179211D02*
X122924710Y-107226830D01*
X153003472Y-68047116D02*
X153336805Y-67570925D01*
X153574900Y-68047116D02*
X153574900Y-67047116D01*
X153574900Y-67047116D02*
X153193948Y-67047116D01*
X153193948Y-67047116D02*
X153098710Y-67094735D01*
X153098710Y-67094735D02*
X153051091Y-67142354D01*
X153051091Y-67142354D02*
X153003472Y-67237592D01*
X153003472Y-67237592D02*
X153003472Y-67380449D01*
X153003472Y-67380449D02*
X153051091Y-67475687D01*
X153051091Y-67475687D02*
X153098710Y-67523306D01*
X153098710Y-67523306D02*
X153193948Y-67570925D01*
X153193948Y-67570925D02*
X153574900Y-67570925D01*
X152098710Y-67047116D02*
X152574900Y-67047116D01*
X152574900Y-67047116D02*
X152622519Y-67523306D01*
X152622519Y-67523306D02*
X152574900Y-67475687D01*
X152574900Y-67475687D02*
X152479662Y-67428068D01*
X152479662Y-67428068D02*
X152241567Y-67428068D01*
X152241567Y-67428068D02*
X152146329Y-67475687D01*
X152146329Y-67475687D02*
X152098710Y-67523306D01*
X152098710Y-67523306D02*
X152051091Y-67618544D01*
X152051091Y-67618544D02*
X152051091Y-67856639D01*
X152051091Y-67856639D02*
X152098710Y-67951877D01*
X152098710Y-67951877D02*
X152146329Y-67999497D01*
X152146329Y-67999497D02*
X152241567Y-68047116D01*
X152241567Y-68047116D02*
X152479662Y-68047116D01*
X152479662Y-68047116D02*
X152574900Y-67999497D01*
X152574900Y-67999497D02*
X152622519Y-67951877D01*
X140017663Y-88637116D02*
X140350996Y-88160925D01*
X140589091Y-88637116D02*
X140589091Y-87637116D01*
X140589091Y-87637116D02*
X140208139Y-87637116D01*
X140208139Y-87637116D02*
X140112901Y-87684735D01*
X140112901Y-87684735D02*
X140065282Y-87732354D01*
X140065282Y-87732354D02*
X140017663Y-87827592D01*
X140017663Y-87827592D02*
X140017663Y-87970449D01*
X140017663Y-87970449D02*
X140065282Y-88065687D01*
X140065282Y-88065687D02*
X140112901Y-88113306D01*
X140112901Y-88113306D02*
X140208139Y-88160925D01*
X140208139Y-88160925D02*
X140589091Y-88160925D01*
X139065282Y-88637116D02*
X139636710Y-88637116D01*
X139350996Y-88637116D02*
X139350996Y-87637116D01*
X139350996Y-87637116D02*
X139446234Y-87779973D01*
X139446234Y-87779973D02*
X139541472Y-87875211D01*
X139541472Y-87875211D02*
X139636710Y-87922830D01*
X138112901Y-88637116D02*
X138684329Y-88637116D01*
X138398615Y-88637116D02*
X138398615Y-87637116D01*
X138398615Y-87637116D02*
X138493853Y-87779973D01*
X138493853Y-87779973D02*
X138589091Y-87875211D01*
X138589091Y-87875211D02*
X138684329Y-87922830D01*
X182721472Y-98051116D02*
X183054805Y-97574925D01*
X183292900Y-98051116D02*
X183292900Y-97051116D01*
X183292900Y-97051116D02*
X182911948Y-97051116D01*
X182911948Y-97051116D02*
X182816710Y-97098735D01*
X182816710Y-97098735D02*
X182769091Y-97146354D01*
X182769091Y-97146354D02*
X182721472Y-97241592D01*
X182721472Y-97241592D02*
X182721472Y-97384449D01*
X182721472Y-97384449D02*
X182769091Y-97479687D01*
X182769091Y-97479687D02*
X182816710Y-97527306D01*
X182816710Y-97527306D02*
X182911948Y-97574925D01*
X182911948Y-97574925D02*
X183292900Y-97574925D01*
X182340519Y-97146354D02*
X182292900Y-97098735D01*
X182292900Y-97098735D02*
X182197662Y-97051116D01*
X182197662Y-97051116D02*
X181959567Y-97051116D01*
X181959567Y-97051116D02*
X181864329Y-97098735D01*
X181864329Y-97098735D02*
X181816710Y-97146354D01*
X181816710Y-97146354D02*
X181769091Y-97241592D01*
X181769091Y-97241592D02*
X181769091Y-97336830D01*
X181769091Y-97336830D02*
X181816710Y-97479687D01*
X181816710Y-97479687D02*
X182388138Y-98051116D01*
X182388138Y-98051116D02*
X181769091Y-98051116D01*
X160337663Y-89653116D02*
X160670996Y-89176925D01*
X160909091Y-89653116D02*
X160909091Y-88653116D01*
X160909091Y-88653116D02*
X160528139Y-88653116D01*
X160528139Y-88653116D02*
X160432901Y-88700735D01*
X160432901Y-88700735D02*
X160385282Y-88748354D01*
X160385282Y-88748354D02*
X160337663Y-88843592D01*
X160337663Y-88843592D02*
X160337663Y-88986449D01*
X160337663Y-88986449D02*
X160385282Y-89081687D01*
X160385282Y-89081687D02*
X160432901Y-89129306D01*
X160432901Y-89129306D02*
X160528139Y-89176925D01*
X160528139Y-89176925D02*
X160909091Y-89176925D01*
X159385282Y-89653116D02*
X159956710Y-89653116D01*
X159670996Y-89653116D02*
X159670996Y-88653116D01*
X159670996Y-88653116D02*
X159766234Y-88795973D01*
X159766234Y-88795973D02*
X159861472Y-88891211D01*
X159861472Y-88891211D02*
X159956710Y-88938830D01*
X158813853Y-89081687D02*
X158909091Y-89034068D01*
X158909091Y-89034068D02*
X158956710Y-88986449D01*
X158956710Y-88986449D02*
X159004329Y-88891211D01*
X159004329Y-88891211D02*
X159004329Y-88843592D01*
X159004329Y-88843592D02*
X158956710Y-88748354D01*
X158956710Y-88748354D02*
X158909091Y-88700735D01*
X158909091Y-88700735D02*
X158813853Y-88653116D01*
X158813853Y-88653116D02*
X158623377Y-88653116D01*
X158623377Y-88653116D02*
X158528139Y-88700735D01*
X158528139Y-88700735D02*
X158480520Y-88748354D01*
X158480520Y-88748354D02*
X158432901Y-88843592D01*
X158432901Y-88843592D02*
X158432901Y-88891211D01*
X158432901Y-88891211D02*
X158480520Y-88986449D01*
X158480520Y-88986449D02*
X158528139Y-89034068D01*
X158528139Y-89034068D02*
X158623377Y-89081687D01*
X158623377Y-89081687D02*
X158813853Y-89081687D01*
X158813853Y-89081687D02*
X158909091Y-89129306D01*
X158909091Y-89129306D02*
X158956710Y-89176925D01*
X158956710Y-89176925D02*
X159004329Y-89272163D01*
X159004329Y-89272163D02*
X159004329Y-89462639D01*
X159004329Y-89462639D02*
X158956710Y-89557877D01*
X158956710Y-89557877D02*
X158909091Y-89605497D01*
X158909091Y-89605497D02*
X158813853Y-89653116D01*
X158813853Y-89653116D02*
X158623377Y-89653116D01*
X158623377Y-89653116D02*
X158528139Y-89605497D01*
X158528139Y-89605497D02*
X158480520Y-89557877D01*
X158480520Y-89557877D02*
X158432901Y-89462639D01*
X158432901Y-89462639D02*
X158432901Y-89272163D01*
X158432901Y-89272163D02*
X158480520Y-89176925D01*
X158480520Y-89176925D02*
X158528139Y-89129306D01*
X158528139Y-89129306D02*
X158623377Y-89081687D01*
X171100900Y-117085116D02*
X171100900Y-116085116D01*
X171100900Y-116085116D02*
X170862805Y-116085116D01*
X170862805Y-116085116D02*
X170719948Y-116132735D01*
X170719948Y-116132735D02*
X170624710Y-116227973D01*
X170624710Y-116227973D02*
X170577091Y-116323211D01*
X170577091Y-116323211D02*
X170529472Y-116513687D01*
X170529472Y-116513687D02*
X170529472Y-116656544D01*
X170529472Y-116656544D02*
X170577091Y-116847020D01*
X170577091Y-116847020D02*
X170624710Y-116942258D01*
X170624710Y-116942258D02*
X170719948Y-117037497D01*
X170719948Y-117037497D02*
X170862805Y-117085116D01*
X170862805Y-117085116D02*
X171100900Y-117085116D01*
X169577091Y-117085116D02*
X170148519Y-117085116D01*
X169862805Y-117085116D02*
X169862805Y-116085116D01*
X169862805Y-116085116D02*
X169958043Y-116227973D01*
X169958043Y-116227973D02*
X170053281Y-116323211D01*
X170053281Y-116323211D02*
X170148519Y-116370830D01*
X155511663Y-97527116D02*
X155844996Y-97050925D01*
X156083091Y-97527116D02*
X156083091Y-96527116D01*
X156083091Y-96527116D02*
X155702139Y-96527116D01*
X155702139Y-96527116D02*
X155606901Y-96574735D01*
X155606901Y-96574735D02*
X155559282Y-96622354D01*
X155559282Y-96622354D02*
X155511663Y-96717592D01*
X155511663Y-96717592D02*
X155511663Y-96860449D01*
X155511663Y-96860449D02*
X155559282Y-96955687D01*
X155559282Y-96955687D02*
X155606901Y-97003306D01*
X155606901Y-97003306D02*
X155702139Y-97050925D01*
X155702139Y-97050925D02*
X156083091Y-97050925D01*
X154559282Y-97527116D02*
X155130710Y-97527116D01*
X154844996Y-97527116D02*
X154844996Y-96527116D01*
X154844996Y-96527116D02*
X154940234Y-96669973D01*
X154940234Y-96669973D02*
X155035472Y-96765211D01*
X155035472Y-96765211D02*
X155130710Y-96812830D01*
X153940234Y-96527116D02*
X153844996Y-96527116D01*
X153844996Y-96527116D02*
X153749758Y-96574735D01*
X153749758Y-96574735D02*
X153702139Y-96622354D01*
X153702139Y-96622354D02*
X153654520Y-96717592D01*
X153654520Y-96717592D02*
X153606901Y-96908068D01*
X153606901Y-96908068D02*
X153606901Y-97146163D01*
X153606901Y-97146163D02*
X153654520Y-97336639D01*
X153654520Y-97336639D02*
X153702139Y-97431877D01*
X153702139Y-97431877D02*
X153749758Y-97479497D01*
X153749758Y-97479497D02*
X153844996Y-97527116D01*
X153844996Y-97527116D02*
X153940234Y-97527116D01*
X153940234Y-97527116D02*
X154035472Y-97479497D01*
X154035472Y-97479497D02*
X154083091Y-97431877D01*
X154083091Y-97431877D02*
X154130710Y-97336639D01*
X154130710Y-97336639D02*
X154178329Y-97146163D01*
X154178329Y-97146163D02*
X154178329Y-96908068D01*
X154178329Y-96908068D02*
X154130710Y-96717592D01*
X154130710Y-96717592D02*
X154083091Y-96622354D01*
X154083091Y-96622354D02*
X154035472Y-96574735D01*
X154035472Y-96574735D02*
X153940234Y-96527116D01*
X165417663Y-86605116D02*
X165750996Y-86128925D01*
X165989091Y-86605116D02*
X165989091Y-85605116D01*
X165989091Y-85605116D02*
X165608139Y-85605116D01*
X165608139Y-85605116D02*
X165512901Y-85652735D01*
X165512901Y-85652735D02*
X165465282Y-85700354D01*
X165465282Y-85700354D02*
X165417663Y-85795592D01*
X165417663Y-85795592D02*
X165417663Y-85938449D01*
X165417663Y-85938449D02*
X165465282Y-86033687D01*
X165465282Y-86033687D02*
X165512901Y-86081306D01*
X165512901Y-86081306D02*
X165608139Y-86128925D01*
X165608139Y-86128925D02*
X165989091Y-86128925D01*
X164465282Y-86605116D02*
X165036710Y-86605116D01*
X164750996Y-86605116D02*
X164750996Y-85605116D01*
X164750996Y-85605116D02*
X164846234Y-85747973D01*
X164846234Y-85747973D02*
X164941472Y-85843211D01*
X164941472Y-85843211D02*
X165036710Y-85890830D01*
X164084329Y-85700354D02*
X164036710Y-85652735D01*
X164036710Y-85652735D02*
X163941472Y-85605116D01*
X163941472Y-85605116D02*
X163703377Y-85605116D01*
X163703377Y-85605116D02*
X163608139Y-85652735D01*
X163608139Y-85652735D02*
X163560520Y-85700354D01*
X163560520Y-85700354D02*
X163512901Y-85795592D01*
X163512901Y-85795592D02*
X163512901Y-85890830D01*
X163512901Y-85890830D02*
X163560520Y-86033687D01*
X163560520Y-86033687D02*
X164131948Y-86605116D01*
X164131948Y-86605116D02*
X163512901Y-86605116D01*
D13*
X143211806Y-86923389D02*
X143211806Y-87377517D01*
X144681806Y-86923389D02*
X144681806Y-87377517D01*
X173559641Y-107658735D02*
X173238524Y-107337618D01*
X174599088Y-106619288D02*
X174277971Y-106298171D01*
X181277553Y-105735453D02*
X181800059Y-105735453D01*
X181277553Y-107205453D02*
X181800059Y-107205453D01*
D14*
X173584790Y-118404733D02*
X173160526Y-117980469D01*
X174610095Y-118793641D02*
X178711314Y-114692422D01*
X174751517Y-114975265D02*
X175953598Y-113773183D01*
X177898142Y-113242853D02*
X178322406Y-113667117D01*
D15*
X176336441Y-111793284D02*
G75*
G02*
X176136441Y-111793284I-100000J0D01*
G01*
X176136441Y-111793284D02*
G75*
G02*
X176336441Y-111793284I100000J0D01*
G01*
D13*
X147021806Y-70375517D02*
X147021806Y-69921389D01*
X148491806Y-70375517D02*
X148491806Y-69921389D01*
X157181806Y-70375517D02*
X157181806Y-69921389D01*
X158651806Y-70375517D02*
X158651806Y-69921389D01*
X174399870Y-93289453D02*
X173945742Y-93289453D01*
X174399870Y-94759453D02*
X173945742Y-94759453D01*
X127971742Y-96591453D02*
X128425870Y-96591453D01*
X127971742Y-98061453D02*
X128425870Y-98061453D01*
X132797806Y-111269517D02*
X132797806Y-110815389D01*
X134267806Y-111269517D02*
X134267806Y-110815389D01*
X174954343Y-109100702D02*
X175944293Y-108110752D01*
X175378608Y-110514916D02*
X174954343Y-110090651D01*
X176934242Y-108110752D02*
X177358507Y-108535017D01*
X177358507Y-109524966D02*
X176368557Y-110514916D01*
X174954343Y-110090651D02*
G75*
G02*
X174954343Y-109100703I494974J494974D01*
G01*
X175944293Y-108110752D02*
G75*
G02*
X176934242Y-108110751I494975J-494975D01*
G01*
X176368557Y-110514916D02*
G75*
G02*
X175378607Y-110514917I-494975J494971D01*
G01*
X177358507Y-108535017D02*
G75*
G02*
X177358507Y-109524966I-494975J-494974D01*
G01*
D14*
X176275806Y-99913454D02*
X181075806Y-99913454D01*
X176275806Y-105153454D02*
X174175806Y-105153454D01*
X176275806Y-105153454D02*
X176275806Y-99913454D01*
X181075806Y-99913454D02*
X181075806Y-105153454D01*
X181075806Y-105153454D02*
X176275806Y-105153454D01*
D13*
X134215056Y-86296203D02*
X119991056Y-86296203D01*
X119991056Y-89725203D01*
X134215056Y-89725203D01*
X134215056Y-86296203D01*
G36*
X134215056Y-86296203D02*
G01*
X119991056Y-86296203D01*
X119991056Y-89725203D01*
X134215056Y-89725203D01*
X134215056Y-86296203D01*
G37*
D10*
X134596056Y-85915203D02*
X119596056Y-85915203D01*
X119596056Y-90115203D01*
X134596056Y-90115203D01*
X134596056Y-85915203D01*
D13*
X140671806Y-92981517D02*
X140671806Y-92527389D01*
X142141806Y-92981517D02*
X142141806Y-92527389D01*
X134321806Y-118127517D02*
X134321806Y-117673389D01*
X135791806Y-118127517D02*
X135791806Y-117673389D01*
X174453806Y-85907389D02*
X174453806Y-86361517D01*
X175923806Y-85907389D02*
X175923806Y-86361517D01*
D14*
X142032806Y-102878453D02*
X163132806Y-102878453D01*
X142032806Y-109828453D02*
X142032806Y-102878453D01*
X142032806Y-116828453D02*
X142032806Y-122678453D01*
X142032806Y-122678453D02*
X147082806Y-122678453D01*
X158082806Y-122678453D02*
X163132806Y-122678453D01*
X163132806Y-102878453D02*
X163132806Y-109828453D01*
X163132806Y-122678453D02*
X163132806Y-116828453D01*
D13*
X181792806Y-86912453D02*
X181792806Y-89960453D01*
X126955742Y-101417453D02*
X127409870Y-101417453D01*
X126955742Y-102887453D02*
X127409870Y-102887453D01*
X127409870Y-99131453D02*
X126955742Y-99131453D01*
X127409870Y-100601453D02*
X126955742Y-100601453D01*
X124332806Y-106646453D02*
X124332806Y-107446453D01*
X124332806Y-108246453D02*
X124332806Y-107446453D01*
X125262806Y-108246453D02*
X124332806Y-108246453D01*
X126562806Y-108246453D02*
X127492806Y-108246453D01*
X127492806Y-106786453D02*
X127492806Y-108246453D01*
X124302806Y-106146453D02*
X123972806Y-106386453D01*
X123972806Y-105906453D01*
X124302806Y-106146453D01*
G36*
X124302806Y-106146453D02*
G01*
X123972806Y-106386453D01*
X123972806Y-105906453D01*
X124302806Y-106146453D01*
G37*
D16*
G36*
X168034909Y-96701805D02*
G01*
X168030649Y-96795645D01*
X168025173Y-96898826D01*
X168019840Y-96982425D01*
X168015091Y-97039634D01*
X168011371Y-97063646D01*
X168008889Y-97066954D01*
X167978090Y-97078328D01*
X167938992Y-97073088D01*
X167914796Y-97053638D01*
X167913152Y-97038688D01*
X167912360Y-96987971D01*
X167913384Y-96909500D01*
X167916111Y-96810540D01*
X167920424Y-96698359D01*
X167934806Y-96368099D01*
X167992164Y-96361537D01*
X168049521Y-96354976D01*
X168034909Y-96701805D01*
G37*
G36*
X167762417Y-96340606D02*
G01*
X167777630Y-96354552D01*
X167783706Y-96389449D01*
X167784806Y-96454834D01*
X167783451Y-96506117D01*
X167778359Y-96559412D01*
X167770782Y-96585628D01*
X167761346Y-96591230D01*
X167725782Y-96593767D01*
X167725164Y-96593642D01*
X167706611Y-96578221D01*
X167695172Y-96537019D01*
X167688852Y-96462972D01*
X167687968Y-96444041D01*
X167686543Y-96383848D01*
X167691500Y-96352271D01*
X167706162Y-96340087D01*
X167733852Y-96338075D01*
X167733905Y-96338075D01*
X167762417Y-96340606D01*
G37*
G36*
X163823221Y-96378357D02*
G01*
X163837835Y-96381880D01*
X163849360Y-96393262D01*
X163858544Y-96417090D01*
X163866136Y-96457953D01*
X163872884Y-96520438D01*
X163879536Y-96609133D01*
X163886841Y-96728626D01*
X163895547Y-96883504D01*
X163907482Y-97098674D01*
X163849200Y-97098674D01*
X163790918Y-97098674D01*
X163777953Y-96873497D01*
X163774369Y-96806031D01*
X163769516Y-96694801D01*
X163766168Y-96591931D01*
X163764897Y-96513213D01*
X163764927Y-96487124D01*
X163766581Y-96426127D01*
X163773052Y-96393537D01*
X163787504Y-96380486D01*
X163813100Y-96378106D01*
X163823221Y-96378357D01*
G37*
G36*
X164389278Y-96359462D02*
G01*
X164432887Y-96363268D01*
X164455316Y-96371396D01*
X164463608Y-96385435D01*
X164464806Y-96406979D01*
X164464753Y-96412119D01*
X164458352Y-96441049D01*
X164433653Y-96455342D01*
X164379806Y-96462023D01*
X164294806Y-96468177D01*
X164302316Y-96773418D01*
X164309826Y-97078658D01*
X164257316Y-97078658D01*
X164221509Y-97072166D01*
X164202444Y-97053638D01*
X164202188Y-97050405D01*
X164200063Y-97014072D01*
X164196619Y-96947823D01*
X164192273Y-96859865D01*
X164187444Y-96758406D01*
X164174806Y-96488193D01*
X164090805Y-96482087D01*
X164056435Y-96478307D01*
X164013544Y-96463545D01*
X163993665Y-96434553D01*
X163990247Y-96421258D01*
X163992654Y-96394767D01*
X164014755Y-96376740D01*
X164061609Y-96365671D01*
X164138274Y-96360058D01*
X164249806Y-96358397D01*
X164317445Y-96358384D01*
X164389278Y-96359462D01*
G37*
G36*
X165144806Y-97379494D02*
G01*
X165314806Y-97379994D01*
X166380457Y-98435276D01*
X166464006Y-98518012D01*
X166657061Y-98709293D01*
X166824097Y-98875175D01*
X166966835Y-99017643D01*
X167086999Y-99138685D01*
X167186312Y-99240287D01*
X167266496Y-99324434D01*
X167329276Y-99393114D01*
X167376374Y-99448313D01*
X167409513Y-99492018D01*
X167430417Y-99526213D01*
X167440807Y-99552887D01*
X167442409Y-99574025D01*
X167436944Y-99591613D01*
X167426135Y-99607639D01*
X167411707Y-99624088D01*
X167373110Y-99648912D01*
X167317072Y-99660691D01*
X167308277Y-99659662D01*
X167291904Y-99653543D01*
X167269833Y-99640350D01*
X167240190Y-99618306D01*
X167201102Y-99585633D01*
X167150695Y-99540552D01*
X167087097Y-99481285D01*
X167008433Y-99406054D01*
X166912831Y-99313081D01*
X166798417Y-99200587D01*
X166663317Y-99066795D01*
X166505659Y-98909925D01*
X166323568Y-98728201D01*
X166115172Y-98519843D01*
X164974806Y-97378994D01*
X165144806Y-97379494D01*
G37*
G36*
X166625927Y-96331390D02*
G01*
X166732832Y-96374379D01*
X166817744Y-96447726D01*
X166876088Y-96548812D01*
X166896656Y-96628527D01*
X166896598Y-96739878D01*
X166866424Y-96844739D01*
X166809165Y-96933921D01*
X166727850Y-96998237D01*
X166682458Y-97016585D01*
X166585424Y-97034916D01*
X166481040Y-97035272D01*
X166387791Y-97016653D01*
X166386884Y-97016336D01*
X166339512Y-96993647D01*
X166326942Y-96964937D01*
X166344344Y-96919398D01*
X166348700Y-96911641D01*
X166365368Y-96894769D01*
X166393180Y-96894883D01*
X166445149Y-96910885D01*
X166538772Y-96926751D01*
X166626438Y-96910334D01*
X166699453Y-96866556D01*
X166752782Y-96801627D01*
X166781389Y-96721758D01*
X166780238Y-96633156D01*
X166744294Y-96542032D01*
X166734002Y-96526617D01*
X166665151Y-96463739D01*
X166575402Y-96429226D01*
X166474362Y-96427166D01*
X166445380Y-96430720D01*
X166395162Y-96428222D01*
X166364736Y-96408046D01*
X166353092Y-96389685D01*
X166357433Y-96358823D01*
X166400010Y-96336684D01*
X166481298Y-96322920D01*
X166501602Y-96321374D01*
X166625927Y-96331390D01*
G37*
G36*
X163638771Y-96845753D02*
G01*
X163604026Y-96952161D01*
X163536690Y-97036551D01*
X163434806Y-97102061D01*
X163331732Y-97130606D01*
X163223300Y-97125394D01*
X163119632Y-97089546D01*
X163030381Y-97026407D01*
X162965202Y-96939323D01*
X162931985Y-96843625D01*
X162930577Y-96808207D01*
X163038859Y-96808207D01*
X163067257Y-96894103D01*
X163126926Y-96967285D01*
X163161218Y-96991273D01*
X163245794Y-97019925D01*
X163333774Y-97016425D01*
X163415928Y-96983671D01*
X163483028Y-96924562D01*
X163525842Y-96841998D01*
X163535864Y-96786556D01*
X163525228Y-96697810D01*
X163485337Y-96621297D01*
X163422868Y-96562498D01*
X163344501Y-96526897D01*
X163256913Y-96519976D01*
X163166783Y-96547217D01*
X163132301Y-96568978D01*
X163072280Y-96636170D01*
X163040833Y-96719071D01*
X163038859Y-96808207D01*
X162930577Y-96808207D01*
X162927563Y-96732402D01*
X162956066Y-96626926D01*
X163014130Y-96534497D01*
X163098392Y-96462414D01*
X163205486Y-96417975D01*
X163295007Y-96407045D01*
X163405630Y-96424090D01*
X163501661Y-96472956D01*
X163577360Y-96549109D01*
X163626988Y-96648012D01*
X163644806Y-96765132D01*
X163643202Y-96786556D01*
X163638771Y-96845753D01*
G37*
G36*
X168292513Y-96358778D02*
G01*
X168307668Y-96365278D01*
X168317311Y-96384432D01*
X168323041Y-96423083D01*
X168326461Y-96488071D01*
X168329172Y-96586239D01*
X168334806Y-96814387D01*
X168584806Y-96595698D01*
X168639084Y-96547888D01*
X168716255Y-96480245D01*
X168772329Y-96435923D01*
X168810325Y-96417310D01*
X168833258Y-96426794D01*
X168844146Y-96466761D01*
X168846005Y-96539599D01*
X168841851Y-96647694D01*
X168834701Y-96793433D01*
X168820595Y-97098674D01*
X168760728Y-97098674D01*
X168700861Y-97098674D01*
X168715405Y-96865721D01*
X168720673Y-96772841D01*
X168722748Y-96703965D01*
X168720617Y-96664166D01*
X168713940Y-96647796D01*
X168702378Y-96649206D01*
X168699473Y-96651141D01*
X168669585Y-96675108D01*
X168617907Y-96719351D01*
X168550846Y-96778317D01*
X168474806Y-96846453D01*
X168462193Y-96857853D01*
X168384639Y-96927823D01*
X168315285Y-96990199D01*
X168261284Y-97038557D01*
X168229787Y-97066475D01*
X168184767Y-97105689D01*
X168195572Y-96856988D01*
X168200029Y-96762213D01*
X168205955Y-96651927D01*
X168211936Y-96554374D01*
X168217183Y-96483189D01*
X168224272Y-96415391D01*
X168233599Y-96377478D01*
X168249339Y-96361418D01*
X168275764Y-96358091D01*
X168292513Y-96358778D01*
G37*
G36*
X166224806Y-96675771D02*
G01*
X166224806Y-97038627D01*
X166164806Y-97038627D01*
X166104806Y-97038627D01*
X166104806Y-96908524D01*
X166104775Y-96885793D01*
X166103161Y-96825245D01*
X166096517Y-96793199D01*
X166081312Y-96780608D01*
X166054013Y-96778422D01*
X166033864Y-96781024D01*
X166002877Y-96798808D01*
X165967289Y-96839114D01*
X165920341Y-96908524D01*
X165905581Y-96931530D01*
X165865946Y-96989140D01*
X165835596Y-97021412D01*
X165806219Y-97035518D01*
X165769503Y-97038627D01*
X165701544Y-97038627D01*
X165746690Y-96963567D01*
X165753933Y-96951620D01*
X165794517Y-96886944D01*
X165831558Y-96830830D01*
X165845616Y-96809017D01*
X165859258Y-96771316D01*
X165847920Y-96740759D01*
X165791060Y-96641613D01*
X165770317Y-96548708D01*
X165775476Y-96524380D01*
X165888346Y-96524380D01*
X165889090Y-96581118D01*
X165924806Y-96638311D01*
X165963581Y-96663924D01*
X166034806Y-96678343D01*
X166104806Y-96678343D01*
X166104806Y-96558248D01*
X166104806Y-96438154D01*
X166027906Y-96438154D01*
X165974747Y-96445338D01*
X165918318Y-96476365D01*
X165888346Y-96524380D01*
X165775476Y-96524380D01*
X165788158Y-96464576D01*
X165844573Y-96388338D01*
X165852154Y-96381198D01*
X165886397Y-96354496D01*
X165925325Y-96338126D01*
X165980711Y-96328546D01*
X166064324Y-96322213D01*
X166224806Y-96312916D01*
X166224806Y-96438154D01*
X166224806Y-96675771D01*
G37*
G36*
X170948626Y-96837820D02*
G01*
X170940214Y-96940544D01*
X170930702Y-97040300D01*
X170920743Y-97128454D01*
X170910992Y-97196370D01*
X170899372Y-97264043D01*
X170758518Y-97250942D01*
X170697909Y-97243228D01*
X170572613Y-97208700D01*
X170477687Y-97150907D01*
X170410740Y-97068593D01*
X170372980Y-96966471D01*
X170370069Y-96902960D01*
X170484806Y-96902960D01*
X170502414Y-96994115D01*
X170553942Y-97068659D01*
X170635342Y-97118893D01*
X170680074Y-97131221D01*
X170743838Y-97138705D01*
X170762483Y-97138036D01*
X170781833Y-97132101D01*
X170796153Y-97115119D01*
X170807135Y-97081320D01*
X170816471Y-97024939D01*
X170825854Y-96940208D01*
X170836976Y-96821361D01*
X170841329Y-96764190D01*
X170840339Y-96698624D01*
X170826085Y-96660688D01*
X170794818Y-96643111D01*
X170742791Y-96638618D01*
X170719598Y-96639301D01*
X170623139Y-96663160D01*
X170549071Y-96717909D01*
X170501569Y-96799268D01*
X170484806Y-96902960D01*
X170370069Y-96902960D01*
X170367952Y-96856773D01*
X170394597Y-96750982D01*
X170450559Y-96658315D01*
X170533485Y-96587989D01*
X170578576Y-96564424D01*
X170629396Y-96548046D01*
X170692702Y-96540229D01*
X170782191Y-96538233D01*
X170855361Y-96539261D01*
X170912640Y-96543997D01*
X170944376Y-96553902D01*
X170958399Y-96570407D01*
X170960717Y-96598172D01*
X170959531Y-96657999D01*
X170955282Y-96740760D01*
X170953675Y-96764190D01*
X170948626Y-96837820D01*
G37*
G36*
X167379758Y-96339327D02*
G01*
X167431800Y-96346276D01*
X167469215Y-96363857D01*
X167506345Y-96396583D01*
X167550593Y-96455990D01*
X167564806Y-96523196D01*
X167558361Y-96569940D01*
X167526297Y-96624691D01*
X167463279Y-96672572D01*
X167364806Y-96717965D01*
X167319297Y-96737211D01*
X167245097Y-96780961D01*
X167209287Y-96825011D01*
X167212382Y-96868463D01*
X167254892Y-96910421D01*
X167282553Y-96924035D01*
X167356465Y-96939733D01*
X167436723Y-96938487D01*
X167502912Y-96919547D01*
X167508028Y-96916892D01*
X167540802Y-96910265D01*
X167563967Y-96936977D01*
X167582178Y-96981731D01*
X167573111Y-97012581D01*
X167529806Y-97035378D01*
X167474305Y-97050316D01*
X167374386Y-97056950D01*
X167275733Y-97042683D01*
X167190400Y-97009777D01*
X167130443Y-96960492D01*
X167125993Y-96953291D01*
X167111576Y-96906587D01*
X167105443Y-96846202D01*
X167114390Y-96781177D01*
X167150732Y-96719140D01*
X167218862Y-96667032D01*
X167322873Y-96620608D01*
X167397311Y-96588491D01*
X167444231Y-96553030D01*
X167454733Y-96515570D01*
X167430660Y-96473600D01*
X167423027Y-96465775D01*
X167392972Y-96447228D01*
X167347909Y-96439971D01*
X167275585Y-96441467D01*
X167228027Y-96443531D01*
X167180787Y-96441615D01*
X167157414Y-96431396D01*
X167148246Y-96410529D01*
X167149995Y-96377806D01*
X167175834Y-96354715D01*
X167231313Y-96342256D01*
X167321345Y-96338381D01*
X167379758Y-96339327D01*
G37*
G36*
X169076496Y-96398122D02*
G01*
X169106883Y-96401833D01*
X169133352Y-96415783D01*
X169135985Y-96434038D01*
X169136129Y-96485666D01*
X169133028Y-96560967D01*
X169126928Y-96650968D01*
X169121187Y-96725160D01*
X169115814Y-96800074D01*
X169112636Y-96851554D01*
X169112202Y-96871369D01*
X169124021Y-96862719D01*
X169161780Y-96831912D01*
X169220709Y-96782712D01*
X169295905Y-96719216D01*
X169382469Y-96645520D01*
X169458751Y-96580743D01*
X169535967Y-96516126D01*
X169597717Y-96465511D01*
X169639058Y-96432944D01*
X169655047Y-96422470D01*
X169655261Y-96424484D01*
X169654307Y-96454583D01*
X169651112Y-96514703D01*
X169646189Y-96597153D01*
X169640049Y-96694245D01*
X169633205Y-96798291D01*
X169626168Y-96901602D01*
X169619451Y-96996489D01*
X169613566Y-97075263D01*
X169609025Y-97130235D01*
X169606340Y-97153717D01*
X169591448Y-97157082D01*
X169551806Y-97158721D01*
X169498805Y-97158721D01*
X169512486Y-96916457D01*
X169526166Y-96674193D01*
X169378406Y-96801367D01*
X169358009Y-96818933D01*
X169270729Y-96894276D01*
X169180683Y-96972229D01*
X169104435Y-97038457D01*
X168978223Y-97148374D01*
X168991722Y-96948386D01*
X168998666Y-96845233D01*
X169008196Y-96704756D01*
X169015934Y-96597181D01*
X169022553Y-96518135D01*
X169028727Y-96463246D01*
X169035130Y-96428141D01*
X169042434Y-96408449D01*
X169051314Y-96399797D01*
X169062444Y-96397812D01*
X169076496Y-96398122D01*
G37*
G36*
X162764378Y-96438247D02*
G01*
X162771193Y-96459430D01*
X162778772Y-96512439D01*
X162786220Y-96589626D01*
X162792643Y-96683347D01*
X162798181Y-96775400D01*
X162805401Y-96882713D01*
X162812488Y-96976539D01*
X162818493Y-97043630D01*
X162830505Y-97158721D01*
X162770126Y-97158721D01*
X162709748Y-97158721D01*
X162692277Y-96924726D01*
X162674806Y-96690730D01*
X162445460Y-96956713D01*
X162395812Y-97014131D01*
X162326050Y-97093578D01*
X162276228Y-97147578D01*
X162242653Y-97179461D01*
X162221631Y-97192556D01*
X162209467Y-97190191D01*
X162202469Y-97175696D01*
X162199718Y-97162668D01*
X162192499Y-97110301D01*
X162183864Y-97030278D01*
X162174665Y-96930856D01*
X162165755Y-96820290D01*
X162159511Y-96733267D01*
X162153833Y-96630447D01*
X162153578Y-96558950D01*
X162159647Y-96513636D01*
X162172941Y-96489366D01*
X162194360Y-96480999D01*
X162224806Y-96483397D01*
X162231641Y-96486321D01*
X162244379Y-96506363D01*
X162255075Y-96549704D01*
X162264868Y-96621915D01*
X162274894Y-96728565D01*
X162277134Y-96754732D01*
X162286806Y-96851268D01*
X162295928Y-96911529D01*
X162305093Y-96938580D01*
X162314894Y-96935488D01*
X162320603Y-96927072D01*
X162350710Y-96889072D01*
X162398369Y-96832857D01*
X162458108Y-96764484D01*
X162524460Y-96690011D01*
X162591954Y-96615496D01*
X162655121Y-96546995D01*
X162708490Y-96490566D01*
X162746594Y-96452266D01*
X162763962Y-96438154D01*
X162764378Y-96438247D01*
G37*
G36*
X165561239Y-96326289D02*
G01*
X165587248Y-96329577D01*
X165592043Y-96345829D01*
X165597136Y-96396599D01*
X165601179Y-96475147D01*
X165603845Y-96574781D01*
X165604806Y-96688807D01*
X165604806Y-97037177D01*
X165409806Y-97044050D01*
X165332928Y-97046763D01*
X165246624Y-97049190D01*
X165189700Y-97048625D01*
X165155790Y-97043924D01*
X165138528Y-97033946D01*
X165131546Y-97017549D01*
X165128478Y-96993591D01*
X165122150Y-96938548D01*
X165313478Y-96938548D01*
X165504806Y-96938548D01*
X165504500Y-96863489D01*
X165504338Y-96853770D01*
X165499116Y-96799269D01*
X165488917Y-96764376D01*
X165463138Y-96751417D01*
X165405248Y-96740672D01*
X165324223Y-96734352D01*
X165294487Y-96733085D01*
X165229256Y-96728552D01*
X165192336Y-96720662D01*
X165174973Y-96706548D01*
X165168415Y-96683347D01*
X165166895Y-96665646D01*
X165173242Y-96650298D01*
X165196261Y-96642133D01*
X165243727Y-96638890D01*
X165323415Y-96638311D01*
X165484806Y-96638311D01*
X165484806Y-96538233D01*
X165484806Y-96438154D01*
X165304806Y-96438154D01*
X165298043Y-96438153D01*
X165215171Y-96437594D01*
X165164102Y-96434624D01*
X165137144Y-96427235D01*
X165126609Y-96413420D01*
X165124806Y-96391173D01*
X165125304Y-96377533D01*
X165131216Y-96361294D01*
X165149463Y-96350419D01*
X165186948Y-96343056D01*
X165250576Y-96337352D01*
X165347248Y-96331454D01*
X165424963Y-96327734D01*
X165504189Y-96325698D01*
X165561239Y-96326289D01*
G37*
G36*
X164982603Y-96797462D02*
G01*
X165022522Y-96887458D01*
X165054993Y-96962350D01*
X165076820Y-97015100D01*
X165084806Y-97038670D01*
X165074144Y-97051351D01*
X165038225Y-97058642D01*
X165006899Y-97050603D01*
X164977646Y-97019883D01*
X164944806Y-96958564D01*
X164897969Y-96858485D01*
X164773042Y-96858485D01*
X164648115Y-96858485D01*
X164612487Y-96953560D01*
X164599059Y-96986896D01*
X164574612Y-97037183D01*
X164555833Y-97063340D01*
X164552483Y-97065507D01*
X164516180Y-97077017D01*
X164480751Y-97075291D01*
X164464806Y-97060839D01*
X164465436Y-97057272D01*
X164476323Y-97023584D01*
X164498656Y-96962209D01*
X164529726Y-96880453D01*
X164566827Y-96785623D01*
X164571701Y-96773317D01*
X164577582Y-96758406D01*
X164687234Y-96758406D01*
X164767687Y-96758406D01*
X164786766Y-96757968D01*
X164828114Y-96752704D01*
X164841373Y-96743394D01*
X164839499Y-96739026D01*
X164825684Y-96704633D01*
X164805689Y-96653323D01*
X164799066Y-96637010D01*
X164778012Y-96595071D01*
X164762669Y-96578264D01*
X164756417Y-96583172D01*
X164738546Y-96615594D01*
X164717901Y-96668335D01*
X164687234Y-96758406D01*
X164577582Y-96758406D01*
X164613293Y-96667857D01*
X164652881Y-96566730D01*
X164686194Y-96480886D01*
X164708961Y-96421275D01*
X164728124Y-96375876D01*
X164749535Y-96338837D01*
X164763465Y-96331204D01*
X164765729Y-96334469D01*
X164783195Y-96367278D01*
X164812396Y-96427215D01*
X164850134Y-96507240D01*
X164893212Y-96600315D01*
X164938434Y-96699402D01*
X164958249Y-96743394D01*
X164982603Y-96797462D01*
G37*
G36*
X170227594Y-96906227D02*
G01*
X170261537Y-97007136D01*
X170289460Y-97089723D01*
X170309148Y-97147439D01*
X170318386Y-97173733D01*
X170311864Y-97191901D01*
X170269072Y-97198753D01*
X170254028Y-97198388D01*
X170222796Y-97190108D01*
X170202724Y-97163070D01*
X170184342Y-97107020D01*
X170165692Y-97055655D01*
X170129121Y-97009029D01*
X170071914Y-96985240D01*
X169985220Y-96978579D01*
X169949284Y-96980121D01*
X169914628Y-96991349D01*
X169884709Y-97020840D01*
X169847674Y-97077086D01*
X169838248Y-97092201D01*
X169802383Y-97142361D01*
X169773893Y-97164271D01*
X169744990Y-97164569D01*
X169720441Y-97153079D01*
X169708838Y-97131113D01*
X169710660Y-97125858D01*
X169727348Y-97089191D01*
X169757690Y-97028027D01*
X169798137Y-96949044D01*
X169840639Y-96867557D01*
X169968411Y-96867557D01*
X169969003Y-96867943D01*
X169993671Y-96875266D01*
X170039806Y-96885133D01*
X170044360Y-96885971D01*
X170084850Y-96887832D01*
X170102582Y-96871005D01*
X170099209Y-96829769D01*
X170076379Y-96758406D01*
X170050995Y-96688351D01*
X170006506Y-96775357D01*
X169991588Y-96805619D01*
X169972939Y-96848483D01*
X169968411Y-96867557D01*
X169840639Y-96867557D01*
X169845143Y-96858921D01*
X169895159Y-96764337D01*
X169944638Y-96671970D01*
X169990034Y-96588498D01*
X170027798Y-96520601D01*
X170054384Y-96474956D01*
X170066243Y-96458243D01*
X170075168Y-96474540D01*
X170094624Y-96523156D01*
X170122239Y-96598162D01*
X170155815Y-96693583D01*
X170193156Y-96803441D01*
X170215793Y-96871005D01*
X170227594Y-96906227D01*
G37*
G36*
X161865536Y-96534397D02*
G01*
X161943368Y-96573885D01*
X161997004Y-96644478D01*
X162005953Y-96665544D01*
X162015751Y-96727395D01*
X161994493Y-96783740D01*
X161939484Y-96839168D01*
X161848031Y-96898269D01*
X161774855Y-96943602D01*
X161713159Y-96996137D01*
X161689851Y-97041758D01*
X161704544Y-97081395D01*
X161756848Y-97115978D01*
X161772455Y-97122690D01*
X161823942Y-97135863D01*
X161879548Y-97131224D01*
X161954806Y-97108160D01*
X161966456Y-97104012D01*
X162013374Y-97090326D01*
X162039865Y-97093070D01*
X162059806Y-97112864D01*
X162072864Y-97131596D01*
X162081569Y-97159339D01*
X162062215Y-97180916D01*
X162009806Y-97205588D01*
X161974962Y-97216863D01*
X161898259Y-97231561D01*
X161818268Y-97237753D01*
X161777688Y-97237534D01*
X161721933Y-97231645D01*
X161682319Y-97214264D01*
X161643268Y-97180277D01*
X161625957Y-97161813D01*
X161593499Y-97107666D01*
X161584806Y-97039451D01*
X161587391Y-96999583D01*
X161602555Y-96952839D01*
X161636558Y-96910350D01*
X161695331Y-96865340D01*
X161784806Y-96811034D01*
X161784933Y-96810962D01*
X161858388Y-96760552D01*
X161892401Y-96716042D01*
X161887054Y-96677189D01*
X161842431Y-96643752D01*
X161807444Y-96631243D01*
X161761985Y-96630751D01*
X161697135Y-96646616D01*
X161660191Y-96657364D01*
X161620201Y-96664883D01*
X161598490Y-96657637D01*
X161582658Y-96634293D01*
X161582105Y-96633252D01*
X161571428Y-96599156D01*
X161585079Y-96574223D01*
X161628238Y-96554295D01*
X161706081Y-96535216D01*
X161765296Y-96526687D01*
X161865536Y-96534397D01*
G37*
G36*
X170104676Y-94468044D02*
G01*
X170148953Y-94523938D01*
X170164806Y-94605062D01*
X170157111Y-94672885D01*
X170127685Y-94724200D01*
X170109832Y-94735650D01*
X170057817Y-94762894D01*
X169978620Y-94801413D01*
X169877716Y-94848611D01*
X169760579Y-94901897D01*
X169632685Y-94958676D01*
X169533040Y-95002597D01*
X169415699Y-95054899D01*
X169314457Y-95100678D01*
X169234464Y-95137581D01*
X169180868Y-95163254D01*
X169158816Y-95175342D01*
X169158085Y-95176181D01*
X169158409Y-95182589D01*
X169169252Y-95192405D01*
X169193888Y-95207186D01*
X169235595Y-95228492D01*
X169297646Y-95257879D01*
X169383318Y-95296906D01*
X169495885Y-95347131D01*
X169638623Y-95410112D01*
X169814806Y-95487408D01*
X169842473Y-95499648D01*
X169938504Y-95544020D01*
X170022195Y-95585471D01*
X170085359Y-95619826D01*
X170119806Y-95642911D01*
X170138422Y-95665361D01*
X170162263Y-95731291D01*
X170161005Y-95805993D01*
X170133672Y-95873259D01*
X170116588Y-95892964D01*
X170077203Y-95912432D01*
X170013156Y-95917744D01*
X169984186Y-95915239D01*
X169943985Y-95906122D01*
X169890403Y-95888864D01*
X169819655Y-95861946D01*
X169727955Y-95823849D01*
X169611518Y-95773055D01*
X169466558Y-95708044D01*
X169289290Y-95627298D01*
X169167369Y-95571007D01*
X169025686Y-95504322D01*
X168898233Y-95442950D01*
X168789465Y-95389101D01*
X168703834Y-95344989D01*
X168645797Y-95312825D01*
X168619806Y-95294821D01*
X168608840Y-95279492D01*
X168586589Y-95210393D01*
X168593808Y-95134997D01*
X168629806Y-95068928D01*
X168645188Y-95057029D01*
X168695616Y-95027382D01*
X168774060Y-94985901D01*
X168875270Y-94935011D01*
X168993998Y-94877139D01*
X169124995Y-94814711D01*
X169263013Y-94750155D01*
X169402802Y-94685896D01*
X169539113Y-94624362D01*
X169666699Y-94567979D01*
X169780310Y-94519174D01*
X169874697Y-94480373D01*
X169944612Y-94454002D01*
X169984806Y-94442489D01*
X170036899Y-94441829D01*
X170104676Y-94468044D01*
G37*
G36*
X162988963Y-98194537D02*
G01*
X162990062Y-98344025D01*
X162991551Y-98520059D01*
X162993192Y-98662922D01*
X162995204Y-98776602D01*
X162997807Y-98865087D01*
X163001218Y-98932364D01*
X163005656Y-98982424D01*
X163011341Y-99019253D01*
X163018489Y-99046840D01*
X163027321Y-99069174D01*
X163038054Y-99090242D01*
X163083895Y-99160082D01*
X163176927Y-99258081D01*
X163284806Y-99333194D01*
X163288663Y-99335197D01*
X163304957Y-99342329D01*
X163325515Y-99348460D01*
X163353316Y-99353682D01*
X163391337Y-99358086D01*
X163442556Y-99361761D01*
X163509952Y-99364800D01*
X163596502Y-99367293D01*
X163705184Y-99369330D01*
X163838977Y-99371003D01*
X164000857Y-99372402D01*
X164193804Y-99373617D01*
X164420794Y-99374741D01*
X164684806Y-99375862D01*
X166014806Y-99381262D01*
X165014882Y-98380078D01*
X164014957Y-97378894D01*
X164184940Y-97378894D01*
X164354924Y-97378894D01*
X165634865Y-98661127D01*
X165641300Y-98667574D01*
X165829322Y-98855778D01*
X166009593Y-99035940D01*
X166180063Y-99206030D01*
X166338684Y-99364016D01*
X166483408Y-99507866D01*
X166612186Y-99635550D01*
X166722969Y-99745037D01*
X166813710Y-99834295D01*
X166882359Y-99901292D01*
X166926868Y-99943999D01*
X166945189Y-99960383D01*
X166955564Y-99964587D01*
X167000234Y-99978559D01*
X167072130Y-99998989D01*
X167164668Y-100024186D01*
X167271262Y-100052460D01*
X167385330Y-100082123D01*
X167500286Y-100111484D01*
X167609548Y-100138854D01*
X167706530Y-100162543D01*
X167784648Y-100180861D01*
X167837319Y-100192118D01*
X167857959Y-100194626D01*
X167857698Y-100188428D01*
X167850171Y-100149959D01*
X167834510Y-100081223D01*
X167812041Y-99987783D01*
X167784085Y-99875201D01*
X167751965Y-99749038D01*
X167639013Y-99310415D01*
X166676987Y-98344655D01*
X165714961Y-97378894D01*
X165890516Y-97378894D01*
X166066070Y-97378894D01*
X166963685Y-98274600D01*
X167064226Y-98374939D01*
X167231556Y-98542069D01*
X167373779Y-98684478D01*
X167493005Y-98804460D01*
X167591347Y-98904309D01*
X167670916Y-98986317D01*
X167733824Y-99052779D01*
X167782182Y-99105988D01*
X167818103Y-99148239D01*
X167843697Y-99181824D01*
X167861078Y-99209038D01*
X167872355Y-99232174D01*
X167879641Y-99253526D01*
X167885048Y-99275388D01*
X167908796Y-99380471D01*
X169113607Y-99380471D01*
X170318418Y-99380471D01*
X170441891Y-99318721D01*
X170449366Y-99314940D01*
X170556059Y-99246960D01*
X170635693Y-99162171D01*
X170699188Y-99049133D01*
X170705139Y-99034708D01*
X170713177Y-99008372D01*
X170719756Y-98974083D01*
X170725066Y-98927829D01*
X170729301Y-98865601D01*
X170732652Y-98783390D01*
X170735310Y-98677186D01*
X170737468Y-98542980D01*
X170739318Y-98376761D01*
X170741052Y-98174521D01*
X170747297Y-97378894D01*
X170867077Y-97378894D01*
X170986857Y-97378894D01*
X170980832Y-98205639D01*
X170974806Y-99032383D01*
X170899360Y-99185103D01*
X170881701Y-99219291D01*
X170789112Y-99357139D01*
X170673340Y-99466801D01*
X170527229Y-99555398D01*
X170414806Y-99610652D01*
X169199806Y-99616250D01*
X168969283Y-99617414D01*
X168745951Y-99618834D01*
X168557539Y-99620445D01*
X168401357Y-99622318D01*
X168274719Y-99624525D01*
X168174937Y-99627139D01*
X168099323Y-99630230D01*
X168045191Y-99633873D01*
X168009852Y-99638138D01*
X167990620Y-99643097D01*
X167984806Y-99648823D01*
X167985256Y-99653620D01*
X167992761Y-99692065D01*
X168008088Y-99758983D01*
X168029386Y-99846500D01*
X168054806Y-99946744D01*
X168061922Y-99974543D01*
X168086519Y-100074925D01*
X168106329Y-100162431D01*
X168119480Y-100228469D01*
X168124098Y-100264447D01*
X168117794Y-100306997D01*
X168081623Y-100380287D01*
X168022605Y-100433389D01*
X168006313Y-100441630D01*
X167977133Y-100451509D01*
X167941623Y-100455824D01*
X167895184Y-100453836D01*
X167833213Y-100444807D01*
X167751110Y-100427998D01*
X167644274Y-100402671D01*
X167508105Y-100368086D01*
X167338001Y-100323507D01*
X166821196Y-100186984D01*
X166538001Y-99904243D01*
X166254806Y-99621501D01*
X164784806Y-99616077D01*
X163314806Y-99610652D01*
X163184806Y-99548712D01*
X163045038Y-99463649D01*
X162918118Y-99342037D01*
X162817989Y-99191151D01*
X162754806Y-99070226D01*
X162748802Y-98224560D01*
X162742797Y-97378894D01*
X162862959Y-97378894D01*
X162983120Y-97378894D01*
X162988963Y-98194537D01*
G37*
G36*
X162984807Y-94306630D02*
G01*
X163783908Y-95106234D01*
X163954807Y-95277240D01*
X164055743Y-95378322D01*
X164213688Y-95536832D01*
X164361635Y-95685724D01*
X164497294Y-95822666D01*
X164618371Y-95945329D01*
X164722575Y-96051385D01*
X164807613Y-96138503D01*
X164871192Y-96204354D01*
X164911021Y-96246609D01*
X164924806Y-96262938D01*
X164923809Y-96264654D01*
X164897741Y-96271454D01*
X164843498Y-96276227D01*
X164770726Y-96278028D01*
X164616645Y-96278028D01*
X164120837Y-95783280D01*
X163625029Y-95288533D01*
X163524634Y-95387497D01*
X163433878Y-95476958D01*
X163424238Y-95486460D01*
X163804522Y-95867420D01*
X163805936Y-95868836D01*
X163906401Y-95970023D01*
X163996834Y-96062122D01*
X164073564Y-96141312D01*
X164132917Y-96203770D01*
X164171222Y-96245674D01*
X164184806Y-96263204D01*
X164183745Y-96264938D01*
X164157432Y-96271596D01*
X164102987Y-96276266D01*
X164030034Y-96278028D01*
X163875261Y-96278028D01*
X163564893Y-95967870D01*
X163254525Y-95657712D01*
X163099124Y-95811731D01*
X162943723Y-95965751D01*
X163084265Y-96107348D01*
X163123847Y-96147819D01*
X163175883Y-96203191D01*
X163211562Y-96243998D01*
X163224806Y-96263487D01*
X163224802Y-96263579D01*
X163205538Y-96269193D01*
X163154144Y-96273787D01*
X163078368Y-96276889D01*
X162985956Y-96278028D01*
X162747106Y-96278028D01*
X162740956Y-96196457D01*
X162739868Y-96185578D01*
X162735976Y-96167175D01*
X162727621Y-96146617D01*
X162712632Y-96121532D01*
X162688837Y-96089550D01*
X162654066Y-96048298D01*
X162606148Y-95995404D01*
X162542910Y-95928497D01*
X162462181Y-95845204D01*
X162361791Y-95743156D01*
X162239567Y-95619978D01*
X162093339Y-95473301D01*
X161920936Y-95300752D01*
X161820261Y-95199876D01*
X161630118Y-95008217D01*
X161619094Y-94996988D01*
X161975160Y-94996988D01*
X162364791Y-95387311D01*
X162374363Y-95396896D01*
X162475844Y-95498118D01*
X162567743Y-95589071D01*
X162646340Y-95666126D01*
X162707915Y-95725656D01*
X162748746Y-95764035D01*
X162765115Y-95777634D01*
X162776425Y-95769687D01*
X162811198Y-95738439D01*
X162862828Y-95689005D01*
X162925024Y-95627296D01*
X163074241Y-95476958D01*
X162679573Y-95081979D01*
X162284904Y-94686999D01*
X162130032Y-94841994D01*
X161975160Y-94996988D01*
X161619094Y-94996988D01*
X161468886Y-94843986D01*
X161336490Y-94707103D01*
X161232853Y-94597487D01*
X161157899Y-94515059D01*
X161111552Y-94459737D01*
X161093734Y-94431442D01*
X161085650Y-94391122D01*
X161084099Y-94356636D01*
X161335140Y-94356636D01*
X161564973Y-94586472D01*
X161794806Y-94816308D01*
X162093923Y-94517205D01*
X162455755Y-94517205D01*
X162845088Y-94907230D01*
X162854389Y-94916544D01*
X162955863Y-95017751D01*
X163047779Y-95108695D01*
X163126412Y-95185746D01*
X163188037Y-95245276D01*
X163228930Y-95283656D01*
X163245366Y-95297255D01*
X163263523Y-95284368D01*
X163301282Y-95250026D01*
X163350310Y-95201745D01*
X163444311Y-95106234D01*
X163049089Y-94711072D01*
X162653867Y-94315910D01*
X162554811Y-94416558D01*
X162455755Y-94517205D01*
X162093923Y-94517205D01*
X162119792Y-94491337D01*
X162171231Y-94439879D01*
X162260250Y-94350723D01*
X162337702Y-94273019D01*
X162399400Y-94210974D01*
X162441157Y-94168796D01*
X162458789Y-94150689D01*
X162457109Y-94143416D01*
X162434618Y-94112232D01*
X162392074Y-94062696D01*
X162335216Y-94000688D01*
X162269785Y-93932087D01*
X162201520Y-93862774D01*
X162136161Y-93798628D01*
X162079448Y-93745529D01*
X162037121Y-93709358D01*
X162014920Y-93695995D01*
X162006559Y-93700853D01*
X161972528Y-93729464D01*
X161917126Y-93780284D01*
X161844557Y-93849344D01*
X161759029Y-93932677D01*
X161664746Y-94026315D01*
X161335140Y-94356636D01*
X161084099Y-94356636D01*
X161083891Y-94352014D01*
X161091809Y-94312721D01*
X161112140Y-94269304D01*
X161147619Y-94217824D01*
X161200980Y-94154342D01*
X161274959Y-94074920D01*
X161372290Y-93975618D01*
X161495709Y-93852497D01*
X161591955Y-93757375D01*
X161699721Y-93652788D01*
X161786360Y-93572287D01*
X161855704Y-93513181D01*
X161911583Y-93472784D01*
X161957828Y-93448406D01*
X161998269Y-93437359D01*
X162036737Y-93436956D01*
X162077062Y-93444509D01*
X162095352Y-93452891D01*
X162147061Y-93490072D01*
X162222494Y-93554582D01*
X162319805Y-93644808D01*
X162437149Y-93759137D01*
X162739491Y-94059328D01*
X162748766Y-93898971D01*
X162750430Y-93873216D01*
X162761979Y-93776947D01*
X162784097Y-93695581D01*
X162821906Y-93608785D01*
X162868337Y-93528653D01*
X162968555Y-93406024D01*
X163089172Y-93303899D01*
X163219873Y-93232041D01*
X163334806Y-93185593D01*
X166864806Y-93185593D01*
X170394806Y-93185593D01*
X170524864Y-93247277D01*
X170628417Y-93307632D01*
X170732944Y-93390215D01*
X170821718Y-93482201D01*
X170883415Y-93573292D01*
X170899319Y-93604848D01*
X170917438Y-93643268D01*
X170932796Y-93681669D01*
X170945623Y-93723389D01*
X170956146Y-93771765D01*
X170964594Y-93830134D01*
X170971193Y-93901834D01*
X170976173Y-93990204D01*
X170979761Y-94098579D01*
X170982186Y-94230298D01*
X170983674Y-94388698D01*
X170984455Y-94577118D01*
X170984757Y-94798894D01*
X170984806Y-95057363D01*
X170984605Y-95264525D01*
X170983992Y-95468029D01*
X170983008Y-95656152D01*
X170981691Y-95825372D01*
X170980080Y-95972169D01*
X170978214Y-96093019D01*
X170976131Y-96184403D01*
X170973872Y-96242798D01*
X170971473Y-96264684D01*
X170958686Y-96269693D01*
X170914325Y-96275689D01*
X170852336Y-96278028D01*
X170746533Y-96278028D01*
X170740670Y-95052062D01*
X170734806Y-93826097D01*
X170688131Y-93731248D01*
X170652330Y-93670855D01*
X170567483Y-93573326D01*
X170464508Y-93494625D01*
X170355468Y-93445129D01*
X170346624Y-93442898D01*
X170325747Y-93439273D01*
X170296481Y-93435988D01*
X170257070Y-93433032D01*
X170205758Y-93430393D01*
X170140788Y-93428059D01*
X170060404Y-93426017D01*
X169962851Y-93424254D01*
X169846371Y-93422759D01*
X169709210Y-93421520D01*
X169549610Y-93420525D01*
X169365816Y-93419760D01*
X169156071Y-93419214D01*
X168918620Y-93418875D01*
X168651705Y-93418731D01*
X168353572Y-93418768D01*
X168022463Y-93418976D01*
X167656623Y-93419342D01*
X167254296Y-93419853D01*
X166813724Y-93420497D01*
X163374806Y-93425782D01*
X163265518Y-93485829D01*
X163224927Y-93510644D01*
X163127980Y-93592366D01*
X163051790Y-93689682D01*
X163005719Y-93791575D01*
X162999479Y-93824318D01*
X162991995Y-93896447D01*
X162986855Y-93987852D01*
X162984918Y-94086379D01*
X162984886Y-94150689D01*
X162984807Y-94306630D01*
G37*
D13*
X152101806Y-70375517D02*
X152101806Y-69921389D01*
X153571806Y-70375517D02*
X153571806Y-69921389D01*
X138639806Y-90479389D02*
X138639806Y-90933517D01*
X140109806Y-90479389D02*
X140109806Y-90933517D01*
X179533742Y-96861453D02*
X179987870Y-96861453D01*
X179533742Y-98331453D02*
X179987870Y-98331453D01*
X158959806Y-91965517D02*
X158959806Y-91511389D01*
X160429806Y-91965517D02*
X160429806Y-91511389D01*
X168712806Y-108542453D02*
X168712806Y-115552453D01*
X168712806Y-115552453D02*
X172012806Y-115552453D01*
X172012806Y-108542453D02*
X172012806Y-115552453D01*
X154133806Y-99385389D02*
X154133806Y-99839517D01*
X155603806Y-99385389D02*
X155603806Y-99839517D01*
X161499806Y-87193389D02*
X161499806Y-87647517D01*
X162969806Y-87193389D02*
X162969806Y-87647517D01*
%LPC*%
D17*
X143946806Y-88150453D03*
X143946806Y-86150453D03*
D18*
X173211699Y-106271346D03*
X174625913Y-107685560D03*
D19*
X182576306Y-106470453D03*
X180501306Y-106470453D03*
D20*
X176802126Y-114763133D03*
X174680806Y-116884453D03*
D21*
X176095019Y-112995366D03*
X173973699Y-115116686D03*
X172913039Y-116177346D03*
D22*
X177640048Y-112560495D03*
X179004764Y-113925211D03*
X173842884Y-119087091D03*
X172478168Y-117722375D03*
D23*
X147756806Y-69148453D03*
X147756806Y-71148453D03*
X157916806Y-69148453D03*
X157916806Y-71148453D03*
D24*
X173172806Y-94024453D03*
X175172806Y-94024453D03*
D25*
X129198806Y-97326453D03*
X127198806Y-97326453D03*
D23*
X133532806Y-110042453D03*
X133532806Y-112042453D03*
D26*
X175696806Y-109772453D03*
D27*
X176616044Y-108853215D03*
D28*
X175050806Y-104438453D03*
X175050806Y-103168454D03*
X175050806Y-101898454D03*
X175050806Y-100628455D03*
X182300806Y-100628455D03*
X182300806Y-101898454D03*
X182300806Y-103168454D03*
X182300806Y-104438453D03*
D23*
X141406806Y-91754453D03*
X141406806Y-93754453D03*
X135056806Y-116900453D03*
X135056806Y-118900453D03*
D17*
X175188806Y-87134453D03*
X175188806Y-85134453D03*
D29*
X152582806Y-113328453D03*
D30*
X165482806Y-113328453D03*
X139682806Y-113328453D03*
D31*
X180522806Y-89198453D03*
D32*
X177982806Y-89198453D03*
X180522806Y-91738453D03*
X177982806Y-91738453D03*
X180522806Y-94278453D03*
X177982806Y-94278453D03*
D25*
X128182806Y-102152453D03*
X126182806Y-102152453D03*
D24*
X126182806Y-99866453D03*
X128182806Y-99866453D03*
D33*
X124962806Y-105986453D03*
X126862806Y-105986453D03*
X125912806Y-108986453D03*
D23*
X152836806Y-69148453D03*
X152836806Y-71148453D03*
D17*
X139374806Y-91706453D03*
X139374806Y-89706453D03*
D25*
X180760806Y-97596453D03*
X178760806Y-97596453D03*
D23*
X159694806Y-90738453D03*
X159694806Y-92738453D03*
D34*
X170362806Y-113542453D03*
X170362806Y-108542453D03*
D17*
X154868806Y-100612453D03*
X154868806Y-98612453D03*
X162234806Y-88420453D03*
X162234806Y-86420453D03*
%LPD*%
M02*
