%TF.GenerationSoftware,KiCad,Pcbnew,8.0.6*%
%TF.CreationDate,2024-11-04T22:38:12+01:00*%
%TF.ProjectId,christmas_ornament_2024,63687269-7374-46d6-9173-5f6f726e616d,1.0*%
%TF.SameCoordinates,Original*%
%TF.FileFunction,Copper,L2,Bot*%
%TF.FilePolarity,Positive*%
%FSLAX46Y46*%
G04 Gerber Fmt 4.6, Leading zero omitted, Abs format (unit mm)*
G04 Created by KiCad (PCBNEW 8.0.6) date 2024-11-04 22:38:12*
%MOMM*%
%LPD*%
G01*
G04 APERTURE LIST*
G04 Aperture macros list*
%AMRoundRect*
0 Rectangle with rounded corners*
0 $1 Rounding radius*
0 $2 $3 $4 $5 $6 $7 $8 $9 X,Y pos of 4 corners*
0 Add a 4 corners polygon primitive as box body*
4,1,4,$2,$3,$4,$5,$6,$7,$8,$9,$2,$3,0*
0 Add four circle primitives for the rounded corners*
1,1,$1+$1,$2,$3*
1,1,$1+$1,$4,$5*
1,1,$1+$1,$6,$7*
1,1,$1+$1,$8,$9*
0 Add four rect primitives between the rounded corners*
20,1,$1+$1,$2,$3,$4,$5,0*
20,1,$1+$1,$4,$5,$6,$7,0*
20,1,$1+$1,$6,$7,$8,$9,0*
20,1,$1+$1,$8,$9,$2,$3,0*%
%AMRotRect*
0 Rectangle, with rotation*
0 The origin of the aperture is its center*
0 $1 length*
0 $2 width*
0 $3 Rotation angle, in degrees counterclockwise*
0 Add horizontal line*
21,1,$1,$2,0,0,$3*%
%AMFreePoly0*
4,1,19,0.499999,-0.750000,0.000000,-0.750000,0.000000,-0.744912,-0.071157,-0.744911,-0.207708,-0.704816,-0.327430,-0.627875,-0.420627,-0.520320,-0.479746,-0.390866,-0.500000,-0.250000,-0.500000,0.250000,-0.479746,0.390866,-0.420627,0.520320,-0.327430,0.627875,-0.207708,0.704816,-0.071157,0.744911,0.000000,0.744912,0.000000,0.750000,0.499999,0.750000,0.499999,-0.750000,0.499999,-0.750000,
$1*%
%AMFreePoly1*
4,1,19,0.000000,0.744912,0.071157,0.744911,0.207708,0.704816,0.327430,0.627875,0.420627,0.520320,0.479746,0.390866,0.500000,0.250000,0.500000,-0.250000,0.479746,-0.390866,0.420627,-0.520320,0.327430,-0.627875,0.207708,-0.704816,0.071157,-0.744911,0.000000,-0.744912,0.000000,-0.750000,-0.499999,-0.750000,-0.499999,0.750000,0.000000,0.750000,0.000000,0.744912,0.000000,0.744912,
$1*%
G04 Aperture macros list end*
%TA.AperFunction,SMDPad,CuDef*%
%ADD10RoundRect,0.250000X0.450000X-0.350000X0.450000X0.350000X-0.450000X0.350000X-0.450000X-0.350000X0*%
%TD*%
%TA.AperFunction,SMDPad,CuDef*%
%ADD11RoundRect,0.250000X-0.565685X-0.070711X-0.070711X-0.565685X0.565685X0.070711X0.070711X0.565685X0*%
%TD*%
%TA.AperFunction,SMDPad,CuDef*%
%ADD12RoundRect,0.250000X0.337500X0.475000X-0.337500X0.475000X-0.337500X-0.475000X0.337500X-0.475000X0*%
%TD*%
%TA.AperFunction,SMDPad,CuDef*%
%ADD13RotRect,0.700000X1.500000X225.000000*%
%TD*%
%TA.AperFunction,SMDPad,CuDef*%
%ADD14RotRect,1.000000X0.800000X225.000000*%
%TD*%
%TA.AperFunction,SMDPad,CuDef*%
%ADD15RoundRect,0.250000X-0.450000X0.350000X-0.450000X-0.350000X0.450000X-0.350000X0.450000X0.350000X0*%
%TD*%
%TA.AperFunction,SMDPad,CuDef*%
%ADD16RoundRect,0.250000X-0.350000X-0.450000X0.350000X-0.450000X0.350000X0.450000X-0.350000X0.450000X0*%
%TD*%
%TA.AperFunction,SMDPad,CuDef*%
%ADD17RoundRect,0.250000X0.350000X0.450000X-0.350000X0.450000X-0.350000X-0.450000X0.350000X-0.450000X0*%
%TD*%
%TA.AperFunction,SMDPad,CuDef*%
%ADD18FreePoly0,45.000000*%
%TD*%
%TA.AperFunction,SMDPad,CuDef*%
%ADD19FreePoly1,45.000000*%
%TD*%
%TA.AperFunction,SMDPad,CuDef*%
%ADD20R,1.750000X0.650000*%
%TD*%
%TA.AperFunction,SMDPad,CuDef*%
%ADD21C,17.900000*%
%TD*%
%TA.AperFunction,SMDPad,CuDef*%
%ADD22R,5.700000X6.100000*%
%TD*%
%TA.AperFunction,SMDPad,CuDef*%
%ADD23RoundRect,0.425000X0.425000X0.425000X-0.425000X0.425000X-0.425000X-0.425000X0.425000X-0.425000X0*%
%TD*%
%TA.AperFunction,SMDPad,CuDef*%
%ADD24C,1.700000*%
%TD*%
%TA.AperFunction,SMDPad,CuDef*%
%ADD25RoundRect,0.200000X-0.200000X0.750000X-0.200000X-0.750000X0.200000X-0.750000X0.200000X0.750000X0*%
%TD*%
%TA.AperFunction,SMDPad,CuDef*%
%ADD26RoundRect,0.250000X0.650000X-1.500000X0.650000X1.500000X-0.650000X1.500000X-0.650000X-1.500000X0*%
%TD*%
%TA.AperFunction,ViaPad*%
%ADD27C,0.700000*%
%TD*%
%TA.AperFunction,Conductor*%
%ADD28C,0.300000*%
%TD*%
%TA.AperFunction,Conductor*%
%ADD29C,0.500000*%
%TD*%
G04 APERTURE END LIST*
D10*
X143946806Y-88150453D03*
X143946806Y-86150453D03*
D11*
X173211699Y-106271346D03*
X174625913Y-107685560D03*
D12*
X182576306Y-106470453D03*
X180501306Y-106470453D03*
D13*
X176095019Y-112995366D03*
X173973699Y-115116686D03*
X172913039Y-116177346D03*
D14*
X177640048Y-112560495D03*
X179004764Y-113925211D03*
X173842884Y-119087091D03*
X172478168Y-117722375D03*
D15*
X147756806Y-69148453D03*
X147756806Y-71148453D03*
X157916806Y-69148453D03*
X157916806Y-71148453D03*
D16*
X173172806Y-94024453D03*
X175172806Y-94024453D03*
D17*
X129198806Y-97326453D03*
X127198806Y-97326453D03*
D15*
X133532806Y-110042453D03*
X133532806Y-112042453D03*
D18*
X175696806Y-109772453D03*
D19*
X176616044Y-108853215D03*
D20*
X175050806Y-104438453D03*
X175050806Y-103168454D03*
X175050806Y-101898454D03*
X175050806Y-100628455D03*
X182300806Y-100628455D03*
X182300806Y-101898454D03*
X182300806Y-103168454D03*
X182300806Y-104438453D03*
D15*
X141406806Y-91754453D03*
X141406806Y-93754453D03*
X135056806Y-116900453D03*
X135056806Y-118900453D03*
D10*
X175188806Y-87134453D03*
X175188806Y-85134453D03*
D21*
X152582806Y-113328453D03*
D22*
X165482806Y-113328453D03*
X139682806Y-113328453D03*
D23*
X180522806Y-89198453D03*
D24*
X177982806Y-89198453D03*
X180522806Y-91738453D03*
X177982806Y-91738453D03*
X180522806Y-94278453D03*
X177982806Y-94278453D03*
D17*
X128182806Y-102152453D03*
X126182806Y-102152453D03*
D16*
X126182806Y-99866453D03*
X128182806Y-99866453D03*
D25*
X124962806Y-105986453D03*
X126862806Y-105986453D03*
X125912806Y-108986453D03*
D15*
X152836806Y-69148453D03*
X152836806Y-71148453D03*
D10*
X139374806Y-91706453D03*
X139374806Y-89706453D03*
D17*
X180760806Y-97596453D03*
X178760806Y-97596453D03*
D15*
X159694806Y-90738453D03*
X159694806Y-92738453D03*
D26*
X170362806Y-113542453D03*
X170362806Y-108542453D03*
D10*
X154868806Y-100612453D03*
X154868806Y-98612453D03*
X162234806Y-88420453D03*
X162234806Y-86420453D03*
D27*
X160964806Y-101390453D03*
X143692806Y-108248453D03*
X179252806Y-105962453D03*
X177474806Y-102152453D03*
X175696806Y-115614453D03*
X177982806Y-95802453D03*
X129976806Y-107740453D03*
X160202806Y-105962453D03*
X176712806Y-102152453D03*
X179252806Y-106978453D03*
X177220806Y-95802453D03*
X160202806Y-120948453D03*
X129214806Y-107740453D03*
X145216806Y-120948453D03*
X169473806Y-72815453D03*
X172775806Y-111931453D03*
X137088806Y-67608453D03*
X129976806Y-91230453D03*
X152074806Y-92246453D03*
X134294806Y-113836453D03*
X144454806Y-120186453D03*
X152836806Y-77768453D03*
X141152806Y-67608453D03*
X166679806Y-70021453D03*
X152836806Y-73958453D03*
X127182806Y-94024453D03*
X135056806Y-115106453D03*
X143692806Y-119424453D03*
X172775806Y-107867453D03*
X154868806Y-95040453D03*
X128565806Y-82989453D03*
X162234806Y-84978497D03*
X142168806Y-103422453D03*
X176712806Y-97834453D03*
X143946806Y-84715138D03*
X179252806Y-83610453D03*
X127944806Y-103930453D03*
D28*
X160964806Y-101390453D02*
X159694806Y-100120453D01*
X159694806Y-100120453D02*
X159694806Y-92738453D01*
D29*
X177982806Y-95040453D02*
X177220806Y-95802453D01*
X177982806Y-94278453D02*
X177982806Y-95040453D01*
X127460806Y-105986453D02*
X129214806Y-107740453D01*
X176712806Y-102152453D02*
X176712806Y-101136453D01*
X160202806Y-105962453D02*
X159948806Y-105962453D01*
X172478168Y-117722375D02*
X173842884Y-119087091D01*
X173842884Y-119087091D02*
X176506164Y-116423811D01*
X152582806Y-113328453D02*
X156976728Y-117722375D01*
D28*
X175696806Y-115614453D02*
X176506164Y-116423811D01*
D29*
X160202806Y-120948453D02*
X152582806Y-113328453D01*
X179760806Y-106470453D02*
X179252806Y-105962453D01*
X177474806Y-102152453D02*
X176712806Y-101390453D01*
X176712806Y-101136453D02*
X176204806Y-100628453D01*
X152582806Y-113582453D02*
X152582806Y-113328453D01*
X126862806Y-105986453D02*
X127460806Y-105986453D01*
X145216806Y-120948453D02*
X152582806Y-113582453D01*
X143692806Y-108248453D02*
X147502806Y-108248453D01*
X177982806Y-94278453D02*
X177982806Y-95802453D01*
X180501306Y-106470453D02*
X179760806Y-106470453D01*
X128222806Y-105986453D02*
X129976806Y-107740453D01*
X176204806Y-100628453D02*
X175050808Y-100628453D01*
X179004764Y-113925211D02*
X177640048Y-112560495D01*
X126862806Y-105986453D02*
X128222806Y-105986453D01*
X159948806Y-105962453D02*
X152582806Y-113328453D01*
X147502806Y-108248453D02*
X152582806Y-113328453D01*
X175050808Y-100628453D02*
X175050806Y-100628455D01*
X176712806Y-101390453D02*
X176712806Y-101136453D01*
X179252806Y-105962453D02*
X179252806Y-106978453D01*
X176506164Y-116423811D02*
X179004764Y-113925211D01*
X179760806Y-106470453D02*
X179252806Y-106978453D01*
X159380806Y-103676453D02*
X145784806Y-103676453D01*
X165482806Y-113328453D02*
X165482806Y-109826453D01*
X165482806Y-109826453D02*
X166766806Y-108542453D01*
X165482806Y-109778453D02*
X159380806Y-103676453D01*
X165482806Y-113328453D02*
X165482806Y-109778453D01*
X166766806Y-108542453D02*
X170362806Y-108542453D01*
X145784806Y-103676453D02*
X139682806Y-109778453D01*
X139682806Y-113328453D02*
X139682806Y-112954453D01*
X139682806Y-109778453D02*
X139682806Y-113328453D01*
X173520592Y-105962453D02*
X173211699Y-106271346D01*
X163559699Y-106271346D02*
X159986806Y-102698453D01*
X154868806Y-102698453D02*
X145432806Y-102698453D01*
X157932806Y-69132453D02*
X172394806Y-69132453D01*
X182576306Y-106470453D02*
X181052306Y-107994453D01*
X184840806Y-104205953D02*
X182576306Y-106470453D01*
X145432806Y-102698453D02*
X142930806Y-105200453D01*
X175442806Y-105962453D02*
X173520592Y-105962453D01*
X172394806Y-69132453D02*
X181538806Y-78276453D01*
X182300806Y-104438453D02*
X180925806Y-104438453D01*
X152836806Y-69148453D02*
X147756806Y-69148453D01*
X182576306Y-104713953D02*
X182300806Y-104438453D01*
X131230806Y-105200453D02*
X128182806Y-102152453D01*
X177149910Y-111113349D02*
X177149910Y-109387081D01*
X184840806Y-90468453D02*
X184840806Y-104205953D01*
D28*
X133532806Y-110042453D02*
X135756806Y-112266453D01*
X135756806Y-116200453D02*
X135056806Y-116900453D01*
D29*
X181538806Y-78276453D02*
X181538806Y-81832453D01*
X184840806Y-85134453D02*
X184840806Y-90468453D01*
X182576306Y-106470453D02*
X182576306Y-104713953D01*
D28*
X154868806Y-100612453D02*
X154868806Y-102698453D01*
D29*
X177474806Y-107994453D02*
X176616044Y-108853215D01*
X157916806Y-69148453D02*
X152836806Y-69148453D01*
X180014806Y-98342453D02*
X180760806Y-97596453D01*
D28*
X133532806Y-110042453D02*
X133532806Y-105200453D01*
D29*
X179282806Y-87898453D02*
X182270806Y-87898453D01*
X133532806Y-105200453D02*
X131230806Y-105200453D01*
X176616044Y-107135691D02*
X175442806Y-105962453D01*
X181538806Y-81832453D02*
X184840806Y-85134453D01*
X176095019Y-112995366D02*
X176095019Y-112168240D01*
X173211699Y-106271346D02*
X163559699Y-106271346D01*
X182270806Y-87898453D02*
X184840806Y-90468453D01*
X180925806Y-104438453D02*
X180014806Y-103527453D01*
X177149910Y-109387081D02*
X176616044Y-108853215D01*
X177982806Y-89198453D02*
X179282806Y-87898453D01*
D28*
X135756806Y-112266453D02*
X135756806Y-116200453D01*
D29*
X176095019Y-112168240D02*
X177149910Y-111113349D01*
X181052306Y-107994453D02*
X177474806Y-107994453D01*
X142930806Y-105200453D02*
X133532806Y-105200453D01*
X180014806Y-103527453D02*
X180014806Y-98342453D01*
X176616044Y-108853215D02*
X176616044Y-107135691D01*
X159986806Y-102698453D02*
X154868806Y-102698453D01*
D28*
X157799334Y-99662453D02*
X146944806Y-99662453D01*
X146486806Y-100120453D02*
X146460756Y-100120453D01*
X146944806Y-99662453D02*
X146486806Y-100120453D01*
X161305335Y-103168454D02*
X157799334Y-99662453D01*
X142458756Y-104122453D02*
X132962806Y-104122453D01*
X132962806Y-104122453D02*
X128706806Y-99866453D01*
X146460756Y-100120453D02*
X142458756Y-104122453D01*
X175050806Y-103168454D02*
X174188807Y-103168454D01*
X128706806Y-99866453D02*
X128182806Y-99866453D01*
X175050806Y-103168454D02*
X161305335Y-103168454D01*
X124888806Y-101160453D02*
X124888806Y-105912453D01*
X124888806Y-105912453D02*
X124962806Y-105986453D01*
X126182806Y-99866453D02*
X124888806Y-101160453D01*
D29*
X175696806Y-110788453D02*
X175696806Y-109772453D01*
X172942806Y-113542453D02*
X175696806Y-110788453D01*
X170362806Y-113542453D02*
X172399466Y-113542453D01*
X170362806Y-113542453D02*
X172942806Y-113542453D01*
X172399466Y-113542453D02*
X173973699Y-115116686D01*
D28*
X169092806Y-117392453D02*
X163856806Y-122628453D01*
X129976806Y-91230453D02*
X122102806Y-91230453D01*
X128248806Y-95090453D02*
X129976806Y-93362453D01*
D29*
X127944806Y-77768453D02*
X152836806Y-77768453D01*
D28*
X151616806Y-92704453D02*
X136884806Y-92704453D01*
X136884806Y-92704453D02*
X130992806Y-98596453D01*
X134687350Y-120186453D02*
X130762806Y-116261909D01*
X152074806Y-92246453D02*
X151616806Y-92704453D01*
X144454806Y-120186453D02*
X142422806Y-120186453D01*
X164520806Y-77768453D02*
X152836806Y-77768453D01*
X128248806Y-98596453D02*
X128248806Y-95090453D01*
X134294806Y-113836453D02*
X130762806Y-113836453D01*
X169473806Y-72815453D02*
X164520806Y-77768453D01*
D29*
X124618806Y-108986453D02*
X125912806Y-108986453D01*
X122102806Y-106470453D02*
X124618806Y-108986453D01*
D28*
X169457350Y-111442453D02*
X169092806Y-111806997D01*
X163856806Y-122628453D02*
X144356806Y-122628453D01*
X169092806Y-111806997D02*
X169092806Y-117392453D01*
D29*
X122102806Y-83610453D02*
X122102806Y-91230453D01*
D28*
X172775806Y-111931453D02*
X172286806Y-111442453D01*
X142422806Y-120186453D02*
X134687350Y-120186453D01*
X130992806Y-98596453D02*
X128248806Y-98596453D01*
D29*
X122102806Y-91230453D02*
X122102806Y-106470453D01*
D28*
X129976806Y-93362453D02*
X129976806Y-91230453D01*
X130762806Y-113836453D02*
X125912806Y-108986453D01*
X144356806Y-122628453D02*
X141914806Y-120186453D01*
X137088806Y-67608453D02*
X137088806Y-68624453D01*
D29*
X127944806Y-77768453D02*
X122102806Y-83610453D01*
D28*
X172286806Y-111442453D02*
X169457350Y-111442453D01*
X130762806Y-116261909D02*
X130762806Y-113836453D01*
X137088806Y-68624453D02*
X127944806Y-77768453D01*
X144692806Y-71148453D02*
X141152806Y-67608453D01*
X147756806Y-71148453D02*
X144692806Y-71148453D01*
X166679806Y-70021453D02*
X165552806Y-71148453D01*
X165552806Y-71148453D02*
X157916806Y-71148453D01*
X152836806Y-73958453D02*
X152836806Y-71148453D01*
X124134806Y-106978453D02*
X124442806Y-107286453D01*
X124134806Y-97072453D02*
X124134806Y-106978453D01*
X124442806Y-107286453D02*
X125604806Y-107286453D01*
X127182806Y-94024453D02*
X124134806Y-97072453D01*
X125604806Y-107286453D02*
X125912806Y-106978453D01*
X125912806Y-106978453D02*
X125912806Y-102422453D01*
X125912806Y-102422453D02*
X126182806Y-102152453D01*
X135056806Y-115106453D02*
X135056806Y-113566453D01*
X135056806Y-113566453D02*
X133532806Y-112042453D01*
X143692806Y-119424453D02*
X143168806Y-118900453D01*
X143168806Y-118900453D02*
X135056806Y-118900453D01*
X172957699Y-107685560D02*
X172775806Y-107867453D01*
X174625913Y-107685560D02*
X172957699Y-107685560D01*
X154868806Y-98612453D02*
X154868806Y-95040453D01*
X132770806Y-89706453D02*
X139374806Y-89706453D01*
X128565806Y-82989453D02*
X128565806Y-85501453D01*
X128565806Y-85501453D02*
X132770806Y-89706453D01*
X162234806Y-84978497D02*
X162234806Y-86420453D01*
X142168806Y-103422453D02*
X141406806Y-102660453D01*
X141406806Y-102660453D02*
X141406806Y-93754453D01*
X175172806Y-96294453D02*
X176712806Y-97834453D01*
X175172806Y-94024453D02*
X175172806Y-96294453D01*
X143946806Y-84715138D02*
X143946806Y-86150453D01*
X179252806Y-83610453D02*
X177728806Y-85134453D01*
X177728806Y-85134453D02*
X175188806Y-85134453D01*
X127944806Y-103930453D02*
X127198806Y-103184453D01*
X127198806Y-103184453D02*
X127198806Y-97326453D01*
X139422806Y-91754453D02*
X139374806Y-91706453D01*
X182300806Y-100628455D02*
X182808806Y-100120455D01*
X173172806Y-94024453D02*
X173172806Y-91770453D01*
X181019863Y-90538453D02*
X179182806Y-90538453D01*
X173204806Y-91738453D02*
X173172806Y-91770453D01*
X173172806Y-91770453D02*
X173156806Y-91754453D01*
X179182806Y-90538453D02*
X177982806Y-91738453D01*
X177982806Y-91738453D02*
X173204806Y-91738453D01*
X182808806Y-92327396D02*
X181019863Y-90538453D01*
X158486806Y-91546453D02*
X158694806Y-91754453D01*
X162234806Y-91754453D02*
X173156806Y-91754453D01*
X182808806Y-100120455D02*
X182808806Y-92327396D01*
X141406806Y-91754453D02*
X139422806Y-91754453D01*
X141614806Y-91546453D02*
X158486806Y-91546453D01*
X158694806Y-91754453D02*
X162234806Y-91754453D01*
X162234806Y-88420453D02*
X162234806Y-91754453D01*
X141406806Y-91754453D02*
X141614806Y-91546453D01*
X175050806Y-104438453D02*
X177220806Y-104438453D01*
X178760806Y-97596453D02*
X178760806Y-96040452D01*
X178760806Y-96040452D02*
X180522806Y-94278452D01*
X177220806Y-104438453D02*
X178760806Y-102898453D01*
X178760806Y-102898453D02*
X178760806Y-97596453D01*
X182850806Y-101898454D02*
X183824806Y-100924454D01*
X159694806Y-85896453D02*
X159694806Y-90738453D01*
X143946806Y-88150453D02*
X159694806Y-88150453D01*
X182300806Y-101898454D02*
X182850806Y-101898454D01*
X175188806Y-87134453D02*
X175188806Y-90468453D01*
X178490806Y-90468453D02*
X175188806Y-90468453D01*
X171918806Y-83864453D02*
X161726806Y-83864453D01*
X141472806Y-90656453D02*
X143946806Y-88182453D01*
X161726806Y-83864453D02*
X159694806Y-85896453D01*
X130468806Y-97326453D02*
X137138806Y-90656453D01*
X183824806Y-92500453D02*
X180522806Y-89198453D01*
X183824806Y-100924454D02*
X183824806Y-92500453D01*
X137138806Y-90656453D02*
X141472806Y-90656453D01*
X129198806Y-97326453D02*
X130468806Y-97326453D01*
X180522806Y-89198453D02*
X179760806Y-89198453D01*
X175188806Y-87134453D02*
X171918806Y-83864453D01*
X143946806Y-88182453D02*
X143946806Y-88150453D01*
X179760806Y-89198453D02*
X178490806Y-90468453D01*
X181075806Y-98936909D02*
X182046806Y-97965909D01*
X181075806Y-102705453D02*
X181075806Y-98936909D01*
X182300806Y-103168454D02*
X181538807Y-103168454D01*
X181538807Y-103168454D02*
X181075806Y-102705453D01*
X182046806Y-93262453D02*
X180522806Y-91738453D01*
X182046806Y-97965909D02*
X182046806Y-93262453D01*
%TA.AperFunction,Conductor*%
G36*
X159444496Y-106118962D02*
G01*
X159446035Y-106120257D01*
X159791001Y-106465223D01*
X159794428Y-106473496D01*
X159794255Y-106475499D01*
X159572932Y-107748926D01*
X159568701Y-107756069D01*
X152663367Y-113264333D01*
X152654763Y-113266814D01*
X152646925Y-113262483D01*
X152644444Y-113253879D01*
X152646924Y-113247893D01*
X158155190Y-106342555D01*
X158162330Y-106338327D01*
X159435761Y-106117003D01*
X159444496Y-106118962D01*
G37*
%TD.AperFunction*%
%TA.AperFunction,Conductor*%
G36*
X152663367Y-113392572D02*
G01*
X159568701Y-118900836D01*
X159572932Y-118907979D01*
X159794255Y-120181406D01*
X159792296Y-120190143D01*
X159791001Y-120191682D01*
X159446035Y-120536648D01*
X159437762Y-120540075D01*
X159435759Y-120539902D01*
X158162332Y-120318579D01*
X158155189Y-120314348D01*
X158057340Y-120191682D01*
X152646924Y-113409013D01*
X152644444Y-113400410D01*
X152648775Y-113392572D01*
X152657379Y-113390091D01*
X152663367Y-113392572D01*
G37*
%TD.AperFunction*%
%TA.AperFunction,Conductor*%
G36*
X165701796Y-109270479D02*
G01*
X165702255Y-109270914D01*
X166047077Y-109615736D01*
X166785196Y-110272846D01*
X166789096Y-110280907D01*
X166788168Y-110286200D01*
X165496233Y-113296228D01*
X165489820Y-113302479D01*
X165480866Y-113302365D01*
X165474615Y-113295952D01*
X165474078Y-113294232D01*
X164782919Y-110284368D01*
X164784407Y-110275537D01*
X164785607Y-110273943D01*
X165685276Y-109271371D01*
X165693350Y-109267504D01*
X165701796Y-109270479D01*
G37*
%TD.AperFunction*%
%TA.AperFunction,Conductor*%
G36*
X152519881Y-113395591D02*
G01*
X152522515Y-113404149D01*
X152520143Y-113410181D01*
X147131341Y-120420341D01*
X147124201Y-120424713D01*
X145865248Y-120658493D01*
X145856488Y-120656635D01*
X145854839Y-120655263D01*
X145509820Y-120310244D01*
X145506393Y-120301971D01*
X145506525Y-120300220D01*
X145698883Y-119029015D01*
X145702989Y-119021757D01*
X152503410Y-113394035D01*
X152511966Y-113391402D01*
X152519881Y-113395591D01*
G37*
%TD.AperFunction*%
%TA.AperFunction,Conductor*%
G36*
X145511132Y-107854370D02*
G01*
X152501597Y-113264825D01*
X152506042Y-113272598D01*
X152503688Y-113281238D01*
X152495915Y-113285683D01*
X152489511Y-113284690D01*
X144485022Y-109569780D01*
X144478960Y-109563189D01*
X144478540Y-109561768D01*
X144236420Y-108499738D01*
X144236127Y-108497137D01*
X144236127Y-108008878D01*
X144239554Y-108000605D01*
X144246481Y-107997255D01*
X145502628Y-107851999D01*
X145511132Y-107854370D01*
G37*
%TD.AperFunction*%
%TA.AperFunction,Conductor*%
G36*
X169469851Y-107649490D02*
G01*
X170355518Y-108534175D01*
X170358949Y-108542447D01*
X170355527Y-108550722D01*
X170355518Y-108550731D01*
X169469851Y-109435415D01*
X169461576Y-109438837D01*
X169454732Y-109436622D01*
X168567656Y-108795955D01*
X168562955Y-108788333D01*
X168562806Y-108786470D01*
X168562806Y-108298435D01*
X168566233Y-108290162D01*
X168567656Y-108288950D01*
X169454734Y-107648282D01*
X169463445Y-107646217D01*
X169469851Y-107649490D01*
G37*
%TD.AperFunction*%
%TA.AperFunction,Conductor*%
G36*
X165313749Y-109256949D02*
G01*
X165314253Y-109257487D01*
X165616502Y-109601677D01*
X166206816Y-110273905D01*
X166209700Y-110282383D01*
X166209406Y-110284338D01*
X165491817Y-113294324D01*
X165486565Y-113301577D01*
X165477723Y-113302992D01*
X165470470Y-113297740D01*
X165469651Y-113296147D01*
X164205805Y-110286105D01*
X164205763Y-110277152D01*
X164208753Y-110272893D01*
X164952476Y-109601677D01*
X165297204Y-109256948D01*
X165305476Y-109253522D01*
X165313749Y-109256949D01*
G37*
%TD.AperFunction*%
M02*
